<svg viewBox="0 0 1513 400" xmlns="http://www.w3.org/2000/svg"><g><g><g><g><g><line x1="39.98800086975098" y1="358.6915219737621" x2="34.98800086975098" y2="358.6915219737621" style="visibility: inherit;" fill="rgb(0, 0, 0)" stroke="rgb(200, 195, 188)" stroke-width="1px"></line><line x1="39.98800086975098" y1="327.1436463392603" x2="34.98800086975098" y2="327.1436463392603" style="visibility: inherit;" fill="rgb(0, 0, 0)" stroke="rgb(200, 195, 188)" stroke-width="1px"></line><line x1="39.98800086975098" y1="295.5957707047584" x2="34.98800086975098" y2="295.5957707047584" style="visibility: inherit;" fill="rgb(0, 0, 0)" stroke="rgb(200, 195, 188)" stroke-width="1px"></line><line x1="39.98800086975098" y1="264.0478950702566" x2="34.98800086975098" y2="264.0478950702566" style="visibility: inherit;" fill="rgb(0, 0, 0)" stroke="rgb(200, 195, 188)" stroke-width="1px"></line><line x1="39.98800086975098" y1="232.50001943575467" x2="34.98800086975098" y2="232.50001943575467" style="visibility: inherit;" fill="rgb(0, 0, 0)" stroke="rgb(200, 195, 188)" stroke-width="1px"></line><line x1="39.98800086975098" y1="200.9521438012528" x2="34.98800086975098" y2="200.9521438012528" style="visibility: inherit;" fill="rgb(0, 0, 0)" stroke="rgb(200, 195, 188)" stroke-width="1px"></line><line x1="39.98800086975098" y1="169.40426816675105" x2="34.98800086975098" y2="169.40426816675105" style="visibility: inherit;" fill="rgb(0, 0, 0)" stroke="rgb(200, 195, 188)" stroke-width="1px"></line><line x1="39.98800086975098" y1="137.85639253224917" x2="34.98800086975098" y2="137.85639253224917" style="visibility: inherit;" fill="rgb(0, 0, 0)" stroke="rgb(200, 195, 188)" stroke-width="1px"></line><line x1="39.98800086975098" y1="106.30851689774731" x2="34.98800086975098" y2="106.30851689774731" style="visibility: inherit;" fill="rgb(0, 0, 0)" stroke="rgb(200, 195, 188)" stroke-width="1px"></line><line x1="39.98800086975098" y1="74.76064126324543" x2="34.98800086975098" y2="74.76064126324543" style="visibility: inherit;" fill="rgb(0, 0, 0)" stroke="rgb(200, 195, 188)" stroke-width="1px"></line><line x1="39.98800086975098" y1="43.21276562874351" x2="34.98800086975098" y2="43.21276562874351" style="visibility: inherit;" fill="rgb(0, 0, 0)" stroke="rgb(200, 195, 188)" stroke-width="1px"></line><line x1="39.98800086975098" y1="11.664889994241808" x2="34.98800086975098" y2="11.664889994241808" style="visibility: inherit;" fill="rgb(0, 0, 0)" stroke="rgb(200, 195, 188)" stroke-width="1px"></line></g><g transform="translate(29.988000869750977, 0)"><text style="text-anchor: end; visibility: inherit; font-family: Roboto, sans-serif; font-size: 12px; font-weight: 200;" x="0" y="358.6915219737621" dx="0em" dy="0.3em" fill="rgb(232, 230, 227)" stroke="none" stroke-width="1px">3.4</text><text style="text-anchor: end; visibility: inherit; font-family: Roboto, sans-serif; font-size: 12px; font-weight: 200;" x="0" y="327.1436463392603" dx="0em" dy="0.3em" fill="rgb(232, 230, 227)" stroke="none" stroke-width="1px">3.6</text><text style="text-anchor: end; visibility: inherit; font-family: Roboto, sans-serif; font-size: 12px; font-weight: 200;" x="0" y="295.5957707047584" dx="0em" dy="0.3em" fill="rgb(232, 230, 227)" stroke="none" stroke-width="1px">3.8</text><text style="text-anchor: end; visibility: inherit; font-family: Roboto, sans-serif; font-size: 12px; font-weight: 200;" x="0" y="264.0478950702566" dx="0em" dy="0.3em" fill="rgb(232, 230, 227)" stroke="none" stroke-width="1px">4</text><text style="text-anchor: end; visibility: inherit; font-family: Roboto, sans-serif; font-size: 12px; font-weight: 200;" x="0" y="232.50001943575467" dx="0em" dy="0.3em" fill="rgb(232, 230, 227)" stroke="none" stroke-width="1px">4.2</text><text style="text-anchor: end; visibility: inherit; font-family: Roboto, sans-serif; font-size: 12px; font-weight: 200;" x="0" y="200.9521438012528" dx="0em" dy="0.3em" fill="rgb(232, 230, 227)" stroke="none" stroke-width="1px">4.4</text><text style="text-anchor: end; visibility: inherit; font-family: Roboto, sans-serif; font-size: 12px; font-weight: 200;" x="0" y="169.40426816675105" dx="0em" dy="0.3em" fill="rgb(232, 230, 227)" stroke="none" stroke-width="1px">4.6</text><text style="text-anchor: end; visibility: inherit; font-family: Roboto, sans-serif; font-size: 12px; font-weight: 200;" x="0" y="137.85639253224917" dx="0em" dy="0.3em" fill="rgb(232, 230, 227)" stroke="none" stroke-width="1px">4.8</text><text style="text-anchor: end; visibility: inherit; font-family: Roboto, sans-serif; font-size: 12px; font-weight: 200;" x="0" y="106.30851689774731" dx="0em" dy="0.3em" fill="rgb(232, 230, 227)" stroke="none" stroke-width="1px">5</text><text style="text-anchor: end; visibility: inherit; font-family: Roboto, sans-serif; font-size: 12px; font-weight: 200;" x="0" y="74.76064126324543" dx="0em" dy="0.3em" fill="rgb(232, 230, 227)" stroke="none" stroke-width="1px">5.2</text><text style="text-anchor: end; visibility: inherit; font-family: Roboto, sans-serif; font-size: 12px; font-weight: 200;" x="0" y="43.21276562874351" dx="0em" dy="0.3em" fill="rgb(232, 230, 227)" stroke="none" stroke-width="1px">5.4</text><text style="text-anchor: end; visibility: inherit; font-family: Roboto, sans-serif; font-size: 12px; font-weight: 200;" x="0" y="11.664889994241808" dx="0em" dy="0.3em" fill="rgb(232, 230, 227)" stroke="none" stroke-width="1px">5.6</text></g><line x1="39.98800086975098" y1="0" x2="39.98800086975098" y2="377.6199998855591" fill="rgb(0, 0, 0)" stroke="rgb(200, 195, 188)" stroke-width="1px"></line></g></g><g transform="translate(39, 0)" clip-path="url(#clip_0)"><clipPath id="clip_0"><rect width="1473" height="377"></rect></clipPath><g><g><g><line x1="133.7777697684884" y1="0" x2="133.7777697684884" y2="377.6199998855591" fill="rgb(0, 0, 0)" stroke="rgb(194, 189, 181)" stroke-width="1px" opacity="0.25"></line><line x1="298.5286658335545" y1="0" x2="298.5286658335545" y2="377.6199998855591" fill="rgb(0, 0, 0)" stroke="rgb(194, 189, 181)" stroke-width="1px" opacity="0.25"></line><line x1="463.2795618986205" y1="0" x2="463.2795618986205" y2="377.6199998855591" fill="rgb(0, 0, 0)" stroke="rgb(194, 189, 181)" stroke-width="1px" opacity="0.25"></line><line x1="628.0304579636866" y1="0" x2="628.0304579636866" y2="377.6199998855591" fill="rgb(0, 0, 0)" stroke="rgb(194, 189, 181)" stroke-width="1px" opacity="0.25"></line><line x1="792.7813540287526" y1="0" x2="792.7813540287526" y2="377.6199998855591" fill="rgb(0, 0, 0)" stroke="rgb(194, 189, 181)" stroke-width="1px" opacity="0.25"></line><line x1="957.5322500938186" y1="0" x2="957.5322500938186" y2="377.6199998855591" fill="rgb(0, 0, 0)" stroke="rgb(194, 189, 181)" stroke-width="1px" opacity="0.25"></line><line x1="1122.2831461588846" y1="0" x2="1122.2831461588846" y2="377.6199998855591" fill="rgb(0, 0, 0)" stroke="rgb(194, 189, 181)" stroke-width="1px" opacity="0.25"></line><line x1="1287.0340422239506" y1="0" x2="1287.0340422239506" y2="377.6199998855591" fill="rgb(0, 0, 0)" stroke="rgb(194, 189, 181)" stroke-width="1px" opacity="0.25"></line><line x1="1451.7849382890167" y1="0" x2="1451.7849382890167" y2="377.6199998855591" fill="rgb(0, 0, 0)" stroke="rgb(194, 189, 181)" stroke-width="1px" opacity="0.25"></line></g><g><line x1="0" y1="358.6915219737621" x2="1473.011999130249" y2="358.6915219737621" fill="rgb(0, 0, 0)" stroke="rgb(194, 189, 181)" stroke-width="1px" opacity="0.25"></line><line x1="0" y1="327.1436463392603" x2="1473.011999130249" y2="327.1436463392603" fill="rgb(0, 0, 0)" stroke="rgb(194, 189, 181)" stroke-width="1px" opacity="0.25"></line><line x1="0" y1="295.5957707047584" x2="1473.011999130249" y2="295.5957707047584" fill="rgb(0, 0, 0)" stroke="rgb(194, 189, 181)" stroke-width="1px" opacity="0.25"></line><line x1="0" y1="264.0478950702566" x2="1473.011999130249" y2="264.0478950702566" fill="rgb(0, 0, 0)" stroke="rgb(194, 189, 181)" stroke-width="1px" opacity="0.25"></line><line x1="0" y1="232.50001943575467" x2="1473.011999130249" y2="232.50001943575467" fill="rgb(0, 0, 0)" stroke="rgb(194, 189, 181)" stroke-width="1px" opacity="0.25"></line><line x1="0" y1="200.9521438012528" x2="1473.011999130249" y2="200.9521438012528" fill="rgb(0, 0, 0)" stroke="rgb(194, 189, 181)" stroke-width="1px" opacity="0.25"></line><line x1="0" y1="169.40426816675105" x2="1473.011999130249" y2="169.40426816675105" fill="rgb(0, 0, 0)" stroke="rgb(194, 189, 181)" stroke-width="1px" opacity="0.25"></line><line x1="0" y1="137.85639253224917" x2="1473.011999130249" y2="137.85639253224917" fill="rgb(0, 0, 0)" stroke="rgb(194, 189, 181)" stroke-width="1px" opacity="0.25"></line><line x1="0" y1="106.30851689774731" x2="1473.011999130249" y2="106.30851689774731" fill="rgb(0, 0, 0)" stroke="rgb(194, 189, 181)" stroke-width="1px" opacity="0.25"></line><line x1="0" y1="74.76064126324543" x2="1473.011999130249" y2="74.76064126324543" fill="rgb(0, 0, 0)" stroke="rgb(194, 189, 181)" stroke-width="1px" opacity="0.25"></line><line x1="0" y1="43.21276562874351" x2="1473.011999130249" y2="43.21276562874351" fill="rgb(0, 0, 0)" stroke="rgb(194, 189, 181)" stroke-width="1px" opacity="0.25"></line><line x1="0" y1="11.664889994241808" x2="1473.011999130249" y2="11.664889994241808" fill="rgb(0, 0, 0)" stroke="rgb(194, 189, 181)" stroke-width="1px" opacity="0.25"></line></g></g></g><g><g><line x1="0" y1="895.0054077602936" x2="1473.011999130249" y2="895.0054077602936" fill="rgb(0, 0, 0)" stroke="rgb(168, 160, 149)" stroke-width="1.5px"></line></g></g><g><g><line x1="133.7777697684884" y1="0" x2="133.7777697684884" y2="377.6199998855591" fill="rgb(0, 0, 0)" stroke="rgb(168, 160, 149)" stroke-width="1.5px"></line></g></g><g><g><g><g><g><path style="fill: none;" stroke="rgb(255, 112, 67)" stroke-width="2px" d="M136.20712058150545,356.2395030420822L136.61201238367497,357.0351472584914L138.6364713945225,353.6334414419016L139.851146801031,350.6771245291223L140.2560386032005,348.34623337657194L141.470714009709,346.23029016516455L142.28049761404804,343.96868468911447L143.90006482272608,340.8920494531466L148.75876644876013,335.81331211560166L150.37833365743816,330.31440498525336L151.1881172617772,328.0686061714804L151.9979008661162,323.63843783950875L152.4027926682857,322.3557168088777L153.21257627262472,320.51874925959424L155.64192708564175,317.4004675493663L156.04681888781124,314.0684123895919L156.45171068998076,311.42546197029026L156.85660249215027,311.2179697684565L157.2614942943198,310.2662270350082L160.50062871167583,307.3269562658937L161.71530411818435,304.9707625693387L162.92997952469287,302.22561841766685L163.33487132686238,300.93163677204825L163.73976312903187,299.68062409270414L164.1446549312014,298.5655676517216L166.1691139420489,295.34824358308725L169.40824835940495,291.3145705392449L169.81314016157447,289.0825448515466L172.2424909745915,287.98003514538146L175.48162539194755,286.202323942028L176.6963007984561,283.43604136584634L177.10119260062558,281.75820517109867L179.93543521581213,279.84483482749414L181.15011062232065,278.24759264750105L181.95989422665966,274.58851165398636L185.1990286440157,272.1059937216936L186.41370405052422,270.8711041727317L186.81859585269373,269.74741128218375L190.4626220722193,268.4003734142319L191.27240567655832,268.3600308079893L191.6772974787278,268.201369128247L192.08218928089732,266.0496915503145L194.91643189608385,265.41485431750476L196.9408909069314,265.76839105745677L197.75067451127043,263.23156397875897L198.15556631343992,262.55002153947476L199.77513352211793,260.84903568243163L201.79959253296545,258.0485629057502L202.204484335135,257.04350828648353L203.4191597416435,254.32076837880558L205.84851055466052,254.08617206155427L206.25340235683004,251.20210634861408L207.06318596116904,249.07921993582303L208.27786136767756,248.3182505817034L209.0876449720166,248.58500616749444L209.49253677418608,248.50379668755465L210.3023203785251,247.89065015941964L211.11210398286414,245.51605962005797L211.51699578503363,245.0199219932365L214.35123840022018,247.25006855202318L217.5903728175762,248.42752520447686L217.99526461974574,249.63183883573092L218.40015642191523,246.87502526057781L220.01972363059326,246.21538285270213L224.0686416522883,244.03821182558383L224.47353345445782,241.18104561398764L225.28331705879683,241.2477102598408L226.90288426747486,242.29388848007335L228.11755967398338,241.3196150254459L228.52245147615287,241.63057261086183L228.9273432783224,238.82427256206557L230.14201868483093,234.66359967095804L235.00072031086498,234.34445835317322L237.43007112388202,231.50112829205884L238.64474653039053,231.80950490954658L239.45453013472954,232.5665936654878L239.85942193689905,230.52951258583252L240.66920554123806,233.1647313783835L242.28877274991612,234.39577731829408L243.90833995859413,232.57327010396722L244.71812356293316,229.7927311393949L246.74258257378068,227.22608806737705L252.41106780415376,227.65712237775313L254.4355268150013,226.12569249875173L254.8404186171708,229.6928670539581L256.45998582584883,229.45962570488913L256.86487762801835,228.82930268255072L258.48444483669635,229.96920837625595L258.88933663886587,228.8588591450312L259.69912024320485,227.74018025579872L260.9137956497134,226.1164074520751L262.9382546605609,225.63709511534495L263.34314646273043,224.92441698565335L263.74803826489995,223.89490161485003L265.77249727574747,222.2825360503607L266.177389077917,218.96428586051522L266.58228088008644,218.6344359068791L267.796956286595,219.79432510937337L271.4409825061206,221.56076278407514L272.2507661104596,223.37257475235018L274.6801169234766,223.08272780904693L277.1094677364936,220.08548189986158L277.51435953866314,218.81797877353904L279.9437103516802,217.888842632865L281.15838575818873,217.2253966521341L282.77795296686674,213.07224563822888L284.39752017554474,211.07365162345965L285.2073037798838,207.47817372856667L286.82687098856184,206.3173485175621L287.2317627907313,207.63402458916664L287.6366545929008,208.76433748816206L288.44643819723984,210.68247597841076L290.47089720808737,210.58784233794364L292.4953562189349,209.22585400396704L292.9002480211044,207.87685381963308L293.30513982327386,206.43506769413102L299.3785168558165,202.4111347569915L302.21275947100304,202.9932599626012L304.6421102840201,201.27177852059094L305.0470020861896,200.56872684465952L305.8567856905286,198.64435100013557L306.6665692948676,194.88306999386987L308.2861365035456,194.05323910906753L311.9301627230712,194.9940721654453L312.7399463274102,194.53524331927522L313.1448381295797,192.5897898452844L314.35951353608823,193.64858031650914L316.78886434910527,198.71112834513207L320.0279987664613,199.2920726196186L320.43289056863085,203.74343111989762L321.64756597513934,204.4066410056227L322.05245777730886,204.46811074006249L325.69648399683444,199.4055285144171L326.1013757990039,194.59197906200947L330.55518562286846,190.46227397418218L331.769861029377,185.47250740513576L332.17475283154647,182.75011703944705L332.9845364358855,182.76601919840155L333.79432004022453,182.69574127794408L339.46280527059764,187.46938402475428L341.48726428144516,192.01630195379826L342.29704788578414,195.8249756352067L343.5117232922927,202.4659081337603L344.32150689663166,203.79621545055062L346.34596590747924,198.01808471986573L346.7508577096487,196.18522868286902L349.1802085226658,192.86739531431633L349.98999212700477,187.52759773217804L350.3948839291743,183.1637079934687L351.20466753351326,178.62210111144051L351.60955933568283,181.89344650826953L352.8242347421913,182.12153216840392L353.63401834653035,186.55577432705593L355.6584773573779,185.0757391698555L356.0633691595474,187.41911764471095L359.7073953790729,181.8462435074618L360.51717898341195,181.02676787854267L362.13674619208996,182.6302090495386L362.5416379942595,182.18365865000538L362.946529796429,182.67068641361237L364.566097005107,183.22642983825097L366.18566421378506,178.3225258613462L366.5905560159545,175.36237232715527L367.80523142246307,176.74402827172594L368.61501502680204,179.17861259308307L369.01990682897156,180.40832973005098L369.4247986311411,180.14984891829445L369.82969043331065,179.22331508140962L370.2345822354801,181.2681834310778L370.6394740376496,183.10630963107477L371.4492576419886,183.33833453983868L371.85414944415805,185.15703243499217L373.87860845500563,185.2450202064389L374.2835002571752,183.71460639534726L375.90306746585316,179.68199463057547L377.1177428723617,180.9950966301255L377.9275264767007,180.17502033613974L380.3568772897177,176.85701929985547L381.1666608940568,178.78599505019852L383.1911199049043,179.18890387945714L384.8106871135823,175.57345251425662L385.2155789157518,176.53331759502942L386.0253625200909,176.50260458590418L390.8840641461249,174.25841508879688L393.71830676131145,170.47529421660198L394.1231985634809,166.65762691063026L394.93298216782,163.66923268130697L395.33787396998946,164.25861771353118L395.742765772159,161.76842215212727L396.1476575743285,163.13503995210942L396.9574411786675,160.7815875532753L398.172116585176,165.32550986572286L399.7916837938541,165.82330352647742L400.19657559602354,170.2012140083118L401.8161428047016,172.1900383851444L403.0308182112101,171.92486474641808L404.6503854198881,170.85405242247293L405.86506082639664,169.2114329615297L406.26995262856616,168.1220932957449L406.6748444307357,164.46051152406557L407.07973623290513,160.7908332432342L407.48462803507465,161.59847848048136L408.2944116394137,163.33020702297753L408.6993034415832,165.87789652638233L409.10419524375266,162.72687176999187L410.31887065026126,164.64961769596377L410.7237624524307,165.19452714604677L411.12865425460024,168.8729772890017L411.9384378589392,167.85674104685728L412.74822146327824,168.76151852723012L413.15311326544776,167.08536267713717L415.98735588063425,161.57705907877408L417.20203128714286,166.45954877889497L418.82159849582087,164.46729888995532L420.03627390232936,161.14700678710295L420.84605750666833,159.95350506607284L421.6558411110074,158.79952658634124L423.2754083196855,158.78570813545423L424.89497552836343,159.21508390724458L426.109650934872,162.72745598490874L426.5145427370415,162.95402801491363L426.91943453921095,159.00736727087724L427.32432634138047,160.9812894571469L429.7536771543975,158.9915277029144L432.1830279674146,161.38333756459417L432.9928115717536,165.4941272662383L433.3977033739231,164.7058544726348L435.0172705826011,170.1795577646144L436.2319459891096,170.67320608481552L436.63683779127916,169.87497223674092L437.85151319778765,170.01418707619857L438.2564049999571,172.63733898305455L438.6612968021266,171.58923056426457L439.47108040646566,168.9151222137373L440.2808640108047,165.1517174033678L442.7102148238217,161.00788913116074L443.9248902303303,161.51780635814134L444.32978203249974,162.3730440759398L445.5444574390083,162.69989172568378L445.9493492411778,161.78229209374922L446.35424104334726,160.1115254306817L447.1640246476863,161.27113421836222L447.56891644985575,158.51120581926423L449.9982672628729,161.30598991670263L451.61783447155085,163.04595155330193L452.0227262737203,162.1245345382372L452.8325098780594,160.68503815863102L453.6422934823984,157.55541329693096L454.45207708673746,154.14542835179822L454.8569688889069,154.63563053844484L455.26186069107644,157.36199649654753L455.6667524932459,157.18932264376065L456.0716442954154,157.69671291749336L457.28631970192396,154.57767594306628L458.09610330626293,155.54833532802203L458.905886910602,158.5426371995689L460.1205623171105,158.34160179243307L460.9303459214495,157.42639875769748L461.33523772361906,159.05802937598838L461.7401295257885,160.01101309846047L464.16948033880556,157.68749892297836L464.5743721409751,155.05145396452184L465.38415574531405,153.42851836399174L466.5988311518226,154.75260570666242L468.21839836050066,153.62748570050593L469.4330737670091,159.43792806620453L470.6477491735177,161.32835072419755L471.05264097568715,163.82094504884643L471.86242458002613,162.0299236191896L472.6722081843652,162.63010023308868L473.4819917887042,166.01106115229265L475.5064507995517,159.77306870241577L476.72112620606026,158.74307354675975L477.5309098103993,162.09500685216238L483.6042868429419,156.51645154622898L485.22385405161987,152.4941194023747L486.0336376559589,151.98127792382365L486.4385294581284,151.9785588606171L488.0580966668065,148.39652562825168L488.86788027114545,145.06469961396016L489.2727720733149,144.9990462469585L490.4874474798235,145.49759903604638L491.2972310841625,150.6384145114914L492.10701468850147,151.10770375996768L493.32169009501,148.04983748203898L494.131473699349,146.62317954125407L494.53636550151856,146.839163163526L495.34614910585753,149.45948594213473L496.9657163145356,149.12375063384954L498.58528352321355,149.89789101409093L501.41952613840016,145.6229851959249L501.8244179405697,145.327037551632L502.22930974273913,147.68993438740205L502.63420154490865,146.46704944514678L503.4439851492477,146.50503460721305L504.65866055575617,145.64277411301816L505.0635523579257,147.43235261190637L505.46844416009515,149.0533111313369L506.6831195666037,150.84035514300976L507.0880113687732,151.49979615944065L507.4929031709427,150.8246858385055L507.8977949731123,147.31774202330033L511.1369293904683,147.36848395680073L511.54182119263777,147.11358971134746L512.7564965991463,143.31776191947222L515.5907392143329,140.12888805402392L516.8054146208414,140.65551049894452L520.0445490381974,145.83140012551942L520.449440840367,153.37073639587672L521.259224444706,155.04175643532236L521.6641162468754,154.22733049410198L522.069008049045,155.72946184692208L523.2836834555534,155.1754916384522L523.688575257723,158.4748086176461L524.498358862062,158.8207675269317L525.308142466401,160.52980460111382L527.3326014772485,157.20404160212263L527.737493279418,155.61875167661142L529.3570604880961,156.71540845084883L529.7619522902655,159.1967285376134L530.1668440924351,157.4943164491994L530.5717358946046,157.58444128362234L531.786411301113,158.28068027876506L532.1913031032826,156.98003901239798L532.5961949054522,155.79065974824474L533.8108703119606,156.93366385536893L534.2157621141301,159.90729625185526L537.4548965314863,162.46896840572248L539.0744637401642,157.98077922921635L539.8842473445033,160.70128136036743L540.6940309488423,162.63294230641958L541.0989227510117,159.83957893211286L542.3135981575202,160.32087604205063L543.5282735640288,164.936740346131L543.9331653661983,165.85468177794965L544.3380571683679,165.59564112882947L544.7429489705373,163.8145282703912L545.9576243770458,165.21261430078596L549.1967587944018,165.7048405192569L550.0065423987409,167.56217181319457L550.8163260030799,166.4454234325525L551.6261096074189,165.92595682980985L552.0310014095884,169.22148564387405L553.245676816097,167.29686779464566L554.0554604204359,163.29053829989664L554.865244024775,164.26068952940477L556.8897030356226,162.78902251701584L559.723945650809,164.86538066144345L560.1288374529786,163.17491346406482L561.3435128594871,165.77214427636574L562.1532964638261,165.09674817645072L564.5826472768431,164.31064679498127L564.9875390790127,165.79246574922695L565.7973226833517,162.63201811193906L566.6071062876906,158.80480445908756L568.2266734963687,160.54613114971363L569.8462407050466,156.0197384520955L570.6560243093858,153.2274532943522L572.6804833202333,149.56276951569168L573.0853751224028,147.44287587236363L573.4902669245722,148.94812489391867L576.3245095397588,146.67944580716102L576.7294013419282,145.15550102437695L579.1587521549454,142.93406064828895L580.7783193636234,144.62430785340538L581.1832111657928,146.81582721796866L581.5881029679624,142.77532977640294L585.2321291874879,146.62861857923443L586.041912791827,142.24399131805242L587.2565881983354,143.36589147491154L589.6859390113525,138.6084065118989L590.090830813522,135.6900421095879L591.7103980222,136.97726835753173L592.9250734287086,137.00653023046948L593.3299652308781,136.58675146229567L593.7348570330475,136.50321760228456L594.9495324395562,135.48160747129256L599.4033422634207,135.15686909252895L600.6180176699291,130.17491899057435L601.8326930764377,132.379052473349L602.2375848786072,132.52160417762846L602.6424766807767,135.92831258318148L603.8571520872853,138.8875959622728L604.2620438894547,139.72768959402177L604.6669356916243,138.89615036065763L610.7403127241669,137.3056922747219L611.9549881306754,137.19528073473413L612.7647717350144,135.59474782111633L613.1696635371839,134.10096613706753L613.9794471415229,137.4615013373231L614.3843389436923,143.0549147480577L615.599014350201,145.363775600309L616.8136897567094,142.43310795467332L617.218581558879,145.1483141672238L618.0283651632179,147.82297033701334L618.838148767557,152.3626320621819L619.647932371896,155.10117143266058L620.457715976235,148.69651434511164L621.6723913827435,145.79419083047716L622.4821749870825,144.42677065790784L623.2919585914215,143.69901474885282L624.1017421957606,143.0515157211214L624.9115258000995,143.5829681184438L625.7213094044386,146.7731951924133L629.7702274261336,141.57367323472178L631.3897946348117,142.10972828336634L633.0093618434897,143.86982212222392L633.4142536456592,144.33260472898536L633.8191454478286,139.35102136307904L634.6289290521677,139.41611159219892L635.8436044586763,141.18943601165276L637.0582798651848,141.03451030518593L637.8680634695238,145.28109668849768L639.0827388760323,143.67429737229122L641.5120896890494,143.47477334708904L642.3218732933883,141.4712893346973L643.1316568977273,139.31681397547038L643.5365486998968,137.51964002603287L644.7512241064054,133.75456007700157L645.1561159085749,132.03240389291608L645.5610077107443,127.48820796908922L646.7756831172529,127.04434548642324L650.0148175346089,131.61664298614548L652.0392765454565,138.9092955787161L652.8490601497955,140.8219844478382L655.2784109628126,135.86326228311052L656.8979781714905,131.25235183092954L657.3028699736601,127.5801146986576L657.7077617758296,127.71225920709415L658.112653577999,125.24106171903321L660.5420043910161,130.69789143882062L661.7566797975246,133.10429753132556L664.5909224127112,137.15356314403206L665.4007060170502,143.42771297334372L666.6153814235587,144.88599014909522L667.0202732257283,145.8172481065695L668.2349486322368,148.7867658384758L668.6398404344063,147.75690251631934L670.6642994452538,149.08085095624332L671.0691912474233,148.48989179068388L671.4740830495928,148.15833238637643L672.6887584561014,141.07623044238764L673.9034338626099,141.6825830805986L674.3083256647793,140.29103381603355L674.7132174669488,138.3849081169187L675.1181092691183,137.98563037482256L675.5230010712879,136.44846743874712L677.9523518843049,138.64832553248982L680.3817026973219,135.12691762352785L682.811053510339,136.18331394755052L684.430620719017,136.39825881244917L685.240404323356,141.90528984993557L687.2648633342035,146.3250820509297L688.8844305428815,150.11942819049307L691.7186731580681,142.6298404145434L692.5284567624071,145.12395471795762L693.7431321689156,144.88747681956826L694.5529157732547,146.05305471013577L694.9578075754242,150.90041323735412L696.1724829819327,151.83741707691482L696.5773747841022,151.1665283287103L697.3871583884412,149.21120595494364L697.7920501906107,149.52449123272706L699.0067255971192,151.0683360445544L705.8898862340008,146.9944038083525L706.2947780361703,146.8578216812009L706.6996698383399,148.13165579087092L707.1045616405094,146.4372656660748L708.7241288491874,148.13376285585335L709.9388042556959,154.1957963487656L711.5583714643739,148.77517515651962L711.9632632665434,145.35350627551946L712.3681550687129,142.5777393902333L713.987722277391,138.95828800715577L714.3926140795604,136.78162283512023L714.7975058817299,137.8822046798971L715.607289486069,134.0104891140993L716.4170730904079,131.195366636996L717.2268566947471,128.33159979872758L718.036640299086,128.41298772218838L721.275774716442,128.76870174330884L723.3002337272895,127.53136400923003L723.7051255294591,127.32425857498343L727.3491517489847,124.93885201789718L727.7540435511542,122.62303787459042L732.2078533750187,126.1385951463237L734.2323123858663,128.1190092908064L735.4469877923748,132.7753771318778L735.8518795945444,135.63553834571997L737.0665550010528,134.41800059307826L737.8763386053919,139.7405905883411L738.2812304075613,143.3564974508678L741.5203648249175,138.0562807509445L741.9252566270869,133.5290623142623L742.3301484292564,129.6799783400758L742.735040231426,127.53392718706564L743.9497156379343,128.84067674412915L744.7594992422734,133.2554628178836L745.164391044443,136.16391991037713L745.5692828466125,134.21459500664446L748.8084172639684,135.07727612580567L750.832876274816,134.74801284585587L751.2377680769855,134.21664628397886L752.452443483494,133.84595739544253L755.2866860986807,132.45886948109117L756.0964697030196,136.70860060112764L760.1453877247147,136.5034277414614L762.1698467355621,137.00052504907788L762.5747385377316,139.23601656146099L763.3845221420708,135.9267364716304L763.7894139442403,134.83650955753208L766.2187647572572,134.2815682656853L766.6236565594268,135.42843309850136L769.0530073724439,138.1361616857265L769.4578991746133,138.94888728193902L773.1019253941389,140.68790622203534L774.7214926028169,140.80655194833523L775.5312762071559,136.38996189038144L777.150843415834,135.4956695670881L780.7948696353595,133.04493731312468L781.6046532396986,133.02460220672555L782.819328646207,131.38072548057272L783.629112250546,129.66302917815815L784.0340040527155,128.0242449327854L786.0584630635631,123.28757579842376L787.2731384700716,120.56585973992843L789.2975974809191,116.58979163095051L790.1073810852582,115.95960187225143L791.7269482939362,117.70606914973598L792.5367318982751,121.78259684436215L792.9416237004447,123.44316819509382L793.3465155026141,124.42359530060484L794.1562991069533,123.39645264331081L794.9660827112923,122.9225960605212L796.9905417221397,122.54742118668347L798.2052171286482,122.54733243848106L799.0150007329873,124.9404115173257L800.2296761394958,126.2281737100842L801.4443515460043,125.97599802580618L803.0639187546824,127.98393327927978L804.2785941611909,128.82482952512584L805.8981613698688,126.16909195005493L806.3030531720384,125.2982043569073L806.7079449742079,125.41792615470379L809.5421875893944,130.30177784622643L810.3519711937334,129.57677193386135L811.1617547980724,126.65747427052499L812.3764302045811,126.7942684887991L812.7813220067505,127.06700252851452L815.2106728197675,128.17661950120612L815.615564621937,127.09782985447352L817.2351318306152,125.91721447615068L818.8546990392931,128.05522917378752L820.0693744458016,127.1085155008963L820.4742662479711,125.75405892076327L820.8791580501407,124.09601734117348L821.2840498523102,123.74726771974333L822.0938334566491,123.39748437841838L823.3085088631576,125.00928564391548L826.1427514783443,128.6822769321747L826.5476432805137,125.91104498396754L828.5721022913611,127.59289041624046L829.3818858957002,130.91528070114126L829.7867776978699,130.67416795202055L830.1916695000393,131.66180191874435L833.8356957195648,128.7619230478243L835.4552629282429,125.70066126585687L835.8601547304123,122.75188081322413L836.2650465325819,124.65360448266136L836.6699383347514,124.2220527091156L837.4797219390904,122.98405005752299L839.5041809499379,122.37922469114227L839.9090727521075,124.5941922872808L840.7188563564464,125.17206590067445L841.123748158616,126.29568105671156L841.5286399607854,129.18619479916347L842.7433153672939,127.04044071884431L843.5530989716331,124.22080832893874L843.9579907738025,122.18162124886257L844.362882575972,119.96628078029006L848.0069087954976,122.78150801057568L849.221584202006,126.34060428900047L852.8656104215316,130.23819234326115L855.2949612345486,129.54707491012513L855.6998530367181,128.38030465479602L858.1292038497352,130.16414549433236L858.5340956519047,129.77998322425924L858.9389874540742,127.46464886223363L859.7487710584131,125.6463560263338L862.1781218714303,124.80952013486466L864.6074726844472,124.61622539654583L865.0123644866168,124.49994768956725L868.2514989039728,118.50189688686226L868.6563907061424,116.54449006074118L869.871066112651,113.84066405843627L871.0857415191595,113.88380105874172L872.7053087278374,115.33632011389474L873.5150923321764,117.89155667910255L875.1346595408545,117.69115040981474L877.5640103538715,116.10250987183521L879.1835775625495,115.96069554999292L879.5884693647191,116.60595428605347L880.8031447712276,116.74261017186546L881.6129283755665,117.76669910677896L882.827603782075,119.30835510378209L884.4471709907532,119.98835515712715L885.2569545950921,121.62938606827781L886.0667381994311,120.98341206300907L886.4716300016006,123.40201615577523L886.8765218037701,122.00204103580514L889.7107644189567,117.54070658071034L890.5205480232956,118.51058803849672L890.9254398254652,119.99231083998077L893.3547906384823,118.07906725677873L893.7596824406518,118.2132830751266L894.1645742428212,119.12218138236307L894.9743578471603,120.94631265831649L895.7841414514992,122.09407443603891L900.6428430775333,119.73654380407739L904.2868692970588,115.41501740682953L905.906436505737,114.39886955311226L907.9308955165844,114.20259804582804L908.335787318754,113.79227500020889L910.3602463296015,114.18165634600446L910.7651381317711,115.16591071539182L911.1700299339406,115.89789949745295L912.7895971426185,113.99799561104236L913.194488944788,116.18317198041518L915.6238397578052,116.61404003440113L917.2434069664831,116.37553355977627L917.6482987686526,115.64791112047865L918.053190570822,113.65677343453123L918.8629741751612,112.4715078657651L919.2678659773308,114.60540864759182L921.2923249881782,113.80404110217405L922.5070003946867,114.17328168463528L923.3167839990258,113.92129620450368L924.5314594055343,114.88242916386427L925.7461348120428,115.89728725058144L926.9608102185512,114.8787385361205L927.7705938228903,114.4002602394436L930.1999446359073,115.09997705337625L930.6048364380767,117.00613541178564L931.4146200424158,118.51968252641667L932.2244036467549,118.22537778355996L935.8684298662804,117.13109960378956L936.2733216684499,115.97091646758916L936.6782134706195,115.02869984425915L937.083105272789,113.67769365383111L942.751590503162,111.86358819634039L944.37115771184,109.82580878272444L945.9907249205181,105.90604592042169L946.3956167226876,102.04950722976513L947.6102921291961,99.2227914354204L948.0151839313656,99.9046404824236L949.229859337874,102.74671663030978L950.0396429422132,105.36929661631312L950.8494265465522,105.39838941551943L952.8738855573996,106.35108079955913L954.0885609639081,105.22750757995092L954.8983445682472,105.76975674883201L955.3032363704168,105.84274153761504L956.1130199747557,106.0680737408205L957.3276953812642,101.67791765699654L958.5423707877727,102.07135813808493L959.3521543921119,100.68871400227698L960.5668297986203,101.91092965496875L961.7815052051288,101.21479407013338L962.1863970072983,100.69382611239271L963.4010724138069,102.69073747704547L964.6157478203154,102.32631709140598L967.8548822376715,103.34587059974739L968.259774039841,102.86988913147361L969.06955764418,101.78917690487816L971.0940166550274,101.23510051533763L973.118475665875,102.3232742568371L973.5233674680445,102.30215291099296L973.928259270214,102.3536243055784L974.738042874553,100.2777672440727L975.1429346767225,100.32635927573429L975.9527182810615,100.61506985657327L976.7625018854006,101.34360086643255L977.9771772919091,101.5467676358252L978.3820690940786,100.51476404697664L980.0016363027565,98.33215227007202L982.0260953136042,100.16426713209269L982.8358789179432,98.04862382663339L985.2652297309601,94.99872476652813L985.6701215331298,96.13175405017347L986.0750133352992,96.70485516406593L986.4799051374688,96.92626418957126L986.8847969396382,98.05487914363462L988.0994723461467,97.83803077781654L988.9092559504857,100.73229681784177L990.1239313569944,99.04087234338051L990.5288231591638,99.28636698789389L991.7434985656723,100.50759777726218L992.5532821700112,99.96900538615672L993.3630657743503,96.8025649259321L993.7679575765197,98.59517427950738L994.1728493786892,97.88604480539928L995.7924165873674,98.43587790855854L997.4119837960453,98.6737735631383L997.8168755982148,98.3940076585236L998.2217674003844,99.69981001193932L999.8413346090624,99.05451843470897L1000.246226411232,100.11765833914086L1001.0560100155709,100.536423039851L1001.4609018177405,99.98584924772896L1002.2706854220794,99.28138060425071L1002.6755772242489,99.1539071625006L1003.0804690264184,100.27928446750987L1003.8902526307576,99.79753838736102L1004.295144432927,100.13753716391436L1005.1049280372661,100.67699977568365L1006.3196034437744,100.34130382818286L1007.1293870481135,103.20060568886397L1007.5342788502829,102.11294677642071L1009.9636296633,102.27021710996362L1010.3685214654696,101.09300775417299L1010.7734132676391,101.18932708601226L1012.3929804763172,98.48154682747361L1013.2027640806562,96.49027590382781L1014.0125476849952,94.04452089045505L1015.6321148936731,93.33596720399193L1018.4663575088597,92.88935330342105L1019.6810329153682,90.50811631629723L1020.4908165197072,90.17948329357819L1021.3006001240464,91.01742602824558L1021.7054919262158,89.70772683676516L1023.3250591348938,90.53222164109218L1024.1348427392327,90.7162463704045L1024.5397345414021,92.4077917204392L1024.9446263435718,93.58957809781542L1026.1593017500804,94.54237984035129L1026.56419355225,94.57097130240126L1027.7788689587583,95.25502129387606L1028.1837607609277,96.09111365799025L1029.3984361674363,95.01894955890266L1030.613111573945,98.61861556671931L1032.232678782623,99.9690609591789L1034.66202959564,99.85089201625149L1035.0669213978094,102.23001635825928L1036.281596804318,102.47151521193385L1036.6864886064875,102.19634822507305L1037.4962722108264,102.59220893727367L1038.3060558151656,102.31557889670052L1038.710947617335,102.22006321818185L1039.5207312216742,99.22006332410598L1039.9256230238436,98.94911434390661L1040.7354066281825,98.06880382768875L1041.140298430352,97.21610562125844L1041.5451902325215,96.32717317092974L1041.9500820346911,95.3869553307093L1042.75986563903,94.43904252437966L1043.5696492433692,96.19886175667381L1043.9745410455387,98.15310307572344L1045.5941082542167,96.43816592185786L1045.9990000563862,94.81626088337167L1046.808783660725,93.64472814705559L1048.0234590672337,92.87609981044L1048.8332426715726,90.96593175924461L1050.0479180780812,88.35281812646213L1054.9066197041152,88.43275191882522L1056.5261869127933,88.01292886679214L1057.7408623193019,91.4681005686661L1059.7653213301494,89.86064417397769L1060.5751049344883,87.84627536708935L1061.789780340997,88.65055450357508L1064.219131154014,87.92701843318625L1064.6240229561834,88.03120263702658L1065.4338065605223,89.4009070113433L1066.648481967031,88.0655047606077L1067.8631573735395,86.63723277423837L1068.268049175709,87.07350334541883L1068.6729409778784,87.13600346933943L1072.316967197404,87.67546502009985L1072.7218589995734,88.2617059522711L1073.1267508017431,87.82810524552983L1073.5316426039126,86.00904815769907L1074.3414262082515,84.33369707845262L1075.1512098125907,81.12297288561773L1076.365885219099,82.06900720224603L1078.3903442299465,80.685013365817L1079.2001278342857,79.84646364990368L1079.6050196364552,81.77365293695172L1080.0099114386246,81.60102019088652L1080.4148032407943,82.30890080338885L1083.6539376581502,83.88160580082454L1087.2979638776758,84.26835964519606L1089.3224228885233,85.77742914590551L1092.5615573058794,85.08377875384218L1092.966449108049,84.46727327586115L1094.1811245145575,84.58654474602042L1095.8006917232353,83.27666054403824L1097.015367129744,81.3244006896895L1098.634934338422,81.18133771286745L1099.8496097449304,81.00313468267375L1101.064285151439,80.30360106877654L1101.4691769536087,80.66329914593243L1101.8740687557781,80.20277574878003L1102.683852360117,77.49484887874726L1105.9229867774732,77.00738871511284L1106.732770381812,77.49270619689497L1107.542553986151,77.96962002532327L1108.3523375904902,78.31311299835939L1110.3767966013377,79.69107401270688L1112.4012556121852,82.9118855410433L1115.6403900295413,82.98286679583481L1116.0452818317108,84.33343164708904L1116.4501736338802,82.69891971065915L1118.0697408425583,84.20720014292019L1119.284416249067,83.77419616436389L1120.4990916555753,83.74651034343054L1123.7382260729314,82.31117471876661L1124.5480096772703,79.58103634127163L1126.1675768859484,79.38983831608962L1126.5724686881179,77.71047633503707L1126.9773604902873,75.67420517383356L1127.3822522924568,75.09902927221367L1128.192035896796,76.27734853092534L1129.001819501135,76.49420256444499L1130.2164949076434,75.47546584905936L1131.4311703141518,76.27720144977437L1131.8360621163215,76.11998994754937L1132.6458457206606,74.89309065242965L1133.4556293249996,75.03017871209167L1136.289871940186,73.05452187477042L1137.909439148864,74.0953106735918L1138.719222753203,73.1969307947769L1139.5290063575421,73.11076334116902L1140.338789961881,74.86854914781082L1140.7436817640505,76.70044257018296L1141.5534653683897,74.80062657101695L1142.7681407748983,74.85955961530505L1143.5779243792372,73.85729972248443L1144.7925997857456,74.98085719876913L1145.6023833900847,73.40729700823377L1146.8170587965933,74.44076996882133L1147.2219505987628,74.04056379144882L1147.6268424009322,75.4075351595763L1151.6757604226273,71.9788565790327L1152.0806522247967,72.2068919326275L1152.8904358291359,73.49126856513645L1153.2953276313053,73.94541571640315L1153.7002194334748,74.48555261026327L1154.1051112356442,73.2768229904922L1155.3197866421528,76.38714976069848L1155.7246784443223,75.93407560393793L1156.5344620486615,75.97305369515921L1157.7491374551698,75.73456853534778L1158.5589210595087,77.45740580228457L1159.368704663848,78.02212137904642L1160.178488268187,78.55076581468987L1163.8225144877126,76.41542959721723L1164.227406289882,76.0888091256329L1165.4420816963905,75.30215057642012L1166.2518653007296,74.38656158402024L1167.0616489050685,74.0235031695153L1167.8714325094074,74.84265602583235L1168.6812161137466,76.8241766367161L1169.086107915916,76.54568507799763L1170.3007833224246,78.22836210947241L1172.7301341354416,78.03207538086791L1173.135025937611,77.80572153068935L1174.7545931462892,76.64248879035823L1175.9692685527975,74.31819877642135L1177.1839439593064,72.46856798727096L1177.9937275636453,73.1302465845928L1178.3986193658147,71.32754687265377L1180.0181865744928,70.98557107186384L1181.6377537831709,69.98192265549969L1182.8524291896792,71.13753145146993L1183.2573209918487,71.3049563928564L1183.6622127940184,68.76391580840773L1184.0671045961878,68.37604586094655L1185.2817800026962,67.97655498431072L1186.9013472113743,68.19050317837717L1187.7111308157134,67.61220276145143L1189.3306980243913,69.86995248132871L1189.7355898265607,71.62815117941781L1190.5453734308999,72.92234752736947L1190.9502652330696,73.1217480357054L1192.9747242439169,74.00961444587367L1194.1893996504255,74.88772614939278L1194.594291452595,73.27415650667001L1195.404075056934,70.36053791997114L1196.213858661273,69.85406252992935L1197.023642265612,70.42557115334661L1197.4285340677816,72.59830101174485L1198.64320947429,72.91056200223802L1199.0481012764594,72.76004833879824L1199.8578848807986,72.9324846608419L1201.0725602873072,72.34013831064375L1201.4774520894766,72.4186365430061L1202.2872356938155,72.59871736480927L1204.7165865068328,71.46654432945131L1205.9312619133411,70.44597048744437L1207.1459373198495,68.87170384205086L1207.5508291220192,68.15441651081971L1209.1703963306973,69.64129987113778L1211.5997471437142,71.70812323933495L1216.8633405719177,73.54091931523051L1218.482907780596,72.1839823316819L1219.2926913849349,72.92390298154193L1221.3171503957824,70.23715497883089L1222.531825802291,69.65782181360464L1223.34160940663,71.53601369249978L1224.961176615308,72.40442648195052L1226.9856356261555,73.64189148217487L1228.6052028348336,74.53778102943294L1230.2247700435114,72.65302870965252L1231.43944545002,70.49845751460394L1235.0834716695456,69.02603882436053L1237.5128224825626,66.75382953124549L1241.5617405042576,65.60125917847868L1241.966632306427,65.01059666175962L1242.3715241085968,63.90223399955935L1243.5861995151051,63.11112430516255L1243.9910913172748,61.61740207714732L1246.0155503281223,62.74529138768313L1246.8253339324613,60.98352235695424L1248.4449011411393,62.69284512892463L1248.8497929433088,62.30877066602081L1249.2546847454782,63.735123793531336L1249.659576547648,66.23127621518516L1250.0644683498174,66.09963874496492L1250.4693601519868,66.6642043316633L1250.8742519541563,66.6939262823286L1254.1133863715124,66.20645838606066L1255.3280617780208,64.69132657671813L1257.757412591038,65.04021999480307L1259.3769797997159,64.28396316481985L1263.4258978214111,64.4616323169723L1263.8307896235806,64.31719289726226L1264.23568142575,64.91634870448217L1267.0699240409367,65.62324983494712L1269.094383051784,64.75851927804L1270.3090584582926,66.42957964824193L1271.1188420626318,65.54242899334659L1271.5237338648012,65.55012928481206L1271.9286256669707,65.55968362908301L1272.3335174691401,63.495411830237586L1273.9530846778182,64.02562813225542L1277.1922190951743,62.590081904303524L1277.5971108973438,62.238628366806175L1278.8117863038522,60.39334271970995L1279.6215699081913,60.62131544788484L1280.0264617103608,60.17108335917255L1280.8362453147,62.735443903077375L1282.8607043255472,60.62118030043863L1285.6949469407339,58.92617752325916L1286.5047305450728,58.126008532597254L1287.7194059515814,58.12355880443434L1288.5291895559205,57.83115349181955L1290.5536485667678,58.37173650762112L1291.7683239732764,56.80010164194731L1292.982999379785,57.05696630388752L1296.6270255993104,53.92071619036566L1297.0319174014799,53.27912747789487L1298.2465928079887,55.018845642312435L1299.461268214497,56.72042538999391L1300.271051818836,56.02894568209863L1300.6759436210057,56.813030933142876L1303.1052944340227,57.21067299884327L1304.3199698405313,59.15139624640209L1304.7248616427007,60.08371362873701L1305.5346452470396,60.08605438565558L1306.7493206535482,57.873430843679394L1307.5591042578872,58.10186508800141L1308.3688878622263,57.86070951616251L1309.5835632687347,55.44924671995828L1309.9884550709041,54.53068620393099L1310.3933468730736,54.90801615911641L1313.2275894882603,53.963692184853535L1315.252048499108,54.33410860233678L1316.061832103447,52.83018141210297L1316.4667239056164,52.69614146232578L1316.8716157077858,53.45455637544498L1318.491182916464,53.42698940129186L1318.8960747186334,54.389400458670146L1320.920533729481,55.94032261039868L1321.3254255316504,56.89052231980652L1322.9449927403284,55.31457932405432L1324.159668146837,55.419389879057825L1324.5645599490065,55.28668453391747L1325.3743435533456,53.62403537126599L1328.208586168532,54.119182546654315L1328.6134779707015,54.28828331169054L1330.637936981549,53.62482716940587L1335.4966386075832,51.62528456604646L1337.5210976184305,50.643775654017915L1338.3308812227697,48.31337928912377L1338.7357730249391,48.110955474102006L1339.9504484314477,48.78462453072016L1340.3553402336172,48.77817670842798L1343.9993664531428,48.823318758583454L1346.4287172661598,47.338742970896604L1348.0482844748378,47.83825989718992L1348.4531762770073,46.822382095707795" fill="none"></path></g></g></g></g><g opacity="0.2"><g><g><g><path style="fill: none;" stroke="rgb(255, 112, 67)" stroke-width="2px" d="M136.20712058150545,356.2395030420822L136.61201238367497,357.512533788337L138.6364713945225,350.3678038579755L139.851146801031,347.2004958396939L140.2560386032005,345.30302188780206L141.470714009709,343.303178964232L142.28049761404804,340.7345526726751L143.90006482272608,336.40628574340724L148.75876644876013,328.3231610366631L150.37833365743816,322.14916876131866L151.1881172617772,324.72027718077084L151.9979008661162,317.0172941219778L152.4027926682857,320.4358235696532L153.21257627262472,317.7668967463309L155.64192708564175,312.72671040711896L156.04681888781124,309.07267967338606L156.45171068998076,307.4621547493797L156.85660249215027,310.9067841479532L157.2614942943198,308.8387579232618L160.50062871167583,302.9183187732128L161.71530411818435,301.4366012437684L162.92997952469287,298.10799252029665L163.33487132686238,298.99068985103065L163.73976312903187,297.80411989312563L164.1446549312014,296.89299091559195L166.1691139420489,290.522271200553L169.40824835940495,285.2640712945454L169.81314016157447,285.73450974668424L172.2424909745915,286.326271601701L175.48162539194755,283.53575811951185L176.6963007984561,279.28661841890334L177.10119260062558,279.24145121281026L179.93543521581213,276.97477954050527L181.15011062232065,275.85172949191855L181.95989422665966,269.09989032096985L185.1990286440157,268.3822168872688L186.41370405052422,269.0187698683946L186.81859585269373,268.06187195679325L190.4626220722193,266.3798166198068L191.27240567655832,268.29951689876026L191.6772974787278,267.96337660895153L192.08218928089732,262.82217518600436L194.91643189608385,264.46259846874847L196.9408909069314,266.2986961672316L197.75067451127043,259.42632336137154L198.15556631343992,261.5277078806546L199.77513352211793,258.29755689702614L201.79959253296545,253.84785374088514L202.204484335135,255.53592635761754L203.4191597416435,250.23665851734367L205.84851055466052,253.73427758568008L206.25340235683004,246.87600777922466L207.06318596116904,245.8948903166458L208.27786136767756,247.17679655052595L209.0876449720166,248.98513954618073L209.49253677418608,248.38198246764497L210.3023203785251,246.97093036721722L211.11210398286414,241.9541738110162L211.51699578503363,244.27571555300466L214.35123840022018,250.59528839020294L217.5903728175762,250.1937101831569L217.99526461974574,251.438309282612L218.40015642191523,242.73980489784822L220.01972363059326,245.22591924088863L224.0686416522883,240.77245528490639L224.47353345445782,236.89529629659353L225.28331705879683,241.3477072286202L226.90288426747486,243.86315581042223L228.11755967398338,239.85820484350452L228.52245147615287,242.097008988986L228.9273432783224,234.61482248887128L230.14201868483093,228.42259033429693L235.00072031086498,233.865746376496L237.43007112388202,227.2361332003871L238.64474653039053,232.27206983577838L239.45453013472954,233.70222679939954L239.85942193689905,227.4738909663494L240.66920554123806,237.11755956720992L242.28877274991612,236.24234622816L243.90833995859413,229.83950928247697L244.71812356293316,225.62192269253637L246.74258257378068,223.3761234593502L252.41106780415376,228.3036738433173L254.4355268150013,223.8285476802496L254.8404186171708,235.0436288867678L256.45998582584883,229.10976368128559L256.86487762801835,227.88381814904298L258.48444483669635,231.67906691681392L258.88933663886587,227.19333529819394L259.69912024320485,226.06216192195018L260.9137956497134,223.6807482464895L262.9382546605609,224.91812661024943L263.34314646273043,223.85539979111596L263.74803826489995,222.3506285586449L265.77249727574747,219.86398770362666L266.177389077917,213.986910575747L266.58228088008644,218.13966097642484L267.796956286595,221.53415891311485L271.4409825061206,224.21041929612767L272.2507661104596,226.0902927047626L274.6801169234766,222.64795739409215L277.1094677364936,215.58961303608353L277.51435953866314,216.91672408405515L279.9437103516802,216.4951384218538L281.15838575818873,216.2302276810379L282.77795296686674,206.84251911737113L284.39752017554474,208.07576060130575L285.2073037798838,202.08495688622742L286.82687098856184,204.57611070105506L287.2317627907313,209.60903869657335L287.6366545929008,210.45980683665533L288.44643819723984,213.55968371378376L290.47089720808737,210.44589187724281L292.4953562189349,207.18287150300202L292.9002480211044,205.85335354313204L293.30513982327386,204.2723885058777L299.3785168558165,196.3752353512822L302.21275947100304,203.86644777101586L304.6421102840201,198.68955635757547L305.0470020861896,199.51414933076256L305.8567856905286,195.75778723334986L306.6665692948676,189.24114848447135L308.2861365035456,192.8084927818641L311.9301627230712,196.405321750012L312.7399463274102,193.84700005002003L313.1448381295797,189.671609634298L314.35951353608823,195.23676602334646L316.78886434910527,206.30495038806635L320.0279987664613,200.1634890313485L320.43289056863085,210.42046887031614L321.64756597513934,205.4014558342104L322.05245777730886,204.56031534172197L325.69648399683444,191.8116551759489L326.1013757990039,187.3716548833982L330.55518562286846,184.26771634244128L331.769861029377,177.98785755156632L332.17475283154647,178.66653149091385L332.9845364358855,182.78987243683332L333.79432004022453,182.59032439725792L339.46280527059764,194.62984814496954L341.48726428144516,198.8366788473642L342.29704788578414,201.5379861573196L343.5117232922927,212.4273068815908L344.32150689663166,205.79167642573597L346.34596590747924,189.3508886238383L346.7508577096487,193.43594462737408L349.1802085226658,187.8906452614873L349.98999212700477,179.51790135897045L350.3948839291743,176.61787338540475L351.20466753351326,171.80969078839811L351.60955933568283,186.8004646035129L352.8242347421913,182.46366065860548L353.63401834653035,193.20713756503397L355.6584773573779,182.8556864340548L356.0633691595474,190.9341853569942L359.7073953790729,173.4869323015878L360.51717898341195,179.797554435164L362.13674619208996,185.03537080603218L362.5416379942595,181.51383305070559L362.946529796429,183.40122805902294L364.566097005107,184.0600449752088L366.18566421378506,170.96666989598904L366.5905560159545,170.92214202586894L367.80523142246307,178.81651218858192L368.61501502680204,182.83048907511855L369.01990682897156,182.25290543550318L369.4247986311411,179.76212770065965L369.82969043331065,177.83351432608242L370.2345822354801,184.33548595558017L370.6394740376496,185.86349893107L371.4492576419886,183.68637190298463L371.85414944415805,187.8850792777223L373.87860845500563,185.37700186360908L374.2835002571752,181.41898567870987L375.90306746585316,173.6330769834178L377.1177428723617,182.96474962945032L377.9275264767007,178.94490589516133L380.3568772897177,171.88001774542903L381.1666608940568,181.67945867571314L383.1911199049043,179.79326712334495L384.8106871135823,170.1502754664558L385.2155789157518,177.97311521618875L386.0253625200909,176.45653507221618L390.8840641461249,170.89213084313596L393.71830676131145,164.80061290830957L394.1231985634809,160.93112595167278L394.93298216782,159.18664133732202L395.33787396998946,165.1426952618674L395.742765772159,158.03312881002137L396.1476575743285,165.1849666520828L396.9574411786675,157.25140895502423L398.172116585176,172.14139333439417L399.7916837938541,166.56999401760928L400.19657559602354,176.76807973106327L401.8161428047016,175.17327495039328L403.0308182112101,171.52710428832845L404.6503854198881,169.2478339365554L405.86506082639664,166.74750377011515L406.26995262856616,166.4880837970674L406.6748444307357,158.96813886654678L407.07973623290513,155.28631582198716L407.48462803507465,162.80994633635217L408.2944116394137,165.92779983672162L408.6993034415832,169.69943078148972L409.10419524375266,158.00033463540584L410.31887065026126,167.53373658492168L410.7237624524307,166.01189132117145L411.12865425460024,174.39065250343424L411.9384378589392,166.33238668364066L412.74822146327824,170.11868474778953L413.15311326544776,164.571128901998L415.98735588063425,153.31460368122953L417.20203128714286,173.78328332907634L418.82159849582087,161.47892405654568L420.03627390232936,156.16656863282438L420.84605750666833,158.16325248452776L421.6558411110074,157.06855886674384L423.2754083196855,158.76498045912382L424.89497552836343,159.8591475649299L426.109650934872,167.9960141014051L426.5145427370415,163.29388605992105L426.91943453921095,153.08737615482272L427.32432634138047,163.94217273655147L429.7536771543975,156.00688507156593L432.1830279674146,164.9710523571139L432.9928115717536,171.66031181870466L433.3977033739231,163.52344528222943L435.0172705826011,178.3901127025838L436.2319459891096,171.4136785651171L436.63683779127916,168.6776214646288L437.85151319778765,170.22300933538511L438.2564049999571,176.5720668433386L438.6612968021266,170.0170679360796L439.47108040646566,164.90395968794644L440.2808640108047,159.50661018781346L442.7102148238217,154.79214672285016L443.9248902303303,162.28268219861235L444.32978203249974,163.6559006526374L445.5444574390083,163.19016320030005L445.9493492411778,160.40589264584725L446.35424104334726,157.60537543608038L447.1640246476863,163.01054739988314L447.56891644985575,154.37131322061703L449.9982672628729,165.49816606286004L451.61783447155085,165.65589400820102L452.0227262737203,160.74240901564008L452.8325098780594,158.52579358922188L453.6422934823984,152.86097600438092L454.45207708673746,149.0304509340992L454.8569688889069,155.37093381841476L455.26186069107644,161.45154543370154L455.6667524932459,156.9303118645804L456.0716442954154,158.45779832809254L457.28631970192396,149.89912048142546L458.09610330626293,157.00432440545575L458.905886910602,163.03409000688916L460.1205623171105,158.0400486817292L460.9303459214495,156.05359420559395L461.33523772361906,161.50547530342473L461.7401295257885,161.44048868216834L464.16948033880556,154.20222765975555L464.5743721409751,151.09738652683671L465.38415574531405,150.99411496319664L466.5988311518226,156.73873672066838L468.21839836050066,151.9398056912712L469.4330737670091,168.15359161475243L470.6477491735177,164.16398471118694L471.05264097568715,167.5598365358198L471.86242458002613,159.34339147470425L472.6722081843652,163.53036515393728L473.4819917887042,171.08250253109878L475.5064507995517,150.4160800276003L476.72112620606026,157.19808081327565L477.5309098103993,167.12290681026624L483.6042868429419,148.1486185873287L485.22385405161987,146.4606211865931L486.0336376559589,151.21201570599723L486.4385294581284,151.9744802658073L488.0580966668065,143.02347577970363L488.86788027114545,140.0669605925227L489.2727720733149,144.90056619645603L490.4874474798235,146.24542821967822L491.2972310841625,158.34963772465886L492.10701468850147,151.8116376326822L493.32169009501,143.46303806514604L494.131473699349,144.48319263007681L494.53636550151856,147.163138596934L495.34614910585753,153.3899701100477L496.9657163145356,148.62014767142153L498.58528352321355,151.05910158445303L501.41952613840016,139.21062646867568L501.8244179405697,144.88311608519274L502.22930974273913,151.23427964105733L502.63420154490865,144.63272203176393L503.4439851492477,146.56201235031253L504.65866055575617,144.34938337172602L505.0635523579257,150.1167203602388L505.46844416009515,151.4847489104829L506.6831195666037,153.52092116051918L507.0880113687732,152.4889576840869L507.4929031709427,149.81202035710268L507.8977949731123,142.0573263004928L511.1369293904683,147.44459685705132L511.54182119263777,146.7312483431677L512.7564965991463,137.6240202316595L515.5907392143329,135.34557725585154L516.8054146208414,141.44544416632544L520.0445490381974,153.5952345653818L520.449440840367,164.67974080141258L521.259224444706,157.54828649449058L521.6641162468754,153.00569158227125L522.069008049045,157.9826588761521L523.2836834555534,154.34453632574747L523.688575257723,163.42378408643697L524.498358862062,159.33970589085988L525.308142466401,163.09336021238693L527.3326014772485,152.21539710363618L527.737493279418,153.24081678834466L529.3570604880961,158.36039361220477L529.7619522902655,162.9187086677604L530.1668440924351,154.94069831657853L530.5717358946046,157.7196285352568L531.786411301113,159.32503877147906L532.1913031032826,155.02907711284732L532.5961949054522,154.006590852015L533.8108703119606,158.64817001605533L534.2157621141301,164.36774484658454L537.4548965314863,166.31147663652345L539.0744637401642,151.24849546445714L539.8842473445033,164.7820345570939L540.6940309488423,165.53043372549774L541.0989227510117,155.6495338706527L542.3135981575202,161.04282170695717L543.5282735640288,171.86053680225146L543.9331653661983,167.23159392567763L544.3380571683679,165.2070801551492L544.7429489705373,161.14285898273377L545.9576243770458,167.3097433463783L549.1967587944018,166.44317984696318L550.0065423987409,170.34816875410112L550.8163260030799,164.7703008615893L551.6261096074189,165.14675692569597L552.0310014095884,174.1647788649703L553.245676816097,164.40994102080305L554.0554604204359,157.2810440577731L554.865244024775,165.71591637366697L556.8897030356226,160.58152199843246L559.723945650809,167.97991787808468L560.1288374529786,160.6392126679969L561.3435128594871,169.66799049481708L562.1532964638261,164.0836540265784L564.5826472768431,163.13149472277692L564.9875390790127,168.0151941805954L565.7973226833517,157.89134665600713L566.6071062876906,153.06398397981027L568.2266734963687,163.1581211856528L569.8462407050466,149.2301494056683L570.6560243093858,149.03902555773723L572.6804833202333,144.0657438477008L573.0853751224028,144.2630354073715L573.4902669245722,151.20599842625128L576.3245095397588,143.27642717702443L576.7294013419282,142.86958385020066L579.1587521549454,139.60190008415677L580.7783193636234,147.15967866108008L581.1832111657928,150.10310626481353L581.5881029679624,136.7145836140544L585.2321291874879,152.4085517834815L586.041912791827,135.66705042627947L587.2565881983354,145.04874171020026L589.6859390113525,131.47217906737987L590.090830813522,131.31249550612148L591.7103980222,138.9081077294475L592.9250734287086,137.0504230398758L593.3299652308781,135.95708331003476L593.7348570330475,136.37791681226787L594.9495324395562,133.94919227480457L599.4033422634207,134.66976152438335L600.6180176699291,122.7019938376423L601.8326930764377,135.685252697511L602.2375848786072,132.7354317340475L602.6424766807767,141.0383751915112L603.8571520872853,143.32652103090953L604.2620438894547,140.98783004164514L604.6669356916243,137.6488415106116L610.7403127241669,134.9200051458185L611.9549881306754,137.02966342475224L612.7647717350144,133.1939484506897L613.1696635371839,131.86029361099432L613.9794471415229,142.50230413770657L614.3843389436923,151.44503486415957L615.599014350201,148.82706687868577L616.8136897567094,138.0371064862197L617.218581558879,149.22112348604938L618.0283651632179,151.8349545916978L618.838148767557,159.17212464993486L619.647932371896,159.20898048837887L620.457715976235,139.0895287137882L621.6723913827435,141.4407055585255L622.4821749870825,142.37564039905413L623.2919585914215,142.6073808852704L624.1017421957606,142.0802671795243L624.9115258000995,144.38014671442724L625.7213094044386,151.55853580336773L629.7702274261336,133.7743902981844L631.3897946348117,142.91381085633344L633.0093618434897,146.50996288051L633.4142536456592,145.02677863912754L633.8191454478286,131.8786463142195L634.6289290521677,139.51374693587843L635.8436044586763,143.8494226408335L637.0582798651848,140.80212174548544L637.8680634695238,151.65097626346505L639.0827388760323,141.26409839798154L641.5120896890494,143.17548730928593L642.3218732933883,138.46606331610988L643.1316568977273,136.08510093663008L643.5365486998968,134.82387910187677L644.7512241064054,128.1069401534546L645.1561159085749,129.4491696167879L645.5610077107443,120.67191408334887L646.7756831172529,126.37855176242427L650.0148175346089,138.47508923572883L652.0392765454565,149.8482744675721L652.8490601497955,143.6910177515211L655.2784109628126,128.4251790360191L656.8979781714905,124.33598615265792L657.3028699736601,122.07175900024977L657.7077617758296,127.91047596974899L658.112653577999,121.53426548694183L660.5420043910161,138.8831360185018L661.7566797975246,136.71390667008296L664.5909224127112,143.22746156309165L665.4007060170502,152.83893771731132L666.6153814235587,147.0734059127224L667.0202732257283,147.21413504278104L668.2349486322368,153.24104243633516L668.6398404344063,146.21210753308495L670.6642994452538,151.06677361612915L671.0691912474233,147.6034530423447L671.4740830495928,147.66099327991543L672.6887584561014,130.45307752640463L673.9034338626099,142.59211203791506L674.3083256647793,138.203709919186L674.7132174669488,135.52571956824625L675.1181092691183,137.3867137616782L675.5230010712879,134.142723034634L677.9523518843049,141.94811267310362L680.3817026973219,129.84480576008485L682.811053510339,137.7679084335848L684.430620719017,136.72067610979718L685.240404323356,150.16583640616514L687.2648633342035,152.9547703524211L688.8844305428815,155.81094739983808L691.7186731580681,131.39545875061887L692.5284567624071,148.86512617307895L693.7431321689156,144.53275997198418L694.5529157732547,147.80142154598678L694.9578075754242,158.17145102818162L696.1724829819327,153.2429228362558L696.5773747841022,150.16019520640333L697.3871583884412,146.2782223942937L697.7920501906107,149.99441914940215L699.0067255971192,153.38410326229538L705.8898862340008,140.88350545404953L706.2947780361703,146.65294849047336L706.6996698383399,150.04240695537615L707.1045616405094,143.8956804788806L708.7241288491874,150.67850864052102L709.9388042556959,163.28884658813377L711.5583714643739,140.6442433681508L711.9632632665434,140.22100295401927L712.3681550687129,138.41408906230416L713.987722277391,133.5291109325397L714.3926140795604,133.5166250770668L714.7975058817299,139.53307744706237L715.607289486069,128.20291576540268L716.4170730904079,126.97268292134103L717.2268566947471,124.03594954132495L718.036640299086,128.5350696073797L721.275774716442,129.3022727749897L723.3002337272895,125.6753574081119L723.7051255294591,127.01360042361354L727.3491517489847,121.3607421822677L727.7540435511542,119.14931665963036L732.2078533750187,131.41193105392344L734.2323123858663,131.08963050753044L735.4469877923748,139.75992889348507L735.8518795945444,139.9257801664831L737.0665550010528,132.59169396411585L737.8763386053919,147.72447558123528L738.2812304075613,148.78035774465772L741.5203648249175,130.10595570105951L741.9252566270869,126.73823465923904L742.3301484292564,123.90635237879636L742.735040231426,124.31485045755024L743.9497156379343,130.80080107972432L744.7594992422734,139.8776419285154L745.164391044443,140.52660554911725L745.5692828466125,131.29060765104555L748.8084172639684,136.37129780454734L750.832876274816,134.25411792593113L751.2377680769855,133.41959644116318L752.452443483494,133.28992406263777L755.2866860986807,130.37823760956425L756.0964697030196,143.08319728118227L760.1453877247147,136.19566845196212L762.1698467355621,137.74617101050254L762.5747385377316,142.58925383003572L763.3845221420708,130.96281633688432L763.7894139442403,133.20116918638482L766.2187647572572,133.44915632791523L766.6236565594268,137.14873034772546L769.0530073724439,142.19775456656413L769.4578991746133,140.167975676258L773.1019253941389,143.29643463217974L774.7214926028169,140.98452053778485L775.5312762071559,129.76507680345088L777.150843415834,134.1542310821482L780.7948696353595,129.36883893217936L781.6046532396986,132.99409954712698L782.819328646207,128.91491039134345L783.629112250546,127.08648472453649L784.0340040527155,125.56606856472592L786.0584630635631,116.1825720968813L787.2731384700716,116.4832856521857L789.2975974809191,110.62568946748353L790.1073810852582,115.01431723420308L791.7269482939362,120.3257700659625L792.5367318982751,127.8973883863015L792.9416237004447,125.9340252211914L793.3465155026141,125.89423595887123L794.1562991069533,121.85573865736981L794.9660827112923,122.21181118633702L796.9905417221397,121.984658875927L798.2052171286482,122.54719931617747L799.0150007329873,128.53003013559243L800.2296761394958,128.15981699922222L801.4443515460043,125.59773449938905L803.0639187546824,130.99583615949027L804.2785941611909,130.08617389389465L805.8981613698688,122.18548558744844L806.3030531720384,123.99187296718581L806.7079449742079,125.59750885139856L809.5421875893944,137.62755538351024L810.3519711937334,128.4892630653136L811.1617547980724,122.27852777552035L812.3764302045811,126.99945981621055L812.7813220067505,127.47610358808745L815.2106728197675,129.84104496024364L815.615564621937,125.47964538437456L817.2351318306152,124.1462914086665L818.8546990392931,131.26225122024266L820.0693744458016,125.6884449915594L820.4742662479711,123.72237405056357L820.8791580501407,121.60895497178858L821.2840498523102,123.22414328759804L822.0938334566491,122.87280936643077L823.3085088631576,127.42698754216104L826.1427514783443,134.1917638645636L826.5476432805137,121.75419706165673L828.5721022913611,130.1156585646499L829.3818858957002,135.8988661284926L829.7867776978699,130.3124988283396L830.1916695000393,133.14325286882996L833.8356957195648,124.41210474144434L835.4552629282429,121.10876859290562L835.8601547304123,118.32871013427498L836.2650465325819,127.50618998681726L836.6699383347514,123.57472504879709L837.4797219390904,121.12704608013395L839.5041809499379,121.47198664157115L839.9090727521075,127.91664368148861L840.7188563564464,126.03887632076479L841.123748158616,127.98110379076721L841.5286399607854,133.52196541284135L842.7433153672939,123.82180959836559L843.5530989716331,119.99135974408074L843.9579907738025,119.12284062874812L844.362882575972,116.64327007743142L848.0069087954976,127.00434885600416L849.221584202006,131.67924870663774L852.8656104215316,136.08457442465232L855.2949612345486,128.51039876042128L855.6998530367181,126.63014927180222L858.1292038497352,132.83990675363674L858.5340956519047,129.20373981914958L858.9389874540742,123.99164731919532L859.7487710584131,122.91891677248422L862.1781218714303,123.55426629766082L864.6074726844472,124.32628328906758L865.0123644866168,124.32553112909933L868.2514989039728,109.50482068280473L868.6563907061424,113.60837982155938L869.871066112651,109.78492505497918L871.0857415191595,113.94850655919979L872.7053087278374,117.51509869662429L873.5150923321764,121.72441152691418L875.1346595408545,117.39054100588292L877.5640103538715,113.719549064866L879.1835775625495,115.74797406722934L879.5884693647191,117.57384239014424L880.8031447712276,116.94759400058338L881.6129283755665,119.30283250914918L882.827603782075,121.62083909928685L884.4471709907532,121.00835523714488L885.2569545950921,124.09093243500368L886.0667381994311,120.01445105510585L886.4716300016006,127.02992229492449L886.8765218037701,119.90207835585002L889.7107644189567,110.84870489806822L890.5205480232956,119.96541022517627L890.9254398254652,122.21489504220683L893.3547906384823,115.20920188197539L893.7596824406518,118.41460680264858L894.1645742428212,120.48552884321774L894.9743578471603,123.68250957224659L895.7841414514992,123.8157171026228L900.6428430775333,116.20024785613509L904.2868692970588,108.93272781095752L905.906436505737,112.87464777253633L907.9308955165844,113.90819078490186L908.335787318754,113.17679043178033L910.3602463296015,114.76572836469808L910.7651381317711,116.64229226947273L911.1700299339406,116.99588267054472L912.7895971426185,111.14813978142656L913.194488944788,119.46093653447431L915.6238397578052,117.26034211537969L917.2434069664831,116.01777384783884L917.6482987686526,114.55647746153228L918.053190570822,110.67006690560999L918.8629741751612,110.69360951261606L919.2678659773308,117.80625982033199L921.2923249881782,112.60198978404746L922.5070003946867,114.72714255832709L923.3167839990258,113.5433179843062L924.5314594055343,116.32412860290505L925.7461348120428,117.41957438065717L926.9608102185512,113.35091546442911L927.7705938228903,113.68254279442833L930.1999446359073,116.14955227427535L930.6048364380767,119.86537294939967L931.4146200424158,120.79000319836335L932.2244036467549,117.78392066927508L935.8684298662804,115.48968233413395L936.2733216684499,114.23064176328853L936.6782134706195,113.61537490926408L937.083105272789,111.6511843681889L942.751590503162,109.14243001010423L944.37115771184,106.76913966230059L945.9907249205181,100.02640162696761L946.3956167226876,96.26469919378034L947.6102921291961,94.98271774390345L948.0151839313656,100.9274140529284L949.229859337874,107.00983085213898L950.0396429422132,109.30316659531825L950.8494265465522,105.44202861432898L952.8738855573996,107.78011787561877L954.0885609639081,103.54214775053873L954.8983445682472,106.58313050215355L955.3032363704168,105.9522187207896L956.1130199747557,106.40607204562868L957.3276953812642,95.09268353126089L958.5423707877727,102.6615188597174L959.3521543921119,98.61474779856528L960.5668297986203,103.74425313400617L961.7815052051288,100.1705906928802L962.1863970072983,99.91237417578168L963.4010724138069,105.68610452402449L964.6157478203154,101.7796865129469L967.8548822376715,104.87520086225948L968.259774039841,102.15591692906307L969.06955764418,100.16810856498496L971.0940166550274,100.40398593102667L973.118475665875,103.95553486908622L973.5233674680445,102.27047089222681L973.928259270214,102.43083139745663L974.738042874553,97.16398165181415L975.1429346767225,100.3992473232267L975.9527182810615,101.0481357278317L976.7625018854006,102.43639738122167L977.9771772919091,101.85151778991428L978.3820690940786,98.96675866370394L980.0016363027565,95.05823460471527L982.0260953136042,102.91243942512395L982.8358789179432,94.87515886844439L985.2652297309601,90.42387617637006L985.6701215331298,97.83129797564118L986.0750133352992,97.56450683490465L986.4799051374688,97.25837772782893L986.8847969396382,99.74780157472965L988.0994723461467,97.5127582290894L988.9092559504857,105.07369587787936L990.1239313569944,96.50373563168864L990.5288231591638,99.65460895466408L991.7434985656723,102.33944396131487L992.5532821700112,99.1611167994985L993.3630657743503,92.05290423559524L993.7679575765197,101.28408830987019L994.1728493786892,96.82235059423725L995.7924165873674,99.2606275632973L997.4119837960453,99.03061704500796L997.8168755982148,97.97435880160141L998.2217674003844,101.65851354206261L999.8413346090624,98.0865810688636L1000.246226411232,101.71236819578894L1001.0560100155709,101.16457009091604L1001.4609018177405,99.15998855954611L1002.2706854220794,98.22467763903337L1002.6755772242489,98.96269699987545L1003.0804690264184,101.96735042502402L1003.8902526307576,99.07491926713759L1004.295144432927,100.64753532874438L1005.1049280372661,101.48619369333764L1006.3196034437744,99.83775990693175L1007.1293870481135,107.4895584798857L1007.5342788502829,100.48145840775587L1009.9636296633,102.50612261027797L1010.3685214654696,99.32719372048702L1010.7734132676391,101.3338060837712L1012.3929804763172,94.41987643966566L1013.2027640806562,93.50336951835905L1014.0125476849952,90.37588837039603L1015.6321148936731,92.27313667429739L1018.4663575088597,92.21943245256472L1019.6810329153682,86.93626083561128L1020.4908165197072,89.6865337594994L1021.3006001240464,92.27434013024657L1021.7054919262158,87.74317804954464L1023.3250591348938,91.76896384758273L1024.1348427392327,90.99228346437287L1024.5397345414021,94.9451097454912L1024.9446263435718,95.36225766387992L1026.1593017500804,95.97158245415524L1026.56419355225,94.61385849547607L1027.7788689587583,96.28109628108808L1028.1837607609277,97.34525220416123L1029.3984361674363,93.41070341027124L1030.613111573945,104.01811457844423L1032.232678782623,101.99472904786816L1034.66202959564,99.67363860186066L1035.0669213978094,105.79870287127078L1036.281596804318,102.83376349244553L1036.6864886064875,101.78359774478177L1037.4962722108264,103.18600000557468L1038.3060558151656,101.9006338358407L1038.710947617335,102.07678970040367L1039.5207312216742,94.72006348299229L1039.9256230238436,98.5426908736074L1040.7354066281825,96.74833805336192L1041.140298430352,95.93705831161279L1041.5451902325215,94.99377449543664L1041.9500820346911,93.97662857037884L1042.75986563903,93.01717331488543L1043.5696492433692,98.838590605115L1043.9745410455387,101.08446505429797L1045.5941082542167,93.86576019105954L1045.9990000563862,92.3834033256421L1046.808783660725,91.8874290425813L1048.0234590672337,91.7231573055166L1048.8332426715726,88.10067968245151L1050.0479180780812,84.43314767728855L1054.9066197041152,88.55265260736995L1056.5261869127933,87.38319428874254L1057.7408623193019,96.65085812147737L1059.7653213301494,87.4494595819449L1060.5751049344883,84.82472215675689L1061.789780340997,89.85697320830373L1064.219131154014,86.84171432760289L1064.6240229561834,88.18747894278697L1065.4338065605223,91.45546357281816L1066.648481967031,86.06240138450416L1067.8631573735395,84.4948247946846L1068.268049175709,87.72790920218925L1068.6729409778784,87.22975365522053L1072.316967197404,88.48465734624062L1072.7218589995734,89.14106735052808L1073.1267508017431,87.17770418541797L1073.5316426039126,83.28046252595297L1074.3414262082515,81.8206704595829L1075.1512098125907,76.30688659636557L1076.365885219099,83.48805867718858L1078.3903442299465,78.60902261117326L1079.2001278342857,78.58863907603381L1079.6050196364552,84.66443686752389L1080.0099114386246,81.34207107178857L1080.4148032407943,83.37072172214233L1083.6539376581502,86.24066329697825L1087.2979638776758,84.84849041175346L1089.3224228885233,88.04103339696965L1092.5615573058794,84.04330316574709L1092.966449108049,83.54251505888953L1094.1811245145575,84.76545195125918L1095.8006917232353,81.3118342410651L1097.015367129744,78.39601090816628L1098.634934338422,80.96674324763428L1099.8496097449304,80.73583013738305L1101.064285151439,79.25430064793073L1101.4691769536087,81.20284626166638L1101.8740687557781,79.5119906530515L1102.683852360117,73.43295857369799L1105.9229867774732,76.27619846966118L1106.732770381812,78.22068241956833L1107.542553986151,78.68499076796601L1108.3523375904902,78.82835245791351L1110.3767966013377,81.75801553422811L1112.4012556121852,87.74310283354781L1115.6403900295413,83.08933867802187L1116.0452818317108,86.35927892397049L1116.4501736338802,80.2471518060142L1118.0697408425583,86.46962079131204L1119.284416249067,83.1246901965294L1120.4990916555753,83.70498161203048L1123.7382260729314,80.15817128177083L1124.5480096772703,75.48582877502926L1126.1675768859484,79.10304127831664L1126.5724686881179,75.1914333634581L1126.9773604902873,72.61979843202823L1127.3822522924568,74.23626541978372L1128.192035896796,78.04482741899264L1129.001819501135,76.8194836147246L1130.2164949076434,73.94736077598077L1131.4311703141518,77.47980485084693L1131.8360621163215,75.88417269421181L1132.6458457206606,73.05274170975011L1133.4556293249996,75.23581080158458L1136.289871940186,70.09103661878828L1137.909439148864,75.65649387182404L1138.719222753203,71.84936097655479L1139.5290063575421,72.98151216075726L1140.338789961881,77.50522785777362L1140.7436817640505,79.4482827037411L1141.5534653683897,71.95090257226788L1142.7681407748983,74.94795918173718L1143.5779243792372,72.3539098832536L1144.7925997857456,76.66619341319625L1145.6023833900847,71.04695672243095L1146.8170587965933,75.99097940970262L1147.2219505987628,73.44025452538995L1147.6268424009322,77.45799221176783L1151.6757604226273,66.83583870821725L1152.0806522247967,72.54894496301954L1152.8904358291359,75.4178335138999L1153.2953276313053,74.6266364433029L1153.7002194334748,75.29575795105373L1154.1051112356442,71.46372856083553L1155.3197866421528,81.05263991600785L1155.7246784443223,75.25446436879704L1156.5344620486615,76.03152083199103L1157.7491374551698,75.37684079563056L1158.5589210595087,80.04166170268967L1159.368704663848,78.86919474418923L1160.178488268187,79.34373246815508L1163.8225144877126,73.21242527100851L1164.227406289882,75.59887841825648L1165.4420816963905,74.12216275260091L1166.2518653007296,73.01317809542039L1167.0616489050685,73.47891554775772L1167.8714325094074,76.07138531030802L1168.6812161137466,79.79645755304176L1169.086107915916,76.12794773992006L1170.3007833224246,80.75237765668443L1172.7301341354416,77.73764528796136L1173.135025937611,77.46619075542169L1174.7545931462892,74.89763967986158L1175.9692685527975,70.83176375551602L1177.1839439593064,69.69412180354534L1177.9937275636453,74.12276448057554L1178.3986193658147,68.62349730474531L1180.0181865744928,70.472607370679L1181.6377537831709,68.47645003095342L1182.8524291896792,72.87094464542523L1183.2573209918487,71.55609380493603L1183.6622127940184,64.95235493173479L1184.0671045961878,67.79424093975514L1185.2817800026962,67.37731866935687L1186.9013472113743,68.51142546947679L1187.7111308157134,66.74475213606276L1189.3306980243913,73.25657706114448L1189.7355898265607,74.26544922655162L1190.5453734308999,74.86364204929694L1190.9502652330696,73.42084879820924L1192.9747242439169,75.3414140611262L1194.1893996504255,76.20489370467155L1194.594291452595,70.85380204258561L1195.404075056934,65.99011003992247L1196.213858661273,69.09434944486672L1197.023642265612,71.2828340884726L1197.4285340677816,75.85739579934231L1198.64320947429,73.37895348797795L1199.0481012764594,72.53427784363878L1199.8578848807986,73.19113914390717L1201.0725602873072,71.45161878534678L1201.4774520894766,72.53638389154985L1202.2872356938155,72.86883859751416L1204.7165865068328,69.76828477641435L1205.9312619133411,68.91510972443393L1207.1459373198495,66.51030387396078L1207.5508291220192,67.0784855139731L1209.1703963306973,71.87162491161483L1211.5997471437142,74.8083582916309L1216.8633405719177,76.2901134290737L1218.482907780596,70.14857685635901L1219.2926913849349,74.03378395633213L1221.3171503957824,66.20703297476437L1222.531825802291,68.78882206576559L1223.34160940663,74.35330151084266L1224.961176615308,73.70704566612648L1226.9856356261555,75.49808898251163L1228.6052028348336,75.8816153503198L1230.2247700435114,69.8259002299819L1231.43944545002,67.26660072203121L1235.0834716695456,66.81741078899526L1237.5128224825626,63.34551559157281L1241.5617405042576,63.8724036493285L1241.966632306427,64.12460288668106L1242.3715241085968,62.239690006258925L1243.5861995151051,61.92445976356739L1243.9910913172748,59.37681873512449L1246.0155503281223,64.43712535348688L1246.8253339324613,58.34086881086056L1248.4449011411393,65.25682928688035L1248.8497929433088,61.73265897166489L1249.2546847454782,65.87465348479687L1249.659576547648,69.97550484766585L1250.0644683498174,65.90218253963467L1250.4693601519868,67.51105271171083L1250.8742519541563,66.73850920832636L1254.1133863715124,65.47525654165875L1255.3280617780208,62.41862886270439L1257.757412591038,65.5635601219307L1259.3769797997159,63.14957791984499L1263.4258978214111,64.72813604520091L1263.8307896235806,64.10053376769721L1264.23568142575,65.81508241531185L1267.0699240409367,66.68360153064447L1269.094383051784,63.46142344267939L1270.3090584582926,68.9361702035448L1271.1188420626318,64.21170301100383L1271.5237338648012,65.56167972201011L1271.9286256669707,65.57401514548931L1272.3335174691401,60.399004131969555L1273.9530846778182,64.82095258528233L1277.1922190951743,60.43676256237547L1277.5971108973438,61.71144806056041L1278.8117863038522,57.62541424906584L1279.6215699081913,60.963274540147005L1280.0264617103608,59.495735226104046L1280.8362453147,66.58198471893455L1282.8607043255472,57.44978489648063L1285.6949469407339,56.38367335749007L1286.5047305450728,56.92575504660427L1287.7194059515814,58.11988421219016L1288.5291895559205,57.39254552289717L1290.5536485667678,59.18261103132363L1291.7683239732764,54.44264934343683L1292.982999379785,57.442263296798174L1296.6270255993104,49.21634102008275L1297.0319174014799,52.31674440918894L1298.2465928079887,57.62842288893882L1299.461268214497,59.272795011516216L1300.271051818836,54.99172612025572L1300.6759436210057,57.98915880970916L1303.1052944340227,57.807136097393844L1304.3199698405313,62.06248111774035L1304.7248616427007,61.4821897022393L1305.5346452470396,60.08956552103354L1306.7493206535482,54.55449553071487L1307.5591042578872,58.44451645448473L1308.3688878622263,57.498976158403835L1309.5835632687347,51.83205252565182L1309.9884550709041,53.15284542989016L1310.3933468730736,55.474011091894454L1313.2275894882603,52.54720622345922L1315.252048499108,54.8897332285617L1316.061832103447,50.574290626752415L1316.4667239056164,52.495081537659864L1316.8716157077858,54.592178745123945L1318.491182916464,53.38563894006204L1318.8960747186334,55.83301704473786L1320.920533729481,58.26670583799161L1321.3254255316504,58.315821883917984L1322.9449927403284,52.95066483042588L1324.159668146837,55.576605711563104L1324.5645599490065,55.087626516206996L1325.3743435533456,51.13006162728868L1328.208586168532,54.86190330973663L1328.6134779707015,54.541934459245184L1330.637936981549,52.629642955978916L1335.4966386075832,48.62597066100721L1337.5210976184305,49.17151228597536L1338.3308812227697,44.817784741782404L1338.7357730249391,47.80731975156925L1339.9504484314477,49.795128115647344L1340.3553402336172,48.76850497498963L1343.9993664531428,48.89103183381676L1346.4287172661598,45.1118792893662L1348.0482844748378,48.58753528662988L1348.4531762770073,45.298565393484644" fill="none"></path></g></g></g></g></g></g><g transform="translate(39, 377)" clip-path="url(#clip_1)"><clipPath id="clip_1"><rect width="1473" height="22"></rect></clipPath><g><g><line x1="133.7777697684884" y1="0" x2="133.7777697684884" y2="5" style="visibility: inherit;" fill="rgb(0, 0, 0)" stroke="rgb(200, 195, 188)" stroke-width="1px"></line><line x1="298.5286658335545" y1="0" x2="298.5286658335545" y2="5" style="visibility: inherit;" fill="rgb(0, 0, 0)" stroke="rgb(200, 195, 188)" stroke-width="1px"></line><line x1="463.2795618986205" y1="0" x2="463.2795618986205" y2="5" style="visibility: inherit;" fill="rgb(0, 0, 0)" stroke="rgb(200, 195, 188)" stroke-width="1px"></line><line x1="628.0304579636866" y1="0" x2="628.0304579636866" y2="5" style="visibility: inherit;" fill="rgb(0, 0, 0)" stroke="rgb(200, 195, 188)" stroke-width="1px"></line><line x1="792.7813540287526" y1="0" x2="792.7813540287526" y2="5" style="visibility: inherit;" fill="rgb(0, 0, 0)" stroke="rgb(200, 195, 188)" stroke-width="1px"></line><line x1="957.5322500938186" y1="0" x2="957.5322500938186" y2="5" style="visibility: inherit;" fill="rgb(0, 0, 0)" stroke="rgb(200, 195, 188)" stroke-width="1px"></line><line x1="1122.2831461588846" y1="0" x2="1122.2831461588846" y2="5" style="visibility: inherit;" fill="rgb(0, 0, 0)" stroke="rgb(200, 195, 188)" stroke-width="1px"></line><line x1="1287.0340422239506" y1="0" x2="1287.0340422239506" y2="5" style="visibility: inherit;" fill="rgb(0, 0, 0)" stroke="rgb(200, 195, 188)" stroke-width="1px"></line><line x1="1451.7849382890167" y1="0" x2="1451.7849382890167" y2="5" style="visibility: inherit;" fill="rgb(0, 0, 0)" stroke="rgb(200, 195, 188)" stroke-width="1px"></line></g><g transform="translate(0, 8)"><text style="text-anchor: middle; visibility: inherit; font-family: Roboto, sans-serif; font-size: 12px; font-weight: 200;" x="133.7777697684884" y="0" dx="0em" dy="0.95em" fill="rgb(232, 230, 227)" stroke="none" stroke-width="1px">0</text><text style="text-anchor: middle; visibility: inherit; font-family: Roboto, sans-serif; font-size: 12px; font-weight: 200;" x="298.5286658335545" y="0" dx="0em" dy="0.95em" fill="rgb(232, 230, 227)" stroke="none" stroke-width="1px">20M</text><text style="text-anchor: middle; visibility: inherit; font-family: Roboto, sans-serif; font-size: 12px; font-weight: 200;" x="463.2795618986205" y="0" dx="0em" dy="0.95em" fill="rgb(232, 230, 227)" stroke="none" stroke-width="1px">40M</text><text style="text-anchor: middle; visibility: inherit; font-family: Roboto, sans-serif; font-size: 12px; font-weight: 200;" x="628.0304579636866" y="0" dx="0em" dy="0.95em" fill="rgb(232, 230, 227)" stroke="none" stroke-width="1px">60M</text><text style="text-anchor: middle; visibility: inherit; font-family: Roboto, sans-serif; font-size: 12px; font-weight: 200;" x="792.7813540287526" y="0" dx="0em" dy="0.95em" fill="rgb(232, 230, 227)" stroke="none" stroke-width="1px">80M</text><text style="text-anchor: middle; visibility: inherit; font-family: Roboto, sans-serif; font-size: 12px; font-weight: 200;" x="957.5322500938186" y="0" dx="0em" dy="0.95em" fill="rgb(232, 230, 227)" stroke="none" stroke-width="1px">100M</text><text style="text-anchor: middle; visibility: inherit; font-family: Roboto, sans-serif; font-size: 12px; font-weight: 200;" x="1122.2831461588846" y="0" dx="0em" dy="0.95em" fill="rgb(232, 230, 227)" stroke="none" stroke-width="1px">120M</text><text style="text-anchor: middle; visibility: inherit; font-family: Roboto, sans-serif; font-size: 12px; font-weight: 200;" x="1287.0340422239506" y="0" dx="0em" dy="0.95em" fill="rgb(232, 230, 227)" stroke="none" stroke-width="1px">140M</text><text style="text-anchor: middle; visibility: inherit; font-family: Roboto, sans-serif; font-size: 12px; font-weight: 200;" x="1451.7849382890167" y="0" dx="0em" dy="0.95em" fill="rgb(232, 230, 227)" stroke="none" stroke-width="1px">160M</text></g><line x1="0" y1="0" x2="1473.011999130249" y2="0" fill="rgb(0, 0, 0)" stroke="rgb(200, 195, 188)" stroke-width="1px"></line></g></g></g></g></svg>