<svg viewBox="0 0 1513 400" xmlns="http://www.w3.org/2000/svg"><g><g><g><g><g><line x1="30.766000747680664" y1="368.5785383893455" x2="25.766000747680664" y2="368.5785383893455" style="visibility: inherit;" fill="rgb(0, 0, 0)" stroke="rgb(200, 195, 188)" stroke-width="1px"></line><line x1="30.766000747680664" y1="329.358086158771" x2="25.766000747680664" y2="329.358086158771" style="visibility: inherit;" fill="rgb(0, 0, 0)" stroke="rgb(200, 195, 188)" stroke-width="1px"></line><line x1="30.766000747680664" y1="290.1376339281964" x2="25.766000747680664" y2="290.1376339281964" style="visibility: inherit;" fill="rgb(0, 0, 0)" stroke="rgb(200, 195, 188)" stroke-width="1px"></line><line x1="30.766000747680664" y1="250.91718169762186" x2="25.766000747680664" y2="250.91718169762186" style="visibility: inherit;" fill="rgb(0, 0, 0)" stroke="rgb(200, 195, 188)" stroke-width="1px"></line><line x1="30.766000747680664" y1="211.69672946704728" x2="25.766000747680664" y2="211.69672946704728" style="visibility: inherit;" fill="rgb(0, 0, 0)" stroke="rgb(200, 195, 188)" stroke-width="1px"></line><line x1="30.766000747680664" y1="172.47627723647273" x2="25.766000747680664" y2="172.47627723647273" style="visibility: inherit;" fill="rgb(0, 0, 0)" stroke="rgb(200, 195, 188)" stroke-width="1px"></line><line x1="30.766000747680664" y1="133.25582500589815" x2="25.766000747680664" y2="133.25582500589815" style="visibility: inherit;" fill="rgb(0, 0, 0)" stroke="rgb(200, 195, 188)" stroke-width="1px"></line><line x1="30.766000747680664" y1="94.03537277532357" x2="25.766000747680664" y2="94.03537277532357" style="visibility: inherit;" fill="rgb(0, 0, 0)" stroke="rgb(200, 195, 188)" stroke-width="1px"></line><line x1="30.766000747680664" y1="54.81492054474899" x2="25.766000747680664" y2="54.81492054474899" style="visibility: inherit;" fill="rgb(0, 0, 0)" stroke="rgb(200, 195, 188)" stroke-width="1px"></line><line x1="30.766000747680664" y1="15.594468314174417" x2="25.766000747680664" y2="15.594468314174417" style="visibility: inherit;" fill="rgb(0, 0, 0)" stroke="rgb(200, 195, 188)" stroke-width="1px"></line></g><g transform="translate(20.766000747680664, 0)"><text style="text-anchor: end; visibility: inherit; font-family: Roboto, sans-serif; font-size: 12px; font-weight: 200;" x="0" y="368.5785383893455" dx="0em" dy="0.3em" fill="rgb(232, 230, 227)" stroke="none" stroke-width="1px">8</text><text style="text-anchor: end; visibility: inherit; font-family: Roboto, sans-serif; font-size: 12px; font-weight: 200;" x="0" y="329.358086158771" dx="0em" dy="0.3em" fill="rgb(232, 230, 227)" stroke="none" stroke-width="1px">10</text><text style="text-anchor: end; visibility: inherit; font-family: Roboto, sans-serif; font-size: 12px; font-weight: 200;" x="0" y="290.1376339281964" dx="0em" dy="0.3em" fill="rgb(232, 230, 227)" stroke="none" stroke-width="1px">12</text><text style="text-anchor: end; visibility: inherit; font-family: Roboto, sans-serif; font-size: 12px; font-weight: 200;" x="0" y="250.91718169762186" dx="0em" dy="0.3em" fill="rgb(232, 230, 227)" stroke="none" stroke-width="1px">14</text><text style="text-anchor: end; visibility: inherit; font-family: Roboto, sans-serif; font-size: 12px; font-weight: 200;" x="0" y="211.69672946704728" dx="0em" dy="0.3em" fill="rgb(232, 230, 227)" stroke="none" stroke-width="1px">16</text><text style="text-anchor: end; visibility: inherit; font-family: Roboto, sans-serif; font-size: 12px; font-weight: 200;" x="0" y="172.47627723647273" dx="0em" dy="0.3em" fill="rgb(232, 230, 227)" stroke="none" stroke-width="1px">18</text><text style="text-anchor: end; visibility: inherit; font-family: Roboto, sans-serif; font-size: 12px; font-weight: 200;" x="0" y="133.25582500589815" dx="0em" dy="0.3em" fill="rgb(232, 230, 227)" stroke="none" stroke-width="1px">20</text><text style="text-anchor: end; visibility: inherit; font-family: Roboto, sans-serif; font-size: 12px; font-weight: 200;" x="0" y="94.03537277532357" dx="0em" dy="0.3em" fill="rgb(232, 230, 227)" stroke="none" stroke-width="1px">22</text><text style="text-anchor: end; visibility: inherit; font-family: Roboto, sans-serif; font-size: 12px; font-weight: 200;" x="0" y="54.81492054474899" dx="0em" dy="0.3em" fill="rgb(232, 230, 227)" stroke="none" stroke-width="1px">24</text><text style="text-anchor: end; visibility: inherit; font-family: Roboto, sans-serif; font-size: 12px; font-weight: 200;" x="0" y="15.594468314174417" dx="0em" dy="0.3em" fill="rgb(232, 230, 227)" stroke="none" stroke-width="1px">26</text></g><line x1="30.766000747680664" y1="0" x2="30.766000747680664" y2="376.5999994277954" fill="rgb(0, 0, 0)" stroke="rgb(200, 195, 188)" stroke-width="1px"></line></g></g><g transform="translate(30, 0)" clip-path="url(#clip_0)"><clipPath id="clip_0"><rect width="1482" height="376"></rect></clipPath><g><g><g><line x1="40.17071866763365" y1="0" x2="40.17071866763365" y2="376.5999994277954" fill="rgb(0, 0, 0)" stroke="rgb(194, 189, 181)" stroke-width="1px" opacity="0.25"></line><line x1="160.2324449182274" y1="0" x2="160.2324449182274" y2="376.5999994277954" fill="rgb(0, 0, 0)" stroke="rgb(194, 189, 181)" stroke-width="1px" opacity="0.25"></line><line x1="280.2941711688212" y1="0" x2="280.2941711688212" y2="376.5999994277954" fill="rgb(0, 0, 0)" stroke="rgb(194, 189, 181)" stroke-width="1px" opacity="0.25"></line><line x1="400.35589741941493" y1="0" x2="400.35589741941493" y2="376.5999994277954" fill="rgb(0, 0, 0)" stroke="rgb(194, 189, 181)" stroke-width="1px" opacity="0.25"></line><line x1="520.4176236700087" y1="0" x2="520.4176236700087" y2="376.5999994277954" fill="rgb(0, 0, 0)" stroke="rgb(194, 189, 181)" stroke-width="1px" opacity="0.25"></line><line x1="640.4793499206025" y1="0" x2="640.4793499206025" y2="376.5999994277954" fill="rgb(0, 0, 0)" stroke="rgb(194, 189, 181)" stroke-width="1px" opacity="0.25"></line><line x1="760.5410761711962" y1="0" x2="760.5410761711962" y2="376.5999994277954" fill="rgb(0, 0, 0)" stroke="rgb(194, 189, 181)" stroke-width="1px" opacity="0.25"></line><line x1="880.60280242179" y1="0" x2="880.60280242179" y2="376.5999994277954" fill="rgb(0, 0, 0)" stroke="rgb(194, 189, 181)" stroke-width="1px" opacity="0.25"></line><line x1="1000.6645286723839" y1="0" x2="1000.6645286723839" y2="376.5999994277954" fill="rgb(0, 0, 0)" stroke="rgb(194, 189, 181)" stroke-width="1px" opacity="0.25"></line><line x1="1120.7262549229777" y1="0" x2="1120.7262549229777" y2="376.5999994277954" fill="rgb(0, 0, 0)" stroke="rgb(194, 189, 181)" stroke-width="1px" opacity="0.25"></line><line x1="1240.7879811735713" y1="0" x2="1240.7879811735713" y2="376.5999994277954" fill="rgb(0, 0, 0)" stroke="rgb(194, 189, 181)" stroke-width="1px" opacity="0.25"></line><line x1="1360.849707424165" y1="0" x2="1360.849707424165" y2="376.5999994277954" fill="rgb(0, 0, 0)" stroke="rgb(194, 189, 181)" stroke-width="1px" opacity="0.25"></line><line x1="1480.9114336747589" y1="0" x2="1480.9114336747589" y2="376.5999994277954" fill="rgb(0, 0, 0)" stroke="rgb(194, 189, 181)" stroke-width="1px" opacity="0.25"></line></g><g><line x1="0" y1="368.5785383893455" x2="1482.2339992523193" y2="368.5785383893455" fill="rgb(0, 0, 0)" stroke="rgb(194, 189, 181)" stroke-width="1px" opacity="0.25"></line><line x1="0" y1="329.358086158771" x2="1482.2339992523193" y2="329.358086158771" fill="rgb(0, 0, 0)" stroke="rgb(194, 189, 181)" stroke-width="1px" opacity="0.25"></line><line x1="0" y1="290.1376339281964" x2="1482.2339992523193" y2="290.1376339281964" fill="rgb(0, 0, 0)" stroke="rgb(194, 189, 181)" stroke-width="1px" opacity="0.25"></line><line x1="0" y1="250.91718169762186" x2="1482.2339992523193" y2="250.91718169762186" fill="rgb(0, 0, 0)" stroke="rgb(194, 189, 181)" stroke-width="1px" opacity="0.25"></line><line x1="0" y1="211.69672946704728" x2="1482.2339992523193" y2="211.69672946704728" fill="rgb(0, 0, 0)" stroke="rgb(194, 189, 181)" stroke-width="1px" opacity="0.25"></line><line x1="0" y1="172.47627723647273" x2="1482.2339992523193" y2="172.47627723647273" fill="rgb(0, 0, 0)" stroke="rgb(194, 189, 181)" stroke-width="1px" opacity="0.25"></line><line x1="0" y1="133.25582500589815" x2="1482.2339992523193" y2="133.25582500589815" fill="rgb(0, 0, 0)" stroke="rgb(194, 189, 181)" stroke-width="1px" opacity="0.25"></line><line x1="0" y1="94.03537277532357" x2="1482.2339992523193" y2="94.03537277532357" fill="rgb(0, 0, 0)" stroke="rgb(194, 189, 181)" stroke-width="1px" opacity="0.25"></line><line x1="0" y1="54.81492054474899" x2="1482.2339992523193" y2="54.81492054474899" fill="rgb(0, 0, 0)" stroke="rgb(194, 189, 181)" stroke-width="1px" opacity="0.25"></line><line x1="0" y1="15.594468314174417" x2="1482.2339992523193" y2="15.594468314174417" fill="rgb(0, 0, 0)" stroke="rgb(194, 189, 181)" stroke-width="1px" opacity="0.25"></line></g></g></g><g><g><line x1="0" y1="525.4603473116438" x2="1482.2339992523193" y2="525.4603473116438" fill="rgb(0, 0, 0)" stroke="rgb(168, 160, 149)" stroke-width="1.5px"></line></g></g><g><g><line x1="160.2324449182274" y1="0" x2="160.2324449182274" y2="376.5999994277954" fill="rgb(0, 0, 0)" stroke="rgb(168, 160, 149)" stroke-width="1.5px"></line></g></g><g><g><g><g><g><path style="fill: none;" stroke="rgb(255, 112, 67)" stroke-width="2px" d="M162.00282710882817,54.91991227583118L162.29789080726164,55.242447659189914L163.7732092994289,56.67022991858145L164.6584003947293,57.95558960557286L164.95346409316278,58.84447252731752L165.83865518846315,60.00723077692132L166.42878258533005,61.0484938969617L167.6090373790639,62.45371834875664L171.1498017602654,65.56326770490868L172.33005655399924,68.12081463357347L172.92018395086617,70.04217439265581L173.5103113477331,71.5869920837289L173.80537504616655,72.70490749046675L174.39550244303348,73.79708413412509L176.16588463363422,75.54784720921687L176.4609483320677,76.79625234879721L176.75601203050113,77.6817058035076L177.0510757289346,78.39689611732291L177.34613942736806,79.0262345625581L179.70664901483573,80.78394936637801L180.5918401101361,82.28448684214358L181.47703120543648,83.69315391676207L181.77209490386994,84.72314715498793L182.0671586023034,85.49265286157636L182.36222230073685,86.14940647629412L183.83754079290415,87.38759689640725L186.19805038037182,89.3653365016768L186.4931140788053,90.68939965224294L188.26349626940603,92.57401590297503L190.6240058568737,94.97047632947393L191.50919695217408,96.9296379434323L191.80426065060757,98.24988644895416L193.86970653964178,100.11231533302036L194.75489763494215,101.63820429146281L195.3450250318091,102.82932691104989L197.70553461927673,104.85984198764378L198.5907257145771,106.53380092256826L198.88578941301057,107.64769383647605L201.54136269891174,109.57314753473558L202.13149009577864,111.00192938236421L202.4265537942121,111.97585264403399L202.72161749264555,112.72965958903721L204.78706338167976,114.18633348050155L206.26238187384706,115.6805483204241L206.85250927071397,116.84261242099717L207.14757296914743,117.67960546054394L208.32782776288127,118.72823705117244L209.8031462550486,120.05196978281512L210.098209953482,121.00966288271337L210.98340104878238,122.05870521826111L212.75378323938318,123.51165179578449L213.04884693781662,124.4926679959974L213.63897433468355,125.38550313255782L214.52416542998392,126.34070733495138L215.11429282685083,127.14586644453856L215.4093565252843,127.81692216929807L215.9994839221512,128.5070242355771L216.58961131901813,129.16935519897496L216.8846750174516,129.68783651013052L218.95012090648584,130.8508881232925L221.31063049395348,132.52146542247146L221.60569419238695,133.6425156700808L221.90075789082042,134.4182598921225L223.08101268455425,135.2839542044584L226.03164966888883,136.7715987757549L226.32671336732227,137.77672528357732L226.9168407641892,138.63968097008734L228.09709555792307,139.63255412128993L228.98228665322344,140.57853970297916L229.2773503516569,141.2822649687887L229.57241405009034,141.78231444866756L230.45760514539072,142.43151364425358L233.99836952659223,144.01887398439135L235.76875171719297,145.72399898658506L236.65394281249334,147.06114401552884L237.2440702093603,148.09431559207727L237.53913390779377,148.79483064303952L238.12926130466067,149.40743874302896L239.3095160983945,150.2162905439943L240.48977089212835,151.0793923194871L241.07989828899525,151.796404782351L242.55521678116256,152.80386854227L246.686108559231,154.69784125044953L248.16142705139828,156.28954562377524L248.45649074983174,157.330117619816L249.63674554356558,158.36658796021064L249.93180924199905,159.09622227663178L251.11206403573286,159.92130902145763L251.40712773416632,160.5016710577555L251.99725513103326,161.07552138198523L252.88244622633363,161.7677892095516L254.3577647185009,162.6252447634833L254.6528284169344,163.24990891870232L254.94789211536786,163.74573029928993L256.4232106075351,164.5259083044395L256.7182743059686,165.0895736663354L257.01333800440204,165.49120928387018L257.89852909970244,166.02616750142124L260.5541023856036,167.15851493901528L261.1442297824705,167.97778271074958L262.91461197307126,169.03675504479716L264.684994163672,170.1797044554805L264.98005786210547,170.94800126806786L266.7504400527062,172.00776511427654L267.63563114800655,172.94560462615746L268.8158859417404,173.93847894277295L269.9961407354743,174.93331424429883L270.58626813234116,175.77271004258228L271.766522926075,176.76832373718125L272.0615866245085,177.43674371466867L272.35665032294196,177.94692426354283L272.94677771980884,178.4486231736207L274.42209621197617,179.25239095423163L275.89741470414344,180.16124645385526L276.1924784025769,180.75671041733978L276.4875421010104,181.16195509252333L280.91349757751226,182.6891952789787L282.97894346654647,184.14259435044238L284.7493256571472,185.45250953162932L285.0443893555807,186.32783813467495L285.6345167524476,187.06801587133953L286.2246441493145,187.6867222285828L287.40489894304835,188.42478498192472L290.0604722289495,189.56905866219142L290.6505996258164,190.4144532539879L290.9456633242499,191.0149594713481L291.83085441955023,191.71223915604475L293.601236610151,192.5825464354483L295.9617461976187,193.76904756027045L296.2568098960522,194.57646190972432L297.1420009913525,195.25816181723593L297.437064689786,195.71199120023113L300.0926379756871,196.7180265536808L300.3877016741206,197.43028260143112L303.6334023568886,198.80865858650995L304.518593452189,199.83737901570743L304.8136571506224,200.5773996076743L305.4037845474894,201.17834224676196L305.9939119443563,201.70560791823982L310.1248037224247,203.088805992526L311.60012221459203,204.22842613149047L312.1902496114589,205.10563435183548L313.0754407067593,205.83544949201521L313.66556810362624,206.45709467746275L315.1408865957935,207.21876439390172L315.435950294227,207.739082932841L317.2063324848277,208.5095272419995L317.79645988169466,209.13618985758094L318.0915235801281,209.5863810848474L318.68165097699506,209.98648059636108L318.9767146754285,210.27069143948918L319.86190577072887,210.70465854399734L320.4520331675958,211.1475680719965L321.92735165976313,211.8132922624335L322.22241535819654,212.2962264348602L324.8779886440977,213.27616450164882L325.4681160409646,214.09427879155984L326.6483708346984,214.9362319343093L326.9434345331319,215.553382531934L327.23849823156536,216.023136378679L328.41875302529917,216.65446490339616L329.59900781903303,217.26817867880177L329.8940715174665,217.68316136650776L330.77926261276684,218.18031597285562L331.3693900096338,218.63013794968896L331.66445370806724,218.97052184344747L331.9595174065007,219.25068136178194L332.2545811049342,219.4698179406967L332.5496448033676,219.6635094523975L332.8447085018011,219.86154833908142L333.434835898668,220.12899088886238L333.72989959710145,220.34163435419927L335.2052180892688,220.9106121042794L335.5002817877022,221.30032412538492L336.68053658143606,221.74757592570577L337.5657276767364,222.1911476198732L338.15585507360333,222.57323412337345L339.9262372642041,223.1300736917237L340.51636466107107,223.62036712658954L341.99168315323834,224.2453924422701L343.17193794697215,224.8007151268173L343.4670016454056,225.20771339866835L344.05712904227255,225.56932954817475L347.59789342347403,226.65324592165805L349.6633393125083,227.61325215589514L349.9584030109417,228.2627463678412L350.54853040780864,228.79553386986737L350.8435941062421,229.22339984501548L351.1386578046756,229.5403914911894L351.43372150310904,229.77270286264817L352.0238488999759,230.0333369942074L352.9090399952763,230.41906848726825L354.0892947890101,230.95839086555216L354.3843584874436,231.33189557358986L355.56461328117746,231.7934884224L356.4498043764778,232.3013212101606L357.63005917021167,232.80591287043697L358.515250265512,233.2194721074855L358.81031396394553,233.53228584757258L359.105377662379,233.7857070692536L359.4004413608124,234.0080186079853L359.6955050592459,234.2192796972781L360.2856324561128,234.37669977128172L360.5806961545463,234.51807829442123L360.87575985297974,234.6682718312616L361.7609509482801,234.88952475748903L362.05601464671355,235.0603233920488L362.351078345147,235.20799352736012L362.94120574201395,235.41642906349563L363.5313331388808,235.688276829587L363.8263968373143,235.90803688785138L365.8918427263485,236.45762311556805L366.7770338216489,236.92581282693317L367.95728861538277,237.47045899997966L368.8424797106831,237.89790710519276L369.43260710755004,238.24169078735818L370.022734504417,238.57692091487078L371.2029892981508,239.01777826622902L372.38324409188465,239.47003599553125L373.268435187185,239.8842796288661L373.56349888561846,240.20704938961495L373.858562584052,240.47173308396196L374.1536262824854,240.6646927307369L375.92400847308613,241.11751179945077L377.6943906636869,241.64767664946794L378.2845180605538,242.0667277084596L378.5795817589872,242.37706143545L379.75983655272114,242.7568399420549L380.6450276480215,243.13249590524543L380.94009134645495,243.40854135427892L381.8252824417553,243.7422227197988L382.1203461401888,243.981435948506L382.4154098386222,244.17118717795387L383.0055372354892,244.43138299828448L383.59566463235603,244.74512648019666L385.3660468229569,245.22392325229598L386.25123791825723,245.65635696571007L386.5463016166907,245.95334042305018L387.43149271199104,246.29615094876831L387.72655641042445,246.53373500138025L388.021620108858,246.7143323117706L388.61174750572485,246.91644640628076L388.9068112041584,247.10342539849276L390.6771933947591,247.49623657779475L391.8574481884929,247.91016610521882L392.1525118869264,248.2124298005958L392.74263928379327,248.4797787516154L393.3327666806602,248.7390456730822L393.9228940775272,248.9701983761999L394.2179577759606,249.19504530743095L394.5130214743941,249.42195868886853L394.80808517282753,249.60312561603195L395.10314887126094,249.76226818363645L395.98833996656134,250.01213308681713L396.5784673634283,250.24232002120948L397.1685947602952,250.50169445194405L398.0537858555956,250.8412023837536L398.64391325246254,251.1021046331033L398.93897695089595,251.33286956346106L399.2340406493294,251.50956241818875L401.00442283993016,251.8857064822457L401.2994865383636,252.15535703921L401.8896139352305,252.37894549882282L402.77480503053096,252.6440857645619L403.9550598242647,252.9810686312989L404.84025091956516,253.32468860911382L405.7254420148655,253.69131429298707L406.0205057132989,253.95025670916826L406.6106331101659,254.24811467712803L407.2007605070327,254.5192161966901L407.79088790389966,254.72017085060125L409.266206396067,255.04228138623859L410.1513974913674,255.3646048750332L410.7415248882343,255.6685114615965L415.16748036473615,256.5895902498599L416.34773515846996,257.38996115479415L416.9378625553369,257.9647697645736L417.2329262537704,258.35242961646384L418.4131810475042,258.69531359965686L419.00330844437116,258.92905923951224L419.2983721428046,259.10540103756665L420.18356323810497,259.38985289445225L420.7736906349719,259.6922069043613L421.3638180318388,259.9718035974783L422.24900912713923,260.297763617547L422.8391365240061,260.53537372555905L423.13420022243963,260.7260332594883L423.72432761930645,260.923382546356L424.9045824130404,261.26977416311223L426.0848372067741,261.6198398266512L428.1502830958084,262.07095998840725L428.44534679424186,262.3771355237022L428.74041049267527,262.5980947686974L429.0354741911088,262.78462117886266L429.6256015879756,262.9898289293669L430.51079268327607,263.237065999362L430.80585638170953,263.4315716879218L431.10092008014294,263.60710338557715L431.98611117544334,263.8826085019344L432.2811748738768,264.1061039961227L432.5762385723103,264.2844945623L432.8713022707437,264.4348571603909L435.23181185821136,264.82965920964386L435.5268755566449,265.11593555143907L436.4120666519453,265.41779086157635L438.47751254097943,265.91464975378733L439.36270363627983,266.33224695080577L441.7232132237475,266.89828166967214L442.0182769221809,267.2492656958273L442.60840431904785,267.5594243295969L442.9034680174814,267.7896332425407L443.19853171591484,267.95551201548074L444.0837228112152,268.14731380741716L444.3787865096486,268.3119545703894L444.9689139065156,268.51799741365596L445.5590413033825,268.7169463643801L447.0343597955498,269.0778902251485L447.32942349398326,269.329533579518L448.50967828771707,269.57518794674206L448.80474198615053,269.7601711227365L449.099805684584,269.89912391331967L449.3948693830174,269.98983416181926L450.2800604783178,270.1760628980182L450.5751241767513,270.3081551451009L450.87018787518474,270.42364704093603L451.7553789704851,270.5773170793901L452.0504426689186,270.7341224932446L454.4109522563862,271.1878482398477L455.5912070501201,271.5675066488598L456.181334446987,271.8769311755332L456.7714618438539,272.130084316158L457.0665255422874,272.30972962570684L457.95171663758777,272.57470892010934L458.83690773288816,272.79589858039526L459.1319714313216,272.95715127603796L459.4270351297551,273.10015610847745L459.7220988281885,273.2057679216502L460.6072899234889,273.3383016319682L462.9677995109566,273.61063709639507L463.5579269078235,273.858877079875L464.1480543046904,274.0560043075762L464.7381817015573,274.2181101099902L465.0332453999908,274.34024694418883L465.91843649529113,274.5134039717958L466.50856389215807,274.69277104727615L467.098691289025,274.874749526049L468.57400978119233,275.1402609599051L470.6394556702265,275.58936295170383L470.93451936865995,275.89440239210023L471.8197104639604,276.1998253939915L472.4098378608272,276.4792810947855L474.180220051428,276.9463099910521L474.4752837498615,277.27975256334355L475.06541114672837,277.56449971668286L475.6555385435953,277.77518277662455L476.8357933373292,277.9664054631843L478.016048131063,278.1957809189986L478.60617552792996,278.4069939130896L480.0814940200972,278.7555396511223L480.3765577185307,279.00560900660406L480.6716214169641,279.1860596962628L482.7370673059984,279.5266808879286L483.0321310044318,279.77818206077046L484.80251319503253,280.1523744054496L485.98276798876645,280.44758249902077L486.27783168719986,280.620660292355L486.5728953856333,280.73896717613485L489.2284686715345,281.20162619461087L489.81859606840135,281.56274370598373L490.7037871637017,281.86558448358306L492.47416935430243,282.20653825340435L492.76923305273596,282.43337310109695L493.94948784646976,282.71641006827434L494.83467894177016,282.98501499236L495.12974264020363,283.17288407292205L495.4248063386371,283.3086236585261L496.30999743393744,283.43830301245475L499.5556981167055,283.8017614442899L500.4408892120059,284.0498042180127L501.32608030730626,284.3037936696032L501.6211440057398,284.49044150063054L501.9162077041732,284.629405630831L502.8013987994736,284.7729813629605L503.096462497907,284.9153592812224L503.3915261963405,285.04322408636045L507.8174816728424,285.6422833771963L508.70267276814275,286.09145751999574L509.2928001650097,286.4051655068485L509.58786386344315,286.6106034071341L510.1779912603101,286.797721467328L510.4730549587435,286.93384079925414L511.3582460540439,287.0829210545396L512.2434371493442,287.27442850141614L512.5385008477778,287.40032212899774L513.1286282446446,287.50968606528687L513.7187556415115,287.62630789143645L514.3088830383784,287.7535757265888L514.8990104352455,287.92680411031535L515.7842015305458,288.15168174022386L516.3743289274126,288.3674074408921L516.9644563242796,288.559972552679L517.5545837211465,288.70884565279016L518.1447111180134,288.85322004004126L518.7348385148804,288.9693934673884L521.6854754992149,289.2922895530241L522.8657302929488,289.60259159013566L524.0459850866827,289.9032575614216L524.3410487851161,290.0903897810278L524.6361124835495,290.2078682045693L525.2262398804164,290.340310478988L526.1114309757169,290.4897354210585L526.9966220710172,290.65817719868113L527.5867494678841,290.79523943019717L528.4719405631845,290.927851854045L530.2423227537853,291.2135352446919L530.8324501506522,291.41037220419213L531.4225775475192,291.5966311067815L531.7176412459526,291.74003732216545L532.6028323412529,291.945039263556L532.8978960396864,292.0914625238673L533.19295973812,292.2249487963776L534.0781508334203,292.4342772642782L536.4386604208879,292.8151086074192L537.9139789130552,293.1188259281617L538.5041063099221,293.3487757543495L540.2744885005229,293.63950169913227L541.4547432942568,293.90363843076193L541.7498069926902,294.08506379993054L542.0448706911236,294.2352424501811L542.3399343895571,294.3429816681306L544.1103165801579,294.57693605387595L544.9955076754583,294.79605809416546L547.0609535644925,295.12122928007136L547.6510809613594,295.3590842355147L548.5362720566598,295.5752876801845L548.8313357550933,295.7453457223333L549.7165268503936,295.94112129448337L550.011590548827,296.0862054102106L551.4869090409944,296.24584118543174L551.7819727394278,296.364423847311L552.0770364378614,296.45441734686796L552.9622275331617,296.6003214201023L553.847418628462,296.7487418624431L554.1424823268954,296.8537130736077L554.4375460253289,296.93785872208997L554.7326097237624,297.0119327822233L555.0276734221959,297.09065382049914L556.7980556127966,297.38227367985394L558.5684378033974,297.69833174069015L560.3388199939982,298.00298245645007L561.5190747877319,298.2635273606383L562.1092021845989,298.4407479194614L563.5845206767661,298.68631118449525L564.7647754705,298.92115846095055L566.8302213595342,299.24770058576945L567.4203487564012,299.4720525495182L568.3055398517015,299.6411198669455L568.8956672485684,299.7860605720611L569.1907309470018,299.89192126251305L570.0759220423023,300.0252251979288L570.3709857407358,300.1311880566524L570.9611131376026,300.2177091020774L571.2561768360362,300.2875829082657L572.1413679313365,300.381849703014L577.1574508047053,300.8690815967588L577.4525145031388,301.1820600052576L577.7475782015723,301.39399477447034L578.0426419000057,301.5290477825098L579.2228966937395,301.6549039872368L580.1080877890398,301.7881986955293L581.2883425827738,301.9594925181051L581.5834062812072,302.07871140694226L581.8784699796407,302.16296742386197L583.0587247733745,302.29182908110806L583.3537884718079,302.39390721759196L583.6488521702414,302.4820322818676L584.2389795671083,302.55611512646215L584.8291069639753,302.6018664763402L585.4192343608422,302.6497321372911L586.0093617577091,302.75022144251875L588.3698713451768,302.95200512908883L589.845189837344,303.18482215107036L590.1402535357776,303.3438350319747L592.7958268216787,303.5589789662673L593.0908905201121,303.7141056699777L596.3365912028802,304.0756717684611L597.8119096950475,304.40192700762276L598.6971007903478,304.67559920141906L598.9921644887812,304.8622221983562L599.8773555840817,305.0777289896198L600.4674829809486,305.2778978074162L600.762546679382,305.421032196776L603.1230562668497,305.61972938161745L603.4181199652833,305.74113205913983L603.7131836637167,305.83556298776955L604.0082473621501,305.9192194186542L604.8934384574504,305.9971068566981L605.4835658543174,306.0657353506522L605.7786295527508,306.13170351199125L606.0736932511843,306.19077913278466L608.434202838652,306.3950491142428L609.9095213308192,306.61005020685707L610.2045850292527,306.75570291752996L611.0897761245532,306.87017470542406L613.1552220135873,307.06299263997573L613.7453494104542,307.2475732369402L616.6959863947889,307.59686639887724L618.1713048869561,307.93714521912227L618.4663685853897,308.173674052321L619.0564959822566,308.3796561320756L619.35155968069,308.5257772712015L621.1219418712907,308.7074525263036L621.4170055697242,308.82431242233866L623.187387760325,308.9859323752498L623.4824514587584,309.10806944734276L626.1380247446596,309.33279861583964L627.3182795383934,309.5157744703053L627.9084069352602,309.6591633214971L629.0886617289941,309.80783259689696L631.7442350148953,310.0530443190103L632.3343624117622,310.24242238876946L633.2195535070626,310.4045765807873L633.8096809039295,310.51310511880433L634.104744602363,310.587206571435L635.5800630945301,310.6957397035561L636.4652541898306,310.798300524337L637.9405726819979,310.9561660884938L638.5307000788648,311.0814141946791L639.7109548725987,311.24157381948874L640.3010822694656,311.353453887398L640.5961459678991,311.4212701532422L640.8912096663325,311.47977147753005L641.4813370631995,311.5255846453775L642.0714644600663,311.56374751582257L643.5467829522337,311.65674694895324L644.431974047534,311.80895048759595L645.022101444401,311.94728885801L645.9072925397013,312.0908631696472L646.7924836350016,312.25323616701274L647.9727384287355,312.4315189338159L648.857929524036,312.5727427539708L650.0381843177697,312.7220131104774L650.3332480162031,312.83297014810034L650.6283117146367,312.91453570869254L652.6937576036709,313.08423610773826L653.2838850005378,313.2060373171493L653.8740123974047,313.28518489665464L654.7592034927051,313.3797719793699L655.0542671911386,313.4599388437683L656.8246493817393,313.55694034794953L657.1197130801728,313.6267513086442L658.2999678739066,313.73959987729796L659.4802226676404,313.8669452194298L660.3654137629408,313.98258873603953L660.6604774613743,314.0538749457343L660.9555411598077,314.10468095150713L661.2506048582412,314.16143680004103L661.840732255108,314.22442568613513L662.7259233504085,314.34172397810084L664.7913692394427,314.48085065606944L665.0864329378761,314.5817716729598L666.5617514300435,314.70959828648716L667.1518788269104,314.8197330175489L667.4469425253438,314.8916263659865L667.7420062237773,314.94062724980273L670.3975795096785,315.094581561533L671.5778343034123,315.23787532516377L671.8728980018457,315.3349753955345L672.1679617002792,315.40510732070874L672.4630253987126,315.45211626211767L673.0531527955795,315.52807098353577L674.5284712877469,315.63741684862566L674.8235349861803,315.70151326474564L675.4136623830473,315.76671464406627L675.7087260814807,315.82402107181974L676.0037897799141,315.8785729161453L676.8889808752145,315.9198395101054L677.4791082720815,315.967475470304L677.774171970515,315.999505652624L678.0692356689484,316.02465596313806L680.7248089548495,316.171653466452L681.6100000501499,316.3271035297107L684.265573336051,316.5693593401085L686.0359555266517,316.8034489798276L686.3310192250852,316.96683861314233L688.101401415686,317.1338894013937L688.3964651141195,317.2469642492834L688.691528812553,317.31866172242815L689.2816562094198,317.39762500630434L691.0520384000206,317.5140723498457L692.8224205906214,317.6767314529668L693.1174842890548,317.7901186885705L695.4779938765224,318.0045484775478L695.7730575749559,318.1520876569016L696.6582486702563,318.2976515599182L697.5434397655566,318.4432272103477L698.7236945592905,318.5811122611107L699.3138219561574,318.70995437317805L700.4940767498913,318.86068278545383L702.264458940492,319.0146759245382L703.444713734226,319.1705456119242L703.7397774326594,319.2795898926133L704.6249685279597,319.3806321098819L705.2150959248266,319.46464213218206L706.100287020127,319.56096472877425L707.2805418138609,319.6859724444619L707.8706692107278,319.8053601120299L708.4607966075947,319.91195005915756L708.7558603060281,319.9815145581297L709.0509240044615,320.0280633524959L711.1163698934959,320.1533764805747L711.7064972903628,320.26627460440346L712.0015609887962,320.3450998873551L713.7719431793969,320.4360375052296L714.0670068778304,320.5045291534944L714.3620705762639,320.5657248037584L714.9521979731308,320.6289538216301L715.5423253699977,320.708094969781L719.0830897511992,320.91342258890546L721.7386630371004,321.1397107917335L722.9189178308342,321.30643888145437L724.3942363230015,321.4535144246382L724.6893000214349,321.5463529050112L726.1646185136022,321.6540843145514L726.4596822120357,321.7274381846226L726.7547459104692,321.7894640505517L727.9350007042029,321.88413140443134L728.2300644026365,321.9493102092644L730.0004465932373,322.08087903802647L731.180701386971,322.19573521244257L731.4757650854044,322.27738108141733L731.7708287838379,322.3343654792202L732.3609561807049,322.40110467664346L732.6560198791384,322.4461079042323L734.1313383713057,322.5296864323193L735.016529466606,322.63597625966463L735.6066568634728,322.726538569966L736.4918479587733,322.81666366127666L737.3770390540737,322.8976543019864L738.2622301493741,322.97385249743417L738.8523575462409,323.0588376488639L740.6227397368417,323.1523266395634L740.9178034352752,323.2282962740604L741.507930832142,323.3118052422604L742.0980582290091,323.39083851944645L744.7536315149101,323.5126167192427L745.0486952133435,323.59758544490256L745.3437589117772,323.6696323528833L745.6388226102106,323.728996383952L749.7697143882789,323.91466283551426L750.9499691820129,324.0903743496375L752.1302239757467,324.2702642215023L752.4252876741801,324.3972290647405L753.3104787694804,324.5223168369331L753.605542467914,324.60373558241116L754.4907335632143,324.6781334461316L755.0808609600812,324.7398206969707L755.6709883569482,324.80028506578145L757.1463068491155,324.8952573188506L758.0314979444158,324.9863227744905L758.6216253412828,325.0546367813563L758.9166890397163,325.1203938083196L759.5068164365831,325.19002519893195L760.3920075318836,325.2439601831396L761.2771986271838,325.3141885155052L761.8673260240508,325.3680851872623L762.7525171193512,325.4175839335373L763.6377082146516,325.50397198344984L763.932771913085,325.56983862084377L764.8179630083853,325.6444506026037L765.7031541036857,325.7347304166617L768.0636636911534,325.9219202475335L768.358727389587,326.0451110948983L768.9488547864538,326.13445082237604L770.4241732786212,326.23844470521607L771.8994917707885,326.34332397334657L772.1945554692219,326.4141960456898L772.4896191676553,326.4704463875307L773.0797465645222,326.51843237918666L773.3748102629557,326.55750994712207L773.9649376598227,326.59050187077327L774.5550650566895,326.6342128471421L775.44025615199,326.69596531332746L775.7353198504234,326.74796324681154L776.9155746441572,326.80877812826674L778.3908931363246,326.9056887323768L778.9810205331914,326.9788189521537L780.7514027237922,327.09162432379117L781.0464664222256,327.1570184502499L781.3415301206591,327.20625663217834L781.6365938190927,327.2422703534042L781.9316575175261,327.2736109867196L782.8168486128263,327.31541854256045L783.4069760096934,327.35921232575765L784.2921671049937,327.396268295319L784.5872308034271,327.42387302510826L785.4724218987276,327.4559059662863L786.0625492955944,327.50433041344024L786.6526766924615,327.57454393491486L786.9477403908949,327.6246390013873L787.2428040893283,327.66097983564975L788.4230588830621,327.71819800595733L789.6033136767959,327.7868279524605L789.8983773752295,327.8334518754909L790.1934410736629,327.86444843517705L791.3736958673967,327.9150563187837L791.6687595658302,327.9542707260313L792.2588869626971,327.98817511181284L792.5539506611306,328.00376001325196L793.1440780579974,328.0276459689706L793.439141756431,328.04560568558486L793.7342054548644,328.06058567322134L794.3243328517312,328.0849540006165L794.6193965501648,328.11231464208623L795.2095239470317,328.16653852314823L796.094715042332,328.2286291274895L796.6848424391991,328.3021499605101L796.9799061376325,328.3561818785921L798.7502883282332,328.44232747138165L799.0453520266667,328.51414541119095L799.3404157251001,328.567821376322L800.520670518834,328.6199181568932L801.1107979157008,328.66213546186117L801.7009253125678,328.70651172637633L802.8811801063016,328.7802135779746L804.9466259953359,328.9197164615587L805.8318170906362,329.03293706387524L806.4219444875032,329.10573936590885L807.0120718843701,329.1700525386733L807.3071355828035,329.2167869329019L808.4873903765374,329.24744581709706L809.0775177734042,329.28847776879354L809.3725814718376,329.3207646650954L809.6676451702712,329.35720777760605L810.5528362655716,329.3874146340798L810.847899964005,329.4093838316674L811.7330910593055,329.46441242850085L812.0281547577389,329.5121815419764L812.9133458530392,329.57143162341373L813.7985369483397,329.622167508692L814.9787917420736,329.70820565869775L816.7491739326742,329.80460806435906L817.0442376311076,329.88614838941373L817.929428726408,329.99793297035916L818.2244924248416,330.0787158559462L818.8146198217084,330.14552080161144L819.4047472185753,330.20582412163725L819.6998109170089,330.24496847385996L820.2899383138757,330.2681932604278L820.5850020123091,330.28641457781987L821.1751294091761,330.31494947322386L821.4701931076096,330.3383018398921L821.7652568060431,330.3524179897993L822.0603205044765,330.3618003260702L822.6504479013433,330.38379751604833L823.2405752982104,330.41622872925956L823.5356389966438,330.4412605843438L824.7158937903777,330.4849008846491L825.0109574888111,330.5252161214774L825.601084885678,330.56482300192573L826.4862759809785,330.6363963324281L827.0764033778453,330.70679452759964L827.9615944731457,330.7691266253001L831.5023588543472,330.9019871935277L832.682613648081,331.020423676971L833.5678047433814,331.13154475620297L835.0431232355487,331.2462435464958L835.6332506324156,331.33010652364317L836.5184417277161,331.4142969539173L838.2888239183168,331.5109896200597L838.5838876167502,331.57893211872243L839.1740150136171,331.6386163274253L840.0592061089176,331.70042979224394L840.9443972042178,331.76768756486183L841.2394609026514,331.8170415196682L841.5345246010849,331.8577627433291L844.1900978869859,331.98004313285554L844.4851615854195,332.069891365401L844.7802252838529,332.1310491105869L845.0752889822863,332.17321963565735L845.6654163791532,332.22605843535314L846.2555437760202,332.2750870339584L847.1407348713205,332.3270286036872L848.6160533634878,332.3911385817686L849.2061807603546,332.44437148540806L849.5012444587883,332.48236312003525L849.7963081572217,332.51173364278674L850.0913718556551,332.53458497104583L852.4518814431227,332.59586558759173L855.107454729024,332.717382893852L856.5827732211912,332.85782910576705L858.9432828086589,333.04637041606924L859.2383465070923,333.16528526992835L860.1235376023927,333.2381078816398L861.3037923961266,333.3043108978171L862.1889834914269,333.3565554120359L863.3692382851608,333.4084665857431L864.254429380461,333.46822699651466L865.1396204757615,333.54933404321383L865.434684174195,333.60857599177126L865.7297478726284,333.65034510962397L866.3198752694955,333.6963376001837L868.680384856963,333.7680393464939L869.27051225383,333.82315669845957L869.860639650697,333.87557970018474L870.4507670475638,333.92216697268253L871.926085539731,333.9819497469938L873.4014040318984,334.06280090634345L875.761913619366,334.16304817567357L876.0569773177996,334.22666758559524L876.352041016233,334.2673377878846L877.5322958099669,334.32692915778057L878.4174869052672,334.40136671868686L879.3026780005677,334.47757539915466L881.6631875880353,334.60212482335356L882.2533149849021,334.6851879861327L883.433569778636,334.76542747946235L883.7286334770695,334.81211243747924L884.0236971755029,334.8443574927876L884.3187608739364,334.8693674216213L884.9088882708033,334.89778628763764L885.4990156676702,334.91619909602946L886.3842067629706,334.94149752903127L887.269397858271,334.9846619159416L887.5644615567045,335.0173156270452L888.1545889535714,335.04803914660727L888.7447163504382,335.0892146094303L890.8101622394726,335.17525420868765L891.9904170332063,335.2541077438842L892.5805444300734,335.3120948347389L893.1706718269402,335.3574124448365L893.760799223807,335.40363393101427L894.0558629222406,335.4423036172234L894.6459903191075,335.48755107422846L895.5311814144078,335.52633952944785L896.1213088112748,335.5490141459719L897.0064999065751,335.56803494818445L897.5966273034421,335.58886564037283L898.4818183987425,335.62519759008046L898.7768820971759,335.65245767644865L899.0719457956094,335.6749254663739L902.022582779944,335.7641483047185L902.3176464783774,335.828117594819L902.9077738752444,335.8702170805535L903.2028375736778,335.9048201757792L903.4979012721112,335.93149927262147L903.7929649705446,335.9513443337226L904.6781560658451,335.9833445509808L904.9732197642785,336.0010485398169L905.5633471611454,336.0133690537424L906.4485382564459,336.058052689454L907.0386656533127,336.113790767147L907.6287930501798,336.16290569617223L908.2189204470466,336.20073060397L910.8744937329478,336.28753521272944L911.1695574313812,336.3577586939006L912.0547485266815,336.43414694267636L912.6448759235485,336.4841990110249L913.2350033204153,336.5268651671602L913.8251307172823,336.5619653594859L914.4152581141493,336.58163406326884L914.7103218125827,336.5938018402107L915.5955129078832,336.6166100132182L917.3658950984839,336.6496475075685L917.6609587969173,336.67436986765273L918.841213590651,336.71528851108366L919.7264046859515,336.770211369974L920.6115957812519,336.817909559976L921.2017231781189,336.86396600337883L921.4967868765523,336.8930436459862L922.6770416702861,336.91585389889553L923.85729646402,336.95226644031186L924.7424875593204,336.9854173143362L925.0375512577538,337.02165318484373L925.3326149561872,337.05266330385723L925.6276786546208,337.0777701101645L926.512869749921,337.1082893358382L927.6931245436549,337.1493497030359L928.2832519405218,337.1902040974183L929.4635067342557,337.23552058186675L929.7585704326891,337.2735126143016L930.3486978295559,337.3034444288072L930.6437615279896,337.3266923777795L932.1190800201568,337.3785084890039L933.0042711154572,337.42233032006357L933.2993348138906,337.4513463962636L933.8894622107576,337.48969454253927L934.4795896076245,337.52352801419323L935.0697170044913,337.5554980010323L935.3647807029248,337.5748370879952L936.2499717982253,337.59018089397L936.5450354966587,337.6058879124541L937.1351628935257,337.63154525902354L938.020353988826,337.6547345642782L938.3154176872594,337.6706828998966L938.9055450841264,337.6785088963982L940.6759272747272,337.714331718598L941.5611183700274,337.7540932998624L942.4463094653279,337.7997415498424L942.7413731637613,337.8311177169781L943.9216279574953,337.8772554806853L945.692010148096,337.9231461811935L949.5278382277309,337.9802817614479L950.7080930214647,338.03577839633726L951.2982204183317,338.0760184739181L952.7735389104989,338.1361970889471L953.6587300057994,338.18919569571176L954.2488574026662,338.239172979224L955.4291121964002,338.3005184755656L956.9044306885672,338.36973967937547L958.0846854823012,338.42847802912763L959.2649402760351,338.47839070657085L960.1501313713353,338.5183474997975L962.8057046572366,338.59357190346026L964.5760868478372,338.69645012757616L967.5267238321719,338.8085521469839L967.8217875306053,338.8752448248514L968.1168512290387,338.91710068564004L969.0020423243392,338.95031580843755L969.2971060227727,338.97676805913807L970.77242451494,339.01732574461863L971.3625519118068,339.046395643814L972.5428067055407,339.0693059805825L972.8378704039742,339.0880118917784L973.1329341024076,339.10737444835826L973.427997800841,339.1226874518576L973.7230614992746,339.13730624767044L974.0181251977081,339.14796266347184L974.3131888961415,339.15857563203576L976.6736984836091,339.19368429175034L977.5588895789095,339.2311920828708L979.3292717695102,339.2719796069028L980.5095265632441,339.30601994633486L983.4601635475788,339.36253856413526L983.7552272460122,339.39966643908093L984.0502909444457,339.4270599680426L986.1157368334798,339.4833682568958L987.5910553256472,339.5318079363844L988.4762464209476,339.57842148409316L989.0663738178145,339.6204982272408L989.3614375162479,339.65619482163817L989.6565012146813,339.68634276403884L989.9515649131147,339.7106779203202L991.1318197068487,339.7347495899031L993.4923292943164,339.77910794132134L993.7873929927498,339.8054386852838L994.6725840880501,339.8342236400444L995.2627114849171,339.8565291291116L995.5577751833506,339.8657007841765L996.1479025802174,339.8769863641856L997.6232210723847,339.9083467980526L999.6886669614189,339.9658158745112L1000.278794358286,340.0223429656659L1001.1639854535862,340.0716844394176L1001.7541128504532,340.1069971035629L1003.2294313426205,340.1366977472921L1004.1146224379208,340.16933741527333L1004.9998135332213,340.2019077244454L1007.6553868191223,340.2398449699223L1007.9504505175557,340.2700880248025L1008.8356416128562,340.29613348494985L1009.7208327081565,340.3389755752653L1010.3109601050236,340.37558770112673L1010.606023803457,340.40020314713183L1012.3764059940577,340.44551614384136L1013.2615970893581,340.48497978302885L1013.5566607877915,340.50677282822767L1014.1467881846585,340.52945388389765L1015.0319792799589,340.5508948181506L1015.6221066768258,340.5704695734142L1016.2122340736926,340.5922909397015L1017.097425168993,340.6213101859416L1017.3924888674266,340.64433974508876L1017.68755256586,340.6638652604713L1019.752998454894,340.69551665543895L1021.2283169470614,340.75852397590273L1021.8184443439285,340.8043402060142L1022.1135080423619,340.8328024360684L1022.4085717407953,340.84938604739966L1023.5888265345292,340.87456693485984L1023.8838902329626,340.8966325253984L1025.35920872513,340.92566365345255L1025.6542724235633,340.9443764926988L1026.8345272172974,340.9747248848568L1027.7197183125975,341.0024418995037L1028.014782011031,341.02181752797884L1028.604909407898,341.037826599714L1030.6703552969323,341.05881019900556L1030.9654189953656,341.07574664969275L1032.440737487533,341.09466094799L1035.9815018687343,341.15738702672417L1037.4568203609017,341.21156999916263L1038.0469477577687,341.25871204667965L1038.3420114562023,341.2930790904638L1039.2272025515024,341.32043195356886L1039.522266249936,341.3381677566761L1042.1778395358372,341.3698898725404L1043.9482217264379,341.41237516036625L1045.1284765201717,341.43775412244787L1045.4235402186052,341.45702108179756" fill="none"></path></g></g></g></g><g opacity="0.2"><g><g><g><path style="fill: none;" stroke="rgb(255, 112, 67)" stroke-width="2px" d="M162.00282710882817,54.91991227583118L162.29789080726164,55.435968889205164L163.7732092994289,58.04090088759739L164.6584003947293,59.46717259747467L164.95346409316278,60.00499806994725L165.83865518846315,61.61574402909323L166.42878258533005,62.5375168188293L167.6090373790639,64.50254908962845L171.1498017602654,70.14924900636616L172.33005655399924,71.91847375589157L172.92018395086617,72.9067874396765L173.5103113477331,73.89581179068288L173.80537504616655,74.37813041280782L174.39550244303348,75.43320941186946L176.16588463363422,78.17193386558084L176.4609483320677,78.66797958614082L176.75601203050113,79.00951129134613L177.0510757289346,79.46950000130289L177.34613942736806,79.97014635703317L179.70664901483573,83.42036091001255L180.5918401101361,84.53521076275047L181.47703120543648,85.80610817589975L181.77209490386994,86.2681166769069L182.0671586023034,86.6469023059305L182.36222230073685,87.13453223044715L183.83754079290415,89.24487724626026L186.19805038037182,92.33194084908757L186.4931140788053,92.67549234534327L188.26349626940603,95.40093854307531L190.6240058568737,98.56516564473498L191.50919695217408,99.8683797146905L191.80426065060757,100.23025894455161L193.86970653964178,102.90595843678331L194.75489763494215,103.92703761983012L195.3450250318091,104.61601078924002L197.70553461927673,107.90561455017563L198.5907257145771,109.04473929905615L198.88578941301057,109.31853319699755L201.54136269891174,112.46132807140037L202.13149009577864,113.14510214903243L202.4265537942121,113.4367375345856L202.72161749264555,113.86037000563536L204.78706338167976,116.37134431664661L206.26238187384706,117.92187057966066L206.85250927071397,118.58570857155468L207.14757296914743,118.93509501973375L208.32782776288127,120.30118443701706L209.8031462550486,122.03756888020473L210.098209953482,122.4462025325285L210.98340104878238,123.63226872156153L212.75378323938318,125.6910716620518L213.04884693781662,125.96419229630973L213.63897433468355,126.72475583739453L214.52416542998392,127.77351363853917L215.11429282685083,128.35360510891806L215.4093565252843,128.82350575643687L215.9994839221512,129.54217733499507L216.58961131901813,130.16285164407154L216.8846750174516,130.46555847686386L218.95012090648584,132.59546554303537L221.31063049395348,135.02733137123977L221.60569419238695,135.32409104149482L221.90075789082042,135.58187622518503L223.08101268455425,136.58249567296212L226.03164966888883,139.00306563269953L226.32671336732227,139.28441504531094L226.9168407641892,139.93411449985223L228.09709555792307,141.12186384809394L228.98228665322344,141.9975180755128L229.2773503516569,142.33785286750307L229.57241405009034,142.53238866848577L230.45760514539072,143.40531243763283L233.99836952659223,146.39991449459794L235.76875171719297,148.28168648987557L236.65394281249334,149.06686155894465L237.2440702093603,149.6440729568998L237.53913390779377,149.84560321948294L238.12926130466067,150.32635089301309L239.3095160983945,151.42956824544228L240.48977089212835,152.37404498272625L241.07989828899525,152.87192347664674L242.55521678116256,154.31506418214852L246.686108559231,157.5388003127187L248.16142705139828,158.67710218376388L248.45649074983174,158.89097561387715L249.63674554356558,159.9212934708025L249.93180924199905,160.19067375126346L251.11206403573286,161.1589391386964L251.40712773416632,161.37221411220213L251.99725513103326,161.93629686832978L252.88244622633363,162.80619095090125L254.3577647185009,163.91142809438082L254.6528284169344,164.1869051515309L254.94789211536786,164.48946237017134L256.4232106075351,165.69617531216392L256.7182743059686,165.93507170917917L257.01333800440204,166.09366271017254L257.89852909970244,166.82860482774777L260.5541023856036,168.8570360954063L261.1442297824705,169.20668436835112L262.91461197307126,170.62521354586855L264.684994163672,171.8941285715055L264.98005786210547,172.10044648694875L266.7504400527062,173.5974108835896L267.63563114800655,174.35236389397883L268.8158859417404,175.4277904176962L269.9961407354743,176.4255671965876L270.58626813234116,177.0318037400076L271.766522926075,178.2617442790796L272.0615866245085,178.4393736808998L272.35665032294196,178.71219508685397L272.94677771980884,179.20117153873755L274.42209621197617,180.4580426251481L275.89741470414344,181.5245297032906L276.1924784025769,181.6499063625665L276.4875421010104,181.7698221052988L280.91349757751226,184.98005555866175L282.97894346654647,186.32269295763777L284.7493256571472,187.41738230340977L285.0443893555807,187.64083103924338L285.6345167524476,188.17828247633628L286.2246441493145,188.61478176444777L287.40489894304835,189.53187911193757L290.0604722289495,191.28546918259153L290.6505996258164,191.6825451416825L290.9456633242499,191.91571879738834L291.83085441955023,192.75815868308973L293.601236610151,193.88800735455368L295.9617461976187,195.5487992475037L296.2568098960522,195.78758343390507L297.1420009913525,196.28071167850334L297.437064689786,196.39273527472392L300.0926379756871,198.22707958385539L300.3877016741206,198.49866667305653L303.6334023568886,200.87622256412828L304.518593452189,201.3804596595037L304.8136571506224,201.68743049562462L305.4037845474894,202.07975620539338L305.9939119443563,202.49650642545666L310.1248037224247,205.1636031039553L311.60012221459203,205.93785633993713L312.1902496114589,206.42144668235304L313.0754407067593,206.93017220228487L313.66556810362624,207.3895624556341L315.1408865957935,208.3612689685603L315.435950294227,208.51956074124988L317.2063324848277,209.66519370573724L317.79645988169466,210.0761837809531L318.0915235801281,210.261667925747L318.68165097699506,210.58662986363154L318.9767146754285,210.69700770418143L319.86190577072887,211.3556092007596L320.4520331675958,211.81193236399528L321.92735165976313,212.81187854808894L322.22241535819654,213.02062769350024L324.8779886440977,214.74607160183166L325.4681160409646,215.32145022642632L326.6483708346984,216.19916164843352L326.9434345331319,216.47910842837106L327.23849823156536,216.7277671487965L328.41875302529917,217.60145769047196L329.59900781903303,218.18874934191004L329.8940715174665,218.30563539806676L330.77926261276684,218.92604788237742L331.3693900096338,219.30487091493896L331.66445370806724,219.48109768408523L331.9595174065007,219.67092063928374L332.2545811049342,219.79852280906883L332.5496448033676,219.95404671994868L332.8447085018011,220.15860666910737L333.434835898668,220.5301547135337L333.72989959710145,220.6605995522046L335.2052180892688,221.76407872939959L335.5002817877022,221.8848921570431L336.68053658143606,222.41845362618713L337.5657276767364,222.8565051611244L338.15585507360333,223.14636387862396L339.9262372642041,223.9653330442491L340.51636466107107,224.35580727888834L341.99168315323834,225.18293041579096L343.17193794697215,225.63369915363808L343.4670016454056,225.81821080644474L344.05712904227255,226.11175377243438L347.59789342347403,228.27912048188296L349.6633393125083,229.0532615072509L349.9584030109417,229.23698768576023L350.54853040780864,229.59471512290662L350.8435941062421,229.86519880773764L351.1386578046756,230.01587896045035L351.43372150310904,230.12116991983632L352.0238488999759,230.42428819154625L352.9090399952763,230.9976657268595L354.0892947890101,231.76737443297796L354.3843584874436,231.89215263564634L355.56461328117746,232.4858776956153L356.4498043764778,233.0630703918015L357.63005917021167,233.56280036085147L358.515250265512,233.83981096305834L358.81031396394553,234.00150645770321L359.105377662379,234.16583890177506L359.4004413608124,234.34148591608283L359.6955050592459,234.53617133121736L360.2856324561128,234.61282988228717L360.5806961545463,234.73014607913052L360.87575985297974,234.89356213652204L361.7609509482801,235.2214041468303L362.05601464671355,235.31652134388833L362.351078345147,235.42949873032717L362.94120574201395,235.72908236769894L363.5313331388808,236.096048478724L363.8263968373143,236.2376769752479L365.8918427263485,237.28200245714308L366.7770338216489,237.6280973939808L367.95728861538277,238.2874282595494L368.8424797106831,238.53907926301247L369.43260710755004,238.7573663106062L370.022734504417,239.0797661061398L371.2029892981508,239.67906429326632L372.38324409188465,240.1484225894846L373.268435187185,240.50564507886838L373.56349888561846,240.69120403073822L373.858562584052,240.86875862548249L374.1536262824854,240.9541322008993L375.92400847308613,241.79674040252158L377.6943906636869,242.44292392449367L378.2845180605538,242.69530429694714L378.5795817589872,242.8425620259356L379.75983655272114,243.32650770196219L380.6450276480215,243.69597985003122L380.94009134645495,243.82260952782914L381.8252824417553,244.24274476807867L382.1203461401888,244.34025579156682L382.4154098386222,244.45581402212557L383.0055372354892,244.82167672878046L383.59566463235603,245.21574170306485L385.3660468229569,245.94211841044492L386.25123791825723,246.3050075358312L386.5463016166907,246.39881560906028L387.43149271199104,246.81036673734567L387.72655641042445,246.89011108029806L388.021620108858,246.9852282773561L388.61174750572485,247.219617548046L388.9068112041584,247.3838938868108L390.6771933947591,248.0854533467477L391.8574481884929,248.53106039635492L392.1525118869264,248.66582534366134L392.74263928379327,248.8808021781447L393.3327666806602,249.12794605528237L393.9228940775272,249.31692743087646L394.2179577759606,249.5323157042775L394.5130214743941,249.7623287610249L394.80808517282753,249.87487600677701L395.10314887126094,250.00098203504334L395.98833996656134,250.3869304415882L396.5784673634283,250.58760042279795L397.1685947602952,250.89075609804598L398.0537858555956,251.3504642814679L398.64391325246254,251.49345800712777L398.93897695089595,251.6790169589976L399.2340406493294,251.77460170028027L401.00442283993016,252.44992257833113L401.2994865383636,252.5598328746564L401.8896139352305,252.714328188242L402.77480503053096,253.04179616317055L403.9550598242647,253.48654293140444L404.84025091956516,253.84011857583621L405.7254420148655,254.24125281879694L406.0205057132989,254.33867033344018L406.6106331101659,254.69490162906772L407.2007605070327,254.92586847603334L407.79088790389966,255.0216028314679L409.266206396067,255.52544718969466L410.1513974913674,255.84809010822505L410.7415248882343,256.1243713414415L415.16748036473615,257.9712084322549L416.34773515846996,258.5905175121955L416.9378625553369,258.8269826792427L417.2329262537704,258.9339193942993L418.4131810475042,259.2096395744462L419.00330844437116,259.27967769929523L419.2983721428046,259.36991373464826L420.18356323810497,259.81653067978067L420.7736906349719,260.1457379192248L421.3638180318388,260.3911986371538L422.24900912713923,260.7867036476501L422.8391365240061,260.89178888757715L423.13420022243963,261.0120225603822L423.72432761930645,261.2194064766576L424.9045824130404,261.7893615882465L426.0848372067741,262.14493832195967L428.1502830958084,262.7476402310415L428.44534679424186,262.83639882664465L428.74041049267527,262.92953363619023L429.0354741911088,263.0644107941106L429.6256015879756,263.29764055512334L430.51079268327607,263.6079216043546L430.80585638170953,263.72333022076145L431.10092008014294,263.87040093206L431.98611117544334,264.2958661764704L432.2811748738768,264.44134723740524L432.5762385723103,264.55208041156584L432.8713022707437,264.66040105752734L435.23181185821136,265.42186228352335L435.5268755566449,265.5453500641318L436.4120666519453,265.87057382678216L438.47751254097943,266.6599380921039L439.36270363627983,266.9586427463334L441.7232132237475,267.7473337479717L442.0182769221809,267.77574173506L442.60840431904785,268.02466228025133L442.9034680174814,268.13494661195625L443.19853171591484,268.20433017489086L444.0837228112152,268.4350164953217L444.3787865096486,268.5589157148478L444.9689139065156,268.8270616785557L445.5590413033825,269.01536979046637L447.0343597955498,269.61930601630115L447.32942349398326,269.70699861107215L448.50967828771707,269.94366949757824L448.80474198615053,270.03764588672817L449.099805684584,270.1075530991944L449.3948693830174,270.1258995345687L450.2800604783178,270.45540600231664L450.5751241767513,270.50629351572496L450.87018787518474,270.5968848846887L451.7553789704851,270.80782213707124L452.0504426689186,270.9693306140263L454.4109522563862,271.8684368597525L455.5912070501201,272.13699426237804L456.181334446987,272.34106796554306L456.7714618438539,272.5098140270954L457.0665255422874,272.57919759003L457.95171663758777,272.9721778617132L458.83690773288816,273.1276830708241L459.1319714313216,273.19903031950207L459.4270351297551,273.3146633571368L459.7220988281885,273.3641856414093L460.6072899234889,273.5371021974452L462.9677995109566,274.0191402930353L463.5579269078235,274.231237055095L464.1480543046904,274.35169514912786L464.7381817015573,274.46126881361135L465.0332453999908,274.5234521954867L465.91843649529113,274.7731395132064L466.50856389215807,274.96182166049675L467.098691289025,275.1477172442083L468.57400978119233,275.5385281106893L470.6394556702265,276.26301593940184L470.93451936865995,276.35196155269483L471.8197104639604,276.6579598968285L472.4098378608272,276.8984646459765L474.180220051428,277.646853335452L474.4752837498615,277.77991642178074L475.06541114672837,277.99162044669174L475.6555385435953,278.0912073665372L476.8357933373292,278.25323949302384L478.016048131063,278.53984410272005L478.60617552792996,278.7238134042261L480.0814940200972,279.2783582581714L480.3765577185307,279.38071303982673L480.6716214169641,279.456735730751L482.7370673059984,280.0376126754272L483.0321310044318,280.1554338200332L484.80251319503253,280.7136629224685L485.98276798876645,280.8903946393774L486.27783168719986,280.88027698235646L486.5728953856333,280.9164275018046L489.2284686715345,281.89561472232475L489.81859606840135,282.10441997304315L490.7037871637017,282.3198456499821L492.47416935430243,282.71796890813624L492.76923305273596,282.7736253726358L493.94948784646976,283.14096551904055L494.83467894177016,283.3879223784884L495.12974264020363,283.45468769376504L495.4248063386371,283.5122330369321L496.30999743393744,283.63282204334786L499.5556981167055,284.3469490920427L500.4408892120059,284.42186837859686L501.32608030730626,284.68477784698894L501.6211440057398,284.7704132471716L501.9162077041732,284.8378518261317L502.8013987994736,284.98834496115455L503.096462497907,285.12892615861534L503.3915261963405,285.2350212940676L507.8174816728424,286.54087231345005L508.70267276814275,286.76521873419495L509.2928001650097,286.8757274871277L509.58786386344315,286.9187602575623L510.1779912603101,287.07839855761887L510.4730549587435,287.1380197971433L511.3582460540439,287.30654143746773L512.2434371493442,287.561689671731L512.5385008477778,287.5891625703701L513.1286282446446,287.6737319697206L513.7187556415115,287.8012406306608L514.3088830383784,287.9444774793174L514.8990104352455,288.1866466859051L515.7842015305458,288.48899818508664L516.3743289274126,288.6909959918944L516.9644563242796,288.8488202203594L517.5545837211465,288.93215530295686L518.1447111180134,289.069781620918L518.7348385148804,289.143653608409L521.6854754992149,289.7766336814776L522.8657302929488,290.06804464580296L524.0459850866827,290.3542565183505L524.3410487851161,290.37108811043703L524.6361124835495,290.38408583988166L525.2262398804164,290.538973890616L526.1114309757169,290.71387283416436L526.9966220710172,290.91083986511507L527.5867494678841,291.00083277747126L528.4719405631845,291.1267704898167L530.2423227537853,291.6420603306623L530.8324501506522,291.70562764344254L531.4225775475192,291.8760194606655L531.7176412459526,291.9551466452413L532.6028323412529,292.25254217564185L532.8978960396864,292.31109741433414L533.19295973812,292.4251782051431L534.0781508334203,292.7482699661291L536.4386604208879,293.3863556221307L537.9139789130552,293.5744019092755L538.5041063099221,293.69370049363124L540.2744885005229,294.0755906163064L541.4547432942568,294.29984352820634L541.7498069926902,294.35720185368353L542.0448706911236,294.46051042555706L542.3399343895571,294.50459049505486L544.1103165801579,294.9278676324939L544.9955076754583,295.1247411545997L547.0609535644925,295.6089860589301L547.6510809613594,295.7158666686798L548.5362720566598,295.89959284718907L548.8313357550933,296.0004327855566L549.7165268503936,296.23478465270847L550.011590548827,296.30383158380135L551.4869090409944,296.48529484826344L551.7819727394278,296.54229784012995L552.0770364378614,296.58940759620333L552.9622275331617,296.8191775299539L553.847418628462,296.9713725259544L554.1424823268954,297.0111698903546L554.4375460253289,297.06407719481336L554.7326097237624,297.1230438724233L555.0276734221959,297.2087353779129L556.7980556127966,297.8197034688861L558.5684378033974,298.17241883194447L560.3388199939982,298.4599585300899L561.5190747877319,298.6543447169207L562.1092021845989,298.706578757696L563.5845206767661,299.0546560820461L564.7647754705,299.27342937563344L566.8302213595342,299.7375137729979L567.4203487564012,299.8085804951412L568.3055398517015,299.8947208430864L568.8956672485684,300.0034716297346L569.1907309470018,300.0507122981909L570.0759220423023,300.22518110105256L570.3709857407358,300.2901323447377L570.9611131376026,300.34749067021494L571.2561768360362,300.39239361754807L572.1413679313365,300.5232498951366L577.1574508047053,301.5999294373759L577.4525145031388,301.6515276180058L577.7475782015723,301.7118969282896L578.0426419000057,301.73162729456885L579.2228966937395,301.84368829432736L580.1080877890398,301.988140757968L581.2883425827738,302.2164332519688L581.5834062812072,302.25753974019796L581.8784699796407,302.2893514492415L583.0587247733745,302.4851215669773L583.3537884718079,302.5470244223178L583.6488521702414,302.6142198782812L584.2389795671083,302.66723939335384L584.8291069639753,302.67049350115724L585.4192343608422,302.72153062871746L586.0093617577091,302.9009554003602L588.3698713451768,303.25468065894387L589.845189837344,303.5340476840428L590.1402535357776,303.5823543533312L592.7958268216787,303.88169486770624L593.0908905201121,303.9467957255432L596.3365912028802,304.6180209161863L597.8119096950475,304.8913098663652L598.6971007903478,305.0861074921136L598.9921644887812,305.1421566937619L599.8773555840817,305.4009891765152L600.4674829809486,305.57815103411076L600.762546679382,305.6357337808158L603.1230562668497,305.91777515887964L603.4181199652833,305.92323607542323L603.7131836637167,305.97720938071416L604.0082473621501,306.0447040649813L604.8934384574504,306.113938013764L605.4835658543174,306.1686780915833L605.7786295527508,306.2306557539998L606.0736932511843,306.2793925639749L608.434202838652,306.7014540864299L609.9095213308192,306.93255184577845L610.2045850292527,306.97418198353915L611.0897761245532,307.0418823872651L613.1552220135873,307.3522195418034L613.7453494104542,307.52444413238686L616.6959863947889,308.12080614178274L618.1713048869561,308.44756344948985L618.4663685853897,308.5284673021193L619.0564959822566,308.6886292517074L619.35155968069,308.7449589798904L621.1219418712907,308.9799654089568L621.4170055697242,308.9996022663911L623.187387760325,309.22836230461644L623.4824514587584,309.29127505548223L626.1380247446596,309.66989236858495L627.3182795383934,309.79023825200386L627.9084069352602,309.8742465982848L629.0886617289941,310.0308365099968L631.7442350148953,310.4208619021804L632.3343624117622,310.52648949340806L633.2195535070626,310.6478078688142L633.8096809039295,310.67589792582976L634.104744602363,310.69835875038086L635.5800630945301,310.85853940173797L636.4652541898306,310.9521417555082L637.9405726819979,311.19296443472894L638.5307000788648,311.269286353957L639.7109548725987,311.48181325670333L640.3010822694656,311.52127398926183L640.5961459678991,311.5229945520084L640.8912096663325,311.5675234639619L641.4813370631995,311.5943043971485L642.0714644600663,311.6209918214902L643.5467829522337,311.7962460986493L644.431974047534,312.0372557955599L645.022101444401,312.154796413631L645.9072925397013,312.3062246371031L646.7924836350016,312.496795663061L647.9727384287355,312.6989430840206L648.857929524036,312.7845784842032L650.0381843177697,312.9459186452374L650.3332480162031,312.9994057045347L650.6283117146367,313.03688404958075L652.6937576036709,313.33878670630673L653.2838850005378,313.3887391312659L653.8740123974047,313.4039062659127L654.7592034927051,313.5216526034427L655.0542671911386,313.580189140366L656.8246493817393,313.7024426042214L657.1197130801728,313.7314677496862L658.2999678739066,313.9088727302786L659.4802226676404,314.0579632326275L660.3654137629408,314.1560540109542L660.6604774613743,314.1608042602764L660.9555411598077,314.1808899601664L661.2506048582412,314.24657057284196L661.840732255108,314.3189090152762L662.7259233504085,314.5176714160495L664.7913692394427,314.68954067302224L665.0864329378761,314.73315319829544L666.5617514300435,314.9013382067782L667.1518788269104,314.9849351141414L667.4469425253438,314.9994663886428L667.7420062237773,315.01412857552714L670.3975795096785,315.3255130291285L671.5778343034123,315.4528159706099L671.8728980018457,315.4806255010907L672.1679617002792,315.51030520846996L672.4630253987126,315.52262967423115L673.0531527955795,315.64200306566283L674.5284712877469,315.80143564626053L674.8235349861803,315.7976578889255L675.4136623830473,315.8645167130472L675.7087260814807,315.9099807134499L676.0037897799141,315.96040068263363L676.8889808752145,315.9817394010456L677.4791082720815,316.03892941060195L677.774171970515,316.04755092610407L678.0692356689484,316.06238142890925L680.7248089548495,316.3921497214229L681.6100000501499,316.5602786245987L684.265573336051,316.9327430557053L686.0359555266517,317.1545834394062L686.3310192250852,317.21192306311445L688.101401415686,317.38446558377063L688.3964651141195,317.41657652111803L688.691528812553,317.4262079321453L689.2816562094198,317.5160699321186L691.0520384000206,317.68874336515773L692.8224205906214,317.9207201076485L693.1174842890548,317.960199541976L695.4779938765224,318.3261931610138L695.7730575749559,318.3733964259321L696.6582486702563,318.5159974144433L697.5434397655566,318.661590685992L698.7236945592905,318.7879398372551L699.3138219561574,318.9032175412791L700.4940767498913,319.08677540386753L702.264458940492,319.24566563316466L703.444713734226,319.404350143003L703.7397774326594,319.443156313647L704.6249685279597,319.53219543578496L705.2150959248266,319.59065716563225L706.100287020127,319.7054486236626L707.2805418138609,319.8734840179934L707.8706692107278,319.9844416133819L708.4607966075947,320.0718349798491L708.7558603060281,320.0858613065879L709.0509240044615,320.0978865440453L711.1163698934959,320.3413461726929L711.7064972903628,320.4356217901466L712.0015609887962,320.4633378117825L713.7719431793969,320.5724439320414L714.0670068778304,320.6072666258916L714.3620705762639,320.6575182791545L714.9521979731308,320.7237973484376L715.5423253699977,320.8268066920073L719.0830897511992,321.2214140175922L721.7386630371004,321.4791430959755L722.9189178308342,321.5565310160357L724.3942363230015,321.67412773941385L724.6893000214349,321.68561062557063L726.1646185136022,321.8156814288618L726.4596822120357,321.8374689897294L726.7547459104692,321.8825028494455L727.9350007042029,322.02613243525076L728.2300644026365,322.04707841651407L730.0004465932373,322.2782322811695L731.180701386971,322.36801947406684L731.4757650854044,322.3998498848794L731.7708287838379,322.4198420759244L732.3609561807049,322.5012134727785L732.6560198791384,322.5136127456156L734.1313383713057,322.65505422444966L735.016529466606,322.79541100068263L735.6066568634728,322.86238203541814L736.4918479587733,322.95185129824273L737.3770390540737,323.019140263051L738.2622301493741,323.0881497906059L738.8523575462409,323.1863153760085L740.6227397368417,323.2925601256127L740.9178034352752,323.34225072580597L741.507930832142,323.4370686945603L742.0980582290091,323.50938843522556L744.7536315149101,323.6952840189371L745.0486952133435,323.7250385333924L745.3437589117772,323.77770271485434L745.6388226102106,323.8180424305551L749.7697143882789,324.19316251285767L750.9499691820129,324.3539416208223L752.1302239757467,324.54009902929965L752.4252876741801,324.5876763295976L753.3104787694804,324.709948495222L753.605542467914,324.72586370062834L754.4907335632143,324.78973024171233L755.0808609600812,324.8323515732293L755.6709883569482,324.8909816189975L757.1463068491155,325.03771569845435L758.0314979444158,325.1229209579503L758.6216253412828,325.157107791655L758.9166890397163,325.2190293487646L759.5068164365831,325.2944722848504L760.3920075318836,325.32486265945107L761.2771986271838,325.41953101405346L761.8673260240508,325.448930194898L762.7525171193512,325.4918320529498L763.6377082146516,325.6335540583186L763.932771913085,325.6686385769346L764.8179630083853,325.7563685752436L765.7031541036857,325.87015013774874L768.0636636911534,326.2027049938412L768.358727389587,326.22989736594553L768.9488547864538,326.2684604135927L770.4241732786212,326.39443552947614L771.8994917707885,326.5006428755424L772.1945554692219,326.5205041542045L772.4896191676553,326.5548219002921L773.0797465645222,326.5904113666707L773.3748102629557,326.61612629902515L773.9649376598227,326.63998975625015L774.5550650566895,326.69977931169535L775.44025615199,326.7885940126055L775.7353198504234,326.8259601470376L776.9155746441572,326.9000004504495L778.3908931363246,327.0510546385419L778.9810205331914,327.08851428181896L780.7514027237922,327.26083238124744L781.0464664222256,327.255109639938L781.3415301206591,327.28011390507106L781.6365938190927,327.2962909352431L781.9316575175261,327.3206219366927L782.8168486128263,327.3781298763218L783.4069760096934,327.42490300055346L784.2921671049937,327.45185224966093L784.5872308034271,327.46528011979217L785.4724218987276,327.5039553780533L786.0625492955944,327.57696708417103L786.6526766924615,327.67986421712686L786.9477403908949,327.699781601096L787.2428040893283,327.7154910870434L788.4230588830621,327.80402526141876L789.6033136767959,327.8897728722153L789.8983773752295,327.9033877600364L790.1934410736629,327.91094327470637L791.3736958673967,327.9909681441935L791.6687595658302,328.01309233690284L792.2588869626971,328.0390316904851L792.5539506611306,328.0271373654106L793.1440780579974,328.0634749025486L793.439141756431,328.07254526050633L793.7342054548644,328.083055654676L794.3243328517312,328.1215064917093L794.6193965501648,328.1533556042908L795.2095239470317,328.2478743447414L796.094715042332,328.3217650340014L796.6848424391991,328.412431210041L796.9799061376325,328.4372297557152L798.7502883282332,328.57154586056595L799.0453520266667,328.6218723209048L799.3404157251001,328.64833532401866L800.520670518834,328.69806332774994L801.1107979157008,328.72546141931304L801.7009253125678,328.77307612314905L802.8811801063016,328.8907663553721L804.9466259953359,329.12897078693493L805.8318170906362,329.20276796735L806.4219444875032,329.21494281895923L807.0120718843701,329.2665222978201L807.3071355828035,329.28688852424483L808.4873903765374,329.29343414338956L809.0775177734042,329.35002569633843L809.3725814718376,329.3691950095481L809.6676451702712,329.411872446372L810.5528362655716,329.4327249187904L810.847899964005,329.44233762804873L811.7330910593055,329.5469553237512L812.0281547577389,329.58383521218974L812.9133458530392,329.6603067455697L813.7985369483397,329.69827133660937L814.9787917420736,329.83726288370644L816.7491739326742,329.94921167285105L817.0442376311076,330.00845887699575L817.929428726408,330.16560984177727L818.2244924248416,330.1998901843269L818.8146198217084,330.2457282201093L819.4047472185753,330.29627910167596L819.6998109170089,330.303685002194L820.2899383138757,330.30303044027954L820.5850020123091,330.313746553908L821.1751294091761,330.3577518163299L821.4701931076096,330.3733303898944L821.7652568060431,330.3735922146602L822.0603205044765,330.3758738304764L822.6504479013433,330.41679330101573L823.2405752982104,330.46487554907634L823.5356389966438,330.4788083669702L824.7158937903777,330.5503613351071L825.0109574888111,330.58568897671984L825.601084885678,330.6242333225981L826.4862759809785,330.7437563281817L827.0764033778453,330.8123918203569L827.9615944731457,330.8626247718508L831.5023588543472,331.1012780458692L832.682613648081,331.19807840213593L833.5678047433814,331.298226375051L835.0431232355487,331.41829173193514L835.6332506324156,331.4559009893641L836.5184417277161,331.5405825993285L838.2888239183168,331.65602861927334L838.5838876167502,331.68084586671654L839.1740150136171,331.72814264047975L840.0592061089176,331.79314998947183L840.9443972042178,331.8685742237886L841.2394609026514,331.8910724518777L841.5345246010849,331.9188445788205L844.1900978869859,332.1634637171452L844.4851615854195,332.2046637142193L844.7802252838529,332.2227857283658L845.0752889822863,332.2364754232629L845.6654163791532,332.30531663489694L846.2555437760202,332.34862993186636L847.1407348713205,332.4049409582804L848.6160533634878,332.4873035488906L849.2061807603546,332.52422084086714L849.5012444587883,332.53935057197606L849.7963081572217,332.5557894269139L850.0913718556551,332.56886196343453L852.4518814431227,332.6877865124106L855.107454729024,332.89965885324244L856.5827732211912,333.0684984236396L858.9432828086589,333.32918238152246L859.2383465070923,333.34365755071696L860.1235376023927,333.34734179920696L861.3037923961266,333.403615422083L862.1889834914269,333.43492218336405L863.3692382851608,333.48633334630404L864.254429380461,333.5578676126719L865.1396204757615,333.67099461326256L865.434684174195,333.69743891460746L865.7297478726284,333.71299878640303L866.3198752694955,333.7653263360233L868.680384856963,333.87559196595925L869.27051225383,333.90583272640805L869.860639650697,333.95421420277245L870.4507670475638,333.99204788142924L871.926085539731,334.0716239084607L873.4014040318984,334.18407764536795L875.761913619366,334.3134190796687L876.0569773177996,334.32209670047774L876.352041016233,334.32834309131874L877.5322958099669,334.4163162126245L878.4174869052672,334.5130230600463L879.3026780005677,334.59188841985633L881.6631875880353,334.78894895965203L882.2533149849021,334.8097827303014L883.433569778636,334.8857867194567L883.7286334770695,334.8821398745046L884.0236971755029,334.89272507575015L884.3187608739364,334.90688231487184L884.9088882708033,334.9404145866621L885.4990156676702,334.9438183086174L886.3842067629706,334.9794451785339L887.269397858271,335.049408496307L887.5644615567045,335.06629619370057L888.1545889535714,335.0941244259504L888.7447163504382,335.150977803665L890.8101622394726,335.30431360757353L891.9904170332063,335.3723880466792L892.5805444300734,335.39907547102086L893.1706718269402,335.4253888599829L893.760799223807,335.4729661602809L894.0558629222406,335.50030814653707L894.6459903191075,335.5554222597361L895.5311814144078,335.5845222122768L896.1213088112748,335.583026070758L897.0064999065751,335.5965661515032L897.5966273034421,335.6201116786554L898.4818183987425,335.6796955146418L898.7768820971759,335.69334780600093L899.0719457956094,335.70862715126174L902.022582779944,335.89798256223554L902.3176464783774,335.92407152996975L902.9077738752444,335.9333663091553L903.2028375736778,335.95672481861766L903.4979012721112,335.97151791788485L903.7929649705446,335.9811119253742L904.6781560658451,336.0313448768681L904.9732197642785,336.0276045230711L905.5633471611454,336.0318498246307L906.4485382564459,336.12507814302126L907.0386656533127,336.1973978836865L907.6287930501798,336.2365780897102L908.2189204470466,336.25746796566654L910.8744937329478,336.4177421258686L911.1695574313812,336.4630939156574L912.0547485266815,336.54872931584003L912.6448759235485,336.5592771135476L913.2350033204153,336.5908644013634L913.8251307172823,336.6146156479744L914.4152581141493,336.6111371189432L914.7103218125827,336.61205350562346L915.5955129078832,336.6508222727295L917.3658950984839,336.6992037490939L917.6609587969173,336.71145340777906L918.841213590651,336.77666647623005L919.7264046859515,336.8525956583094L920.6115957812519,336.88945684497895L921.2017231781189,336.9330506684832L921.4967868765523,336.93666010989733L922.6770416702861,336.95006927825955L923.85729646402,337.00688525243623L924.7424875593204,337.03514362537265L925.0375512577538,337.07600699060504L925.3326149561872,337.0991784823775L925.6276786546208,337.11543031962555L926.512869749921,337.1540681743487L927.6931245436549,337.2109402538323L928.2832519405218,337.2514856889919L929.4635067342557,337.3034953085394L929.7585704326891,337.33050066295385L930.3486978295559,337.3483421505656L930.6437615279896,337.36156430123805L932.1190800201568,337.45623265584044L933.0042711154572,337.48806306665307L933.2993348138906,337.4948705105636L933.8894622107576,337.5472167619528L934.4795896076245,337.5742782216742L935.0697170044913,337.60345298129096L935.3647807029248,337.60384571843963L936.2499717982253,337.61319660293213L936.5450354966587,337.62944844018017L937.1351628935257,337.67003127887773L938.020353988826,337.6895185221602L938.3154176872594,337.69460540332415L938.9055450841264,337.6902478911506L940.6759272747272,337.76806595189754L941.5611183700274,337.81373567175905L942.4463094653279,337.86821392481255L942.7413731637613,337.8781819676816L943.9216279574953,337.94646212624605L945.692010148096,337.9919822319557L949.5278382277309,338.0659851318296L950.7080930214647,338.1190233486713L951.2982204183317,338.13637859028944L952.7735389104989,338.2264650114905L953.6587300057994,338.2686936058588L954.2488574026662,338.3141389044925L955.4291121964002,338.39253672007794L956.9044306885672,338.4735714850902L958.0846854823012,338.5165855537559L959.2649402760351,338.5532597227356L960.1501313713353,338.5782826896376L962.8057046572366,338.7064085089543L964.5760868478372,338.85076746375006L967.5267238321719,338.9767051760955L967.8217875306053,338.97528384165264L968.1168512290387,338.979884476823L969.0020423243392,339.0001384926338L969.2971060227727,339.01644643518875L970.77242451494,339.0781622728395L971.3625519118068,339.0900004926071L972.5428067055407,339.10367148573516L972.8378704039742,339.1160707585723L973.1329341024076,339.136418283228L973.427997800841,339.1456569571066L973.7230614992746,339.1592344413898L974.0181251977081,339.16394728717404L974.3131888961415,339.17449508488164L976.6736984836091,339.24634728132224L977.5588895789095,339.2874537695514L979.3292717695102,339.3331608929509L980.5095265632441,339.35708045548284L983.4601635475788,339.4473164908358L983.7552272460122,339.4553582514994L984.0502909444457,339.46815026148516L986.1157368334798,339.5678306901756L987.5910553256472,339.60446745561734L988.4762464209476,339.6483418056563L989.0663738178145,339.6836133419621L989.3614375162479,339.7097397132343L989.6565012146813,339.7315646776398L989.9515649131147,339.7471806547424L991.1318197068487,339.77085709427746L993.4923292943164,339.84564546844877L993.7873929927498,339.84493480122734L994.6725840880501,339.8774010721854L995.2627114849171,339.88998736271236L995.5577751833506,339.8794582667738L996.1479025802174,339.89391473419926L997.6232210723847,339.9553874488532L999.6886669614189,340.052019489199L1000.278794358286,340.107133602398L1001.1639854535862,340.1456966500452L1001.7541128504532,340.15996609978083L1003.2294313426205,340.1812487128858L1004.1146224379208,340.21829691724525L1004.9998135332213,340.2507631882033L1007.6553868191223,340.2967508381376L1007.9504505175557,340.31545260712267L1008.8356416128562,340.33520167517094L1009.7208327081565,340.40323871073855L1010.3109601050236,340.43050588991883L1010.606023803457,340.43712631613954L1012.3764059940577,340.51348563890554L1013.2615970893581,340.54417524181L1013.5566607877915,340.53946239602584L1014.1467881846585,340.56347546740267L1015.0319792799589,340.58305621953L1015.6221066768258,340.5998317063096L1016.2122340736926,340.6250229891325L1017.097425168993,340.66483905530174L1017.3924888674266,340.6788840838095L1017.68755256586,340.6931535335451L1019.752998454894,340.74299374789035L1021.2283169470614,340.8530349565985L1021.8184443439285,340.87306455118147L1022.1135080423619,340.87549578114954L1022.4085717407953,340.8742614643965L1023.5888265345292,340.91233826605014L1023.8838902329626,340.92973091120626L1025.35920872513,340.9692103455337L1025.6542724235633,340.97244575156816L1026.8345272172974,341.02024747309395L1027.7197183125975,341.044017421474L1028.014782011031,341.05088097069154L1028.604909407898,341.0618402073168L1030.6703552969323,341.090285597943L1030.9654189953656,341.1011513257234L1032.440737487533,341.1230323954359L1035.9815018687343,341.25147614482535L1037.4568203609017,341.2928444578203L1038.0469477577687,341.3294251179551L1038.3420114562023,341.34462965614L1039.2272025515024,341.36146124822653L1039.522266249936,341.3647714613369L1042.1778395358372,341.4174730463368L1043.9482217264379,341.476103092105L1045.1284765201717,341.47582256557024L1045.4235402186052,341.4859215208222" fill="none"></path></g></g></g></g></g></g><g transform="translate(30, 376)" clip-path="url(#clip_1)"><clipPath id="clip_1"><rect width="1482" height="23"></rect></clipPath><g><g><line x1="40.17071866763365" y1="0" x2="40.17071866763365" y2="5" style="visibility: inherit;" fill="rgb(0, 0, 0)" stroke="rgb(200, 195, 188)" stroke-width="1px"></line><line x1="160.2324449182274" y1="0" x2="160.2324449182274" y2="5" style="visibility: inherit;" fill="rgb(0, 0, 0)" stroke="rgb(200, 195, 188)" stroke-width="1px"></line><line x1="280.2941711688212" y1="0" x2="280.2941711688212" y2="5" style="visibility: inherit;" fill="rgb(0, 0, 0)" stroke="rgb(200, 195, 188)" stroke-width="1px"></line><line x1="400.35589741941493" y1="0" x2="400.35589741941493" y2="5" style="visibility: inherit;" fill="rgb(0, 0, 0)" stroke="rgb(200, 195, 188)" stroke-width="1px"></line><line x1="520.4176236700087" y1="0" x2="520.4176236700087" y2="5" style="visibility: inherit;" fill="rgb(0, 0, 0)" stroke="rgb(200, 195, 188)" stroke-width="1px"></line><line x1="640.4793499206025" y1="0" x2="640.4793499206025" y2="5" style="visibility: inherit;" fill="rgb(0, 0, 0)" stroke="rgb(200, 195, 188)" stroke-width="1px"></line><line x1="760.5410761711962" y1="0" x2="760.5410761711962" y2="5" style="visibility: inherit;" fill="rgb(0, 0, 0)" stroke="rgb(200, 195, 188)" stroke-width="1px"></line><line x1="880.60280242179" y1="0" x2="880.60280242179" y2="5" style="visibility: inherit;" fill="rgb(0, 0, 0)" stroke="rgb(200, 195, 188)" stroke-width="1px"></line><line x1="1000.6645286723839" y1="0" x2="1000.6645286723839" y2="5" style="visibility: inherit;" fill="rgb(0, 0, 0)" stroke="rgb(200, 195, 188)" stroke-width="1px"></line><line x1="1120.7262549229777" y1="0" x2="1120.7262549229777" y2="5" style="visibility: inherit;" fill="rgb(0, 0, 0)" stroke="rgb(200, 195, 188)" stroke-width="1px"></line><line x1="1240.7879811735713" y1="0" x2="1240.7879811735713" y2="5" style="visibility: inherit;" fill="rgb(0, 0, 0)" stroke="rgb(200, 195, 188)" stroke-width="1px"></line><line x1="1360.849707424165" y1="0" x2="1360.849707424165" y2="5" style="visibility: inherit;" fill="rgb(0, 0, 0)" stroke="rgb(200, 195, 188)" stroke-width="1px"></line><line x1="1480.9114336747589" y1="0" x2="1480.9114336747589" y2="5" style="visibility: inherit;" fill="rgb(0, 0, 0)" stroke="rgb(200, 195, 188)" stroke-width="1px"></line></g><g transform="translate(0, 8)"><text style="text-anchor: middle; visibility: inherit; font-family: Roboto, sans-serif; font-size: 12px; font-weight: 200;" x="40.17071866763365" y="0" dx="0em" dy="0.95em" fill="rgb(232, 230, 227)" stroke="none" stroke-width="1px">-20M</text><text style="text-anchor: middle; visibility: inherit; font-family: Roboto, sans-serif; font-size: 12px; font-weight: 200;" x="160.2324449182274" y="0" dx="0em" dy="0.95em" fill="rgb(232, 230, 227)" stroke="none" stroke-width="1px">0</text><text style="text-anchor: middle; visibility: inherit; font-family: Roboto, sans-serif; font-size: 12px; font-weight: 200;" x="280.2941711688212" y="0" dx="0em" dy="0.95em" fill="rgb(232, 230, 227)" stroke="none" stroke-width="1px">20M</text><text style="text-anchor: middle; visibility: inherit; font-family: Roboto, sans-serif; font-size: 12px; font-weight: 200;" x="400.35589741941493" y="0" dx="0em" dy="0.95em" fill="rgb(232, 230, 227)" stroke="none" stroke-width="1px">40M</text><text style="text-anchor: middle; visibility: inherit; font-family: Roboto, sans-serif; font-size: 12px; font-weight: 200;" x="520.4176236700087" y="0" dx="0em" dy="0.95em" fill="rgb(232, 230, 227)" stroke="none" stroke-width="1px">60M</text><text style="text-anchor: middle; visibility: inherit; font-family: Roboto, sans-serif; font-size: 12px; font-weight: 200;" x="640.4793499206025" y="0" dx="0em" dy="0.95em" fill="rgb(232, 230, 227)" stroke="none" stroke-width="1px">80M</text><text style="text-anchor: middle; visibility: inherit; font-family: Roboto, sans-serif; font-size: 12px; font-weight: 200;" x="760.5410761711962" y="0" dx="0em" dy="0.95em" fill="rgb(232, 230, 227)" stroke="none" stroke-width="1px">100M</text><text style="text-anchor: middle; visibility: inherit; font-family: Roboto, sans-serif; font-size: 12px; font-weight: 200;" x="880.60280242179" y="0" dx="0em" dy="0.95em" fill="rgb(232, 230, 227)" stroke="none" stroke-width="1px">120M</text><text style="text-anchor: middle; visibility: inherit; font-family: Roboto, sans-serif; font-size: 12px; font-weight: 200;" x="1000.6645286723839" y="0" dx="0em" dy="0.95em" fill="rgb(232, 230, 227)" stroke="none" stroke-width="1px">140M</text><text style="text-anchor: middle; visibility: inherit; font-family: Roboto, sans-serif; font-size: 12px; font-weight: 200;" x="1120.7262549229777" y="0" dx="0em" dy="0.95em" fill="rgb(232, 230, 227)" stroke="none" stroke-width="1px">160M</text><text style="text-anchor: middle; visibility: inherit; font-family: Roboto, sans-serif; font-size: 12px; font-weight: 200;" x="1240.7879811735713" y="0" dx="0em" dy="0.95em" fill="rgb(232, 230, 227)" stroke="none" stroke-width="1px">180M</text><text style="text-anchor: middle; visibility: inherit; font-family: Roboto, sans-serif; font-size: 12px; font-weight: 200;" x="1360.849707424165" y="0" dx="0em" dy="0.95em" fill="rgb(232, 230, 227)" stroke="none" stroke-width="1px">200M</text><text style="text-anchor: middle; visibility: hidden; font-family: Roboto, sans-serif; font-size: 12px; font-weight: 200;" x="1480.9114336747589" y="0" dx="0em" dy="0.95em" fill="rgb(232, 230, 227)" stroke="none" stroke-width="1px">220M</text></g><line x1="0" y1="0" x2="1482.2339992523193" y2="0" fill="rgb(0, 0, 0)" stroke="rgb(200, 195, 188)" stroke-width="1px"></line></g></g></g></g></svg>