<svg viewBox="0 0 1513 400" xmlns="http://www.w3.org/2000/svg"><g><g><g><g><g><line x1="51.53200149536133" y1="374.14740773662555" x2="46.53200149536133" y2="374.14740773662555" style="visibility: inherit;" fill="rgb(0, 0, 0)" stroke="rgb(200, 195, 188)" stroke-width="1px"></line><line x1="51.53200149536133" y1="333.2797065844007" x2="46.53200149536133" y2="333.2797065844007" style="visibility: inherit;" fill="rgb(0, 0, 0)" stroke="rgb(200, 195, 188)" stroke-width="1px"></line><line x1="51.53200149536133" y1="292.4120054321758" x2="46.53200149536133" y2="292.4120054321758" style="visibility: inherit;" fill="rgb(0, 0, 0)" stroke="rgb(200, 195, 188)" stroke-width="1px"></line><line x1="51.53200149536133" y1="251.54430427995095" x2="46.53200149536133" y2="251.54430427995095" style="visibility: inherit;" fill="rgb(0, 0, 0)" stroke="rgb(200, 195, 188)" stroke-width="1px"></line><line x1="51.53200149536133" y1="210.67660312772608" x2="46.53200149536133" y2="210.67660312772608" style="visibility: inherit;" fill="rgb(0, 0, 0)" stroke="rgb(200, 195, 188)" stroke-width="1px"></line><line x1="51.53200149536133" y1="169.80890197550124" x2="46.53200149536133" y2="169.80890197550124" style="visibility: inherit;" fill="rgb(0, 0, 0)" stroke="rgb(200, 195, 188)" stroke-width="1px"></line><line x1="51.53200149536133" y1="128.9412008232764" x2="46.53200149536133" y2="128.9412008232764" style="visibility: inherit;" fill="rgb(0, 0, 0)" stroke="rgb(200, 195, 188)" stroke-width="1px"></line><line x1="51.53200149536133" y1="88.07349967105147" x2="46.53200149536133" y2="88.07349967105147" style="visibility: inherit;" fill="rgb(0, 0, 0)" stroke="rgb(200, 195, 188)" stroke-width="1px"></line><line x1="51.53200149536133" y1="47.205798518826626" x2="46.53200149536133" y2="47.205798518826626" style="visibility: inherit;" fill="rgb(0, 0, 0)" stroke="rgb(200, 195, 188)" stroke-width="1px"></line><line x1="51.53200149536133" y1="6.338097366601787" x2="46.53200149536133" y2="6.338097366601787" style="visibility: inherit;" fill="rgb(0, 0, 0)" stroke="rgb(200, 195, 188)" stroke-width="1px"></line></g><g transform="translate(41.53200149536133, 0)"><text style="text-anchor: end; visibility: hidden; font-family: Roboto, sans-serif; font-size: 12px; font-weight: 200;" x="0" y="374.14740773662555" dx="0em" dy="0.3em" fill="rgb(232, 230, 227)" stroke="none" stroke-width="1px">0</text><text style="text-anchor: end; visibility: inherit; font-family: Roboto, sans-serif; font-size: 12px; font-weight: 200;" x="0" y="333.2797065844007" dx="0em" dy="0.3em" fill="rgb(232, 230, 227)" stroke="none" stroke-width="1px">0.01</text><text style="text-anchor: end; visibility: inherit; font-family: Roboto, sans-serif; font-size: 12px; font-weight: 200;" x="0" y="292.4120054321758" dx="0em" dy="0.3em" fill="rgb(232, 230, 227)" stroke="none" stroke-width="1px">0.02</text><text style="text-anchor: end; visibility: inherit; font-family: Roboto, sans-serif; font-size: 12px; font-weight: 200;" x="0" y="251.54430427995095" dx="0em" dy="0.3em" fill="rgb(232, 230, 227)" stroke="none" stroke-width="1px">0.03</text><text style="text-anchor: end; visibility: inherit; font-family: Roboto, sans-serif; font-size: 12px; font-weight: 200;" x="0" y="210.67660312772608" dx="0em" dy="0.3em" fill="rgb(232, 230, 227)" stroke="none" stroke-width="1px">0.04</text><text style="text-anchor: end; visibility: inherit; font-family: Roboto, sans-serif; font-size: 12px; font-weight: 200;" x="0" y="169.80890197550124" dx="0em" dy="0.3em" fill="rgb(232, 230, 227)" stroke="none" stroke-width="1px">0.05</text><text style="text-anchor: end; visibility: inherit; font-family: Roboto, sans-serif; font-size: 12px; font-weight: 200;" x="0" y="128.9412008232764" dx="0em" dy="0.3em" fill="rgb(232, 230, 227)" stroke="none" stroke-width="1px">0.06</text><text style="text-anchor: end; visibility: inherit; font-family: Roboto, sans-serif; font-size: 12px; font-weight: 200;" x="0" y="88.07349967105147" dx="0em" dy="0.3em" fill="rgb(232, 230, 227)" stroke="none" stroke-width="1px">0.07</text><text style="text-anchor: end; visibility: inherit; font-family: Roboto, sans-serif; font-size: 12px; font-weight: 200;" x="0" y="47.205798518826626" dx="0em" dy="0.3em" fill="rgb(232, 230, 227)" stroke="none" stroke-width="1px">0.08</text><text style="text-anchor: end; visibility: hidden; font-family: Roboto, sans-serif; font-size: 12px; font-weight: 200;" x="0" y="6.338097366601787" dx="0em" dy="0.3em" fill="rgb(232, 230, 227)" stroke="none" stroke-width="1px">0.09</text></g><line x1="51.53200149536133" y1="0" x2="51.53200149536133" y2="376.5999994277954" fill="rgb(0, 0, 0)" stroke="rgb(200, 195, 188)" stroke-width="1px"></line></g></g><g transform="translate(51, 0)" clip-path="url(#clip_0)"><clipPath id="clip_0"><rect width="1461" height="376"></rect></clipPath><g><g><g><line x1="17.599059905366033" y1="0" x2="17.599059905366033" y2="376.5999994277954" fill="rgb(0, 0, 0)" stroke="rgb(194, 189, 181)" stroke-width="1px" opacity="0.25"></line><line x1="158.57230000019464" y1="0" x2="158.57230000019464" y2="376.5999994277954" fill="rgb(0, 0, 0)" stroke="rgb(194, 189, 181)" stroke-width="1px" opacity="0.25"></line><line x1="299.5455400950233" y1="0" x2="299.5455400950233" y2="376.5999994277954" fill="rgb(0, 0, 0)" stroke="rgb(194, 189, 181)" stroke-width="1px" opacity="0.25"></line><line x1="440.5187801898519" y1="0" x2="440.5187801898519" y2="376.5999994277954" fill="rgb(0, 0, 0)" stroke="rgb(194, 189, 181)" stroke-width="1px" opacity="0.25"></line><line x1="581.4920202846805" y1="0" x2="581.4920202846805" y2="376.5999994277954" fill="rgb(0, 0, 0)" stroke="rgb(194, 189, 181)" stroke-width="1px" opacity="0.25"></line><line x1="722.4652603795091" y1="0" x2="722.4652603795091" y2="376.5999994277954" fill="rgb(0, 0, 0)" stroke="rgb(194, 189, 181)" stroke-width="1px" opacity="0.25"></line><line x1="863.4385004743377" y1="0" x2="863.4385004743377" y2="376.5999994277954" fill="rgb(0, 0, 0)" stroke="rgb(194, 189, 181)" stroke-width="1px" opacity="0.25"></line><line x1="1004.4117405691665" y1="0" x2="1004.4117405691665" y2="376.5999994277954" fill="rgb(0, 0, 0)" stroke="rgb(194, 189, 181)" stroke-width="1px" opacity="0.25"></line><line x1="1145.384980663995" y1="0" x2="1145.384980663995" y2="376.5999994277954" fill="rgb(0, 0, 0)" stroke="rgb(194, 189, 181)" stroke-width="1px" opacity="0.25"></line><line x1="1286.3582207588236" y1="0" x2="1286.3582207588236" y2="376.5999994277954" fill="rgb(0, 0, 0)" stroke="rgb(194, 189, 181)" stroke-width="1px" opacity="0.25"></line><line x1="1427.3314608536523" y1="0" x2="1427.3314608536523" y2="376.5999994277954" fill="rgb(0, 0, 0)" stroke="rgb(194, 189, 181)" stroke-width="1px" opacity="0.25"></line></g><g><line x1="0" y1="374.14740773662555" x2="1461.4679985046387" y2="374.14740773662555" fill="rgb(0, 0, 0)" stroke="rgb(194, 189, 181)" stroke-width="1px" opacity="0.25"></line><line x1="0" y1="333.2797065844007" x2="1461.4679985046387" y2="333.2797065844007" fill="rgb(0, 0, 0)" stroke="rgb(194, 189, 181)" stroke-width="1px" opacity="0.25"></line><line x1="0" y1="292.4120054321758" x2="1461.4679985046387" y2="292.4120054321758" fill="rgb(0, 0, 0)" stroke="rgb(194, 189, 181)" stroke-width="1px" opacity="0.25"></line><line x1="0" y1="251.54430427995095" x2="1461.4679985046387" y2="251.54430427995095" fill="rgb(0, 0, 0)" stroke="rgb(194, 189, 181)" stroke-width="1px" opacity="0.25"></line><line x1="0" y1="210.67660312772608" x2="1461.4679985046387" y2="210.67660312772608" fill="rgb(0, 0, 0)" stroke="rgb(194, 189, 181)" stroke-width="1px" opacity="0.25"></line><line x1="0" y1="169.80890197550124" x2="1461.4679985046387" y2="169.80890197550124" fill="rgb(0, 0, 0)" stroke="rgb(194, 189, 181)" stroke-width="1px" opacity="0.25"></line><line x1="0" y1="128.9412008232764" x2="1461.4679985046387" y2="128.9412008232764" fill="rgb(0, 0, 0)" stroke="rgb(194, 189, 181)" stroke-width="1px" opacity="0.25"></line><line x1="0" y1="88.07349967105147" x2="1461.4679985046387" y2="88.07349967105147" fill="rgb(0, 0, 0)" stroke="rgb(194, 189, 181)" stroke-width="1px" opacity="0.25"></line><line x1="0" y1="47.205798518826626" x2="1461.4679985046387" y2="47.205798518826626" fill="rgb(0, 0, 0)" stroke="rgb(194, 189, 181)" stroke-width="1px" opacity="0.25"></line><line x1="0" y1="6.338097366601787" x2="1461.4679985046387" y2="6.338097366601787" fill="rgb(0, 0, 0)" stroke="rgb(194, 189, 181)" stroke-width="1px" opacity="0.25"></line></g></g></g><g><g><line x1="0" y1="374.14740773662555" x2="1461.4679985046387" y2="374.14740773662555" fill="rgb(0, 0, 0)" stroke="rgb(168, 160, 149)" stroke-width="1.5px"></line></g></g><g><g><line x1="158.57230000019464" y1="0" x2="158.57230000019464" y2="376.5999994277954" fill="rgb(0, 0, 0)" stroke="rgb(168, 160, 149)" stroke-width="1.5px"></line></g></g><g><g><g><g><g><path style="fill: none;" stroke="rgb(255, 112, 67)" stroke-width="2px" d="M160.65103500933697,333.65626412657423L160.997490844194,335.76082641205187L162.7297700184793,333.5535355115281L163.76913752305043,328.11084657672245L164.11559335790747,323.78372260934054L165.15496086247865,320.4726823635225L165.84787253219272,317.6797243670466L167.2336958716209,314.79291451570117L171.39116588990555,316.8454636613944L172.77698922933374,318.81010790980173L173.46990089904784,321.7108012248303L174.16281256876195,322.8318786294595L174.50926840361902,325.26168718430256L175.2021800733331,324.9242919781027L177.28091508247542,326.4778719412111L177.62737091733246,329.65221458975424L177.97382675218952,330.56235135045523L178.32028258704656,331.3923338146522L178.6667384219036,332.039855192389L181.43838510076,333.5897256821645L182.47775260533115,332.8045859623653L183.51712010990235,332.9969177239469L183.8635759447594,333.4763213809032L184.21003177961643,333.1423944662115L184.55648761447347,333.2951323483148L186.28876678875875,334.59309781694543L189.06041346761515,334.8509751736419L189.4068693024722,335.84490615725673L191.48560431161448,333.03496232528363L194.25725099047088,333.4794897470477L195.29661849504205,333.760620605836L195.64307432989912,332.6378385945154L198.06826517389845,332.5978487973172L199.1076326784696,334.03450113059057L199.80054434818373,334.0546529220584L202.57219102704013,335.1775500952099L203.61155853161125,333.53315043029573L203.95801436646832,332.8426131378971L207.0761168801818,334.09930319817187L207.7690285498959,334.7649243366351L208.11548438475293,334.4140155004649L208.46194021960997,333.6619228862119L210.88713106360933,332.56272120557543L212.61941023789458,331.4883777877117L213.3123219076087,331.7682021799121L213.65877774246573,331.3418365226185L215.04460108189394,329.6036898844338L216.77688025617923,329.1295080302384L217.12333609103626,329.4532078102123L218.16270359560738,329.056710104689L220.2414386047497,328.2355051482585L220.58789443960674,328.2501506975098L221.28080610932088,328.4590673989261L222.32017361389202,327.78745483089597L223.0130852836061,328.33056226945934L223.35954111846314,328.3168463776828L224.05245278817728,327.83432029462796L224.74536445789136,328.61004256503855L225.09182029274842,329.6690450318532L227.51701113674778,326.86029481964334L230.28865781560418,324.6577331102657L230.63511365046125,324.6402912183452L230.9815694853183,324.2041715093781L232.36739282474647,324.11715558131283L235.831951173317,325.4081419977011L236.17840700817405,323.7734154161291L236.87131867788815,323.76463337136465L238.25714201731637,321.82470916925183L239.2965095218875,321.3857149355614L239.64296535674455,320.61297069958346L239.9894211916016,321.5703899182367L241.02878869617277,324.0933247518008L245.18625871445738,322.1077728952192L247.2649937235997,321.4599667439583L248.30436122817082,321.1551375538443L248.99727289788493,317.25905940806246L249.34372873274197,316.5345798239092L250.0366404024561,316.86556546501214L251.4224637418843,316.4112551936969L252.8082870813125,319.1428887023239L253.50119875102658,319.1987818837062L255.23347792531186,320.77229681339566L260.08385961331055,318.73202502202975L261.81613878759583,316.5384129387378L262.16259462245284,314.360194200921L263.54841796188106,311.8031276833872L263.8948737967381,309.02610436322766L265.28069713616634,309.8564522557463L265.62715297102335,311.5833298549635L266.3200646407375,310.91942779053545L267.35943214530863,308.911261005474L269.0917113195939,312.3736352396772L269.4381671544509,314.2275639914443L269.784622989308,312.9753716966258L271.5169021635932,310.2392064809903L271.8633579984503,311.5071834675883L272.20981383330735,310.76407552356574L273.2491813378785,308.62142949879376L276.36728385159194,308.46195763269645L277.060195521306,305.98700144502357L279.13893053044836,305.71476730110913L281.21766553959066,305.61187379261975L281.5641213744477,305.0004940364435L283.64285638359,300.99186365171835L284.68222388816116,302.69646789423115L286.0680472275894,303.63774942384555L287.4538705670176,305.1422660582506L288.14678223673167,306.13825292382927L289.5326055761599,303.4172200930571L289.87906141101695,301.6977451637135L290.225517245874,302.10020829761737L290.9184289155881,299.96102768908446L292.6507080898733,301.0579951199792L294.38298726415854,301.44947140575397L294.72944309901567,304.21352973747656L295.0758989338727,304.9579005912137L300.27273645672847,301.4864402488903L302.6979273007278,301.34185003935767L304.7766623098701,299.3224368578877L305.1231181447272,297.65963806403306L305.81602981444126,296.34258426320474L306.5089414841554,300.10458002621374L307.89476482358356,299.6922176398011L311.01286733729705,297.2633743734853L311.70577900701113,299.89037741249365L312.0522348418682,297.1965081362929L313.09160234643934,292.37999531231367L315.17033735558164,289.18463428939947L317.941984034438,288.65422395717934L318.28843986929513,289.1018140505763L319.3278073738662,286.5941643498161L319.6742632087233,281.3347247009911L322.7923657224368,278.814116520059L323.1388215572938,280.08104592252573L326.94983574072137,281.1737502437812L327.9892032452925,284.002093356188L328.3356590801496,285.9381863256112L329.02857074986366,287.1884481447276L329.72148241957774,285.51330879167966L334.57186410757646,277.7615392111435L336.30414328186174,271.12477353495336L336.9970549515759,263.61932397591323L338.036422456147,263.1484784668346L338.7293341258611,260.79801281784853L340.4616133001463,262.43095802564255L340.8080691350034,263.696965279657L342.8868041441457,266.1312815928459L343.5797158138598,264.2827586389227L343.92617164871683,264.5646317697273L344.61908331843097,263.10773133481905L344.96553915328803,263.56823549877805L346.0049066578591,262.9895567230228L346.69781832757326,258.5978066047946L348.4300975018585,258.40389549428323L348.77655333671555,259.14093458445655L351.89465585042905,259.5871194287578L352.5875675201431,265.191096970266L353.97339085957134,263.75965023308856L354.3198466944284,262.48206537835415L354.6663025292854,258.71167235934286L356.05212586871363,258.51353702723225L357.43794920814184,258.2897383629197L357.78440504299886,258.23868794192657L358.82377254757006,257.5846731098885L359.51668421728414,253.73869317895526L359.8631400521412,257.59714455955134L360.2095958869982,255.9748797507015L360.5560517218553,254.89969090969197L360.90250755671235,252.49139053672715L361.2489633915694,251.4931552550959L361.9418750612835,250.4227568896724L362.28833089614056,249.78756676996218L364.0206100704258,249.7849649016755L364.36706590528286,249.0983329568299L365.752889244711,252.02894499849097L366.7922567492822,252.63711755567522L367.4851684189963,242.0859125635394L369.56390342813864,243.06004181000176L370.2568150978527,245.85644881033008L371.989094272138,245.07760384277088L373.37491761156616,244.04788906994855L373.7213734464233,243.03159489744107L374.41428511613736,245.6120924747378L378.571755134422,247.76581384746567L380.9969459784213,251.96943096532968L381.3434018132783,253.36559814787972L382.03631348299245,254.40343544147743L382.3827693178495,252.30136210113812L382.72922515270653,254.7861134113193L383.0756809875636,248.89672070181567L383.7685926572777,252.45927466695477L384.8079601618489,250.61364594959326L386.19378350127704,243.4422207144136L386.5402393361341,231.86577816979786L387.9260626755623,229.56297862177897L388.96543018013347,225.62035908910698L390.3512535195617,229.85677145785618L391.3906210241328,227.97566734874565L391.73707685898984,228.16725311075635L392.08353269384696,230.6043952516368L392.4299885287039,230.2200880871127L392.77644436356104,226.29019258969652L393.4693560332751,227.78976632783176L393.8158118681322,227.79568574950628L394.1622677029892,227.91090536876183L395.2016352075604,228.65955714610303L395.54809104241747,233.17760444016724L395.8945468772745,227.06525674776262L396.58745854698856,229.8283323425266L397.28037021670275,225.1445735659318L397.62682605155976,224.62445856611177L400.05201689555906,230.0123093853459L401.09138440013027,225.1107907654456L402.4772077395584,226.54693867724578L403.5165752441296,231.32642101519542L404.2094869138437,235.95578113558014L404.9023985835578,234.96862106734142L406.288221922986,237.30048259647273L407.6740452624142,237.6118218620135L408.71341276698536,235.8468323333053L409.0598686018424,233.80682667196305L409.4063244366995,235.26349997995226L409.7527802715565,232.5879826425708L411.83151528069885,232.83892305176582L413.91025028984114,225.31018167838909L414.6031619595552,213.30239558895556L414.9496177944123,210.6258030274916L416.3354411338405,210.24804287532177L417.37480863841165,213.81430371480653L417.72126447326866,213.9263156184899L418.76063197783986,212.5824944507175L419.10708781269693,207.6757274779612L419.45354364755394,202.57391236483016L420.146455317268,210.80606165095767L420.8393669869821,217.55535638144087L422.91810199612445,223.38073218524352L423.95746950069565,220.34205102884908L424.30392533555266,213.11925739943106L425.3432928401238,208.5160483545575L425.6897486749809,208.94676592586237L426.0362045098379,206.46470003148005L426.72911617955197,209.24837855820294L427.0755720144091,207.77271204835904L429.1543070235513,210.49117850093802L430.5401303629796,214.65378462576575L430.8865861978366,215.67458709938305L431.5794978675507,213.57610140244694L432.27240953726476,212.17085569568738L432.96532120697896,215.77283262552444L433.31177704183597,216.67883966318578L433.65823287669303,210.3550984171946L434.00468871155005,206.68153448364757L434.35114454640717,211.6175629308235L435.3905120509783,212.5128080385976L436.0834237206924,211.9893134309071L436.7763353904065,204.72667031086448L437.8157028949777,200.22282662428654L438.50861456469175,197.46185164499184L438.85507039954877,193.61877414094215L439.20152623440583,197.97183882227367L441.2802612435481,197.75985498012045L441.6267170784052,195.9981055599596L442.31962874811927,201.37464589670265L443.3589962526905,197.49831814981147L444.74481959211863,201.9466692522355L445.78418709668983,195.17633563340397L446.8235546012609,192.39855761958955L447.170010436118,183.95179945300578L447.86292210583207,178.5915516813382L448.5558337755462,182.56489080828155L449.2487454452603,181.27419181408857L450.98102461954556,192.13194256683747L452.0203921241167,190.57481441661147L452.7133037938308,190.53218221287756L457.9101413166866,197.23573512030782L459.2959646561148,201.6072852302314L459.98887632582887,199.1189501436736L460.33533216068594,198.69252828206825L461.72115550011415,202.12997576868818L462.41406716982823,206.4422215840959L462.7605230046853,209.34171200545146L463.7998905092565,202.7080321921057L464.4928021789706,198.10727755375962L465.18571384868466,195.365173223733L466.22508135325586,197.13139531207332L466.91799302296994,196.2233133131572L467.26444885782695,194.18763556225065L467.957360527541,188.93097599090063L469.3431838669693,192.0681794212637L470.72900720639745,188.40812380393987L473.15419805039676,197.00151059570666L473.5006538852538,200.00128582274758L473.8471097201109,194.34750147191156L474.1935655549679,191.31632330067714L474.886477224682,197.13549945553677L475.9258447292532,195.0245702398212L476.27230056411025,195.31627319685063L476.61875639896726,191.73236500214267L477.65812390353847,190.3838286023281L478.0045797383954,191.3456217388081L478.35103557325255,191.51036592375124L478.6974914081096,196.84322892036525L481.469138086966,189.36738683675242L481.81559392182305,185.65464193873603L482.85496142639414,192.29258017151093L485.2801522703935,189.90291260235256L486.3195197749647,187.15478308206866L489.09116645382113,183.88864726894218L489.43762228867814,174.98298930521256L490.1305339583922,162.83778098753692L490.4769897932493,157.26525894385586L490.8234456281064,156.12287193226592L491.8628131326775,159.01790312833555L492.20926896753457,154.17688270190678L492.90218063724865,150.5149598201554L493.5950923069627,146.02326901678575L495.327371481248,152.9177479875362L495.6738273161051,149.95838279879075L497.0596506555333,151.64899533250366L497.40610649039036,147.45684164262582L497.75256232524737,156.46794650135308L498.09901816010444,154.39899415790507L499.1383856646755,153.5913356032505L499.48484149953265,156.47333752092842L499.8312973343897,159.81398104975744L500.8706648389608,153.98002741288062L501.2171206738179,146.94526696721147L503.98876735267424,147.54881761213838L505.3745906921025,144.4768093980056L506.0675023618166,133.67146612103622L506.76041403153073,135.35860764486515L507.1068698663878,140.84490065433948L508.1462373709589,145.44679132349168L509.18560487553003,129.3057185034709L509.53206071038716,127.1610405854601L509.87851654524417,133.54205416236834L510.22497238010124,128.56438532928917L511.2643398846723,130.427341658933L514.0359865635288,124.61948487579087L514.7288982332428,125.89110026855752L515.421809902957,119.77028167816222L516.114721572671,117.25731775204062L516.4611774075281,116.68403773813867L517.5005449120993,115.20292846688551L518.1934565818134,125.00584494960242L518.8863682515275,129.8570913991388L520.6186474258127,135.2369576409097L523.0438382698121,136.5068727406741L523.3902941046692,134.94698432305626L524.4296616092403,131.3960161125575L525.1225732789544,136.1512996211641L527.2013082880967,127.29296824716474L527.5477641229537,121.09530713535018L528.2406757926678,125.77709871876313L528.933587462382,130.3368036478746L530.3194108018101,118.92146293304368L531.7052341412383,118.49435102228165L532.3981458109524,123.91097733108401L534.1304249852377,130.61894531530592L534.4768808200948,131.28817588368165L534.8233366549517,135.99943880973797L537.2485274989511,130.00074901529322L537.5949833338083,135.2958822562548L539.6737183429505,137.30502501135976L541.0595416823787,129.6864637596099L541.4059975172357,131.7889145188014L541.7524533520929,136.67133311528144L544.8705558658063,138.15827189351816L545.5634675355204,146.776437074561L546.6028350400916,144.83127874373918L548.6815700492339,151.00780950180257L549.0280258840909,153.38762137809556L550.413849223519,152.8276031270309L551.4532167280903,146.12254148549258L551.7996725629473,137.51856018423513L552.1461283978043,135.8447707463584L553.1854959023756,140.46952598302647L556.996510085803,136.9344417541036L558.0358775903742,151.49743306949762L559.0752450949454,151.16153724947196L559.4217009298025,148.12887548183653L559.7681567646595,138.278569174476L560.8075242692306,132.29210503093557L561.1539801040877,123.03697318283722L561.5004359389447,128.69801423975667L566.6972734618005,123.14035631843079L567.7366409663716,120.64571026220747L568.4295526360858,129.80754688186343L568.7760084709429,128.26797755196628L569.4689201406569,119.67719511585246L569.8153759755139,112.51785420034231L570.8547434800851,110.44959229117217L571.8941109846563,118.28998667555956L572.2405668195133,116.81890621459097L572.9334784892274,111.75355360929461L573.6263901589415,98.66142379301066L574.3193018286556,84.83775283548385L575.0122134983698,89.79680897150229L576.0515810029409,93.35819955515052L576.744492672655,93.35372742309141L577.4374043423691,96.16380778697092L578.1303160120832,107.3352145274448L578.8232276817972,92.70096353050997L579.5161393515114,94.53383288222808L582.9806977000819,102.77834342993998L584.3665210395101,104.89003412501324L585.7523443789383,102.73326253641063L586.0988002137954,105.65055015252949L586.4452560486524,115.98604999349023L587.1381677183665,113.78655972327138L588.1775352229376,105.03520011498944L589.2169027275088,103.79238558576482L589.9098143972229,87.11838839301207L590.9491819017941,79.52631532876508L593.0279169109364,79.91796787591447L593.7208285806505,81.02339344947302L594.4137402503645,72.53484480685245L594.7601960852217,82.14498320851858L595.7995635897928,96.20501763934844L596.1460194246498,100.85408324408209L596.4924752595068,108.2862962770957L597.531842764078,117.50538209557581L600.3034894429344,104.90688126705506L602.0357686172197,87.89888165303954L602.7286802869338,87.70404295641252L604.8074152960761,78.3064398486614L606.1932386355044,87.17378856354577L606.5396944703614,95.22757529783453L606.8861503052184,106.86891378441742L607.2326061400754,105.23021801455873L609.3113411492178,90.68112999832216L610.3507086537888,97.24958567850331L612.7758994977883,84.44411800620259L613.4688111675024,57.9293688569914L614.5081786720735,60.906016281980435L614.8546345069306,59.345668324760176L615.8940020115017,62.614525485298806L616.2404578463587,72.63674815828274L617.972737020644,87.9078597875863L618.3191928555011,89.98853545448834L618.6656486903581,88.47727993637191L619.7050161949293,71.29761069681821L620.7443836995004,78.8978870830792L621.0908395343574,88.7474009782423L621.4372953692146,84.222850164234L621.7837512040716,86.902443057021L622.1302070389287,86.2692394446696L624.2089420480709,83.37875198486807L626.2876770572133,85.1692259485308L628.3664120663556,73.53443275074018L629.7522354057838,72.92375239822597L630.4451470754979,74.1670875213349L632.1774262497831,62.16693654800421L633.5632495892113,68.35812304107294L635.9884404332107,75.13285509776466L636.6813521029247,70.09588729124852L637.720719607496,68.72076800364496L638.41363127721,66.83757592020608L638.760087112067,51.441528380576536L639.7994546166382,52.97371707500174L640.1459104514953,53.08472399856606L640.8388221212094,62.6551325640244L641.1852779560664,59.072344345983026L642.2246454606376,50.41473761151851L648.1143946532075,62.59374090838238L648.4608504880645,71.12763313784222L648.8073063229216,45.83145844873344L649.1537621577786,33.92130070640359L650.5395854972068,29.866600675808453L651.578953001778,28.987084077621873L652.9647763412062,36.70830998765199L653.3112321760632,51.21486388562333L653.6576880109202,67.36852390472274L655.0435113503485,75.02756760749679L655.3899671852055,73.82136280469503L655.7364230200625,63.78383608687159L656.4293346897767,68.22083954016298L657.1222463594908,66.34133363252991L657.8151580292049,70.25292034308957L658.5080696989189,65.50727269329781L661.2797163777755,61.663769549483696L663.0119955520606,58.084834322844145L663.3584513869176,51.15767987112645L666.4765539006311,56.02736452389275L666.8230097354882,62.325156689303526L670.6340239189158,67.0052142044295L672.366303093201,59.24807185838739L673.4056705977722,56.37990147314504L673.7521264326292,66.83516174318783L674.7914939372004,78.00304938940566L675.4844056069145,68.73559774017916L675.8308614417715,72.89974593298625L678.6025081206279,87.59494420693078L678.9489639554849,92.87618900582036L679.295419790342,84.33046260212272L679.6418756251991,98.73042113041781L680.6812431297702,90.55076584316248L681.3741547994844,87.87328711481345L681.7206106343414,87.67161054075905L682.0670664691984,93.61508192931194L684.8387131480548,87.36437094209154L686.5709923223401,78.90963972408618L686.9174481571971,86.33013048025269L687.9568156617684,99.13314508537906L690.3820065057677,106.38910896957675L691.0749181754818,93.48884468396255L694.5394765240522,85.51979631712571L696.2717556983375,85.88070850514872L696.6182115331945,68.47802748033493L697.3111232029087,85.91442377167046L697.6575790377657,82.90341819684296L699.736314046908,85.87396521096159L700.0827698817651,69.09053337027301L702.1615048909074,75.52969732015838L702.5079607257644,92.05181349793952L705.6260632394778,98.13587738191505L707.0118865789061,104.6982815788011L707.7047982486201,107.4745039149742L709.0906215880484,108.44028006953462L712.2087241017618,104.44103638859957L712.901635771476,84.44201703041976L713.9410032760471,87.51878567010792L714.6339149457613,105.69584693279829L714.9803707806183,111.84814141447433L716.7126499549034,100.30293960690973L717.7520174594747,96.98450188261792L719.4842966337599,99.22717578252686L720.177208303474,78.92418766391678L721.5630316429022,72.90025253662623L722.2559433126164,77.39652883360823L722.6023991474733,106.58494820279162L722.9488549823304,115.7117337319357L723.6417666520446,102.67391759319068L724.3346783217586,75.44315633654598L726.0669574960439,91.84556215853675L727.106325000615,110.29794133448215L727.7992366703292,105.60314547088639L728.8386041749003,136.4045312617319L729.8779716794714,117.157971603306L731.2637950188996,103.85483241790598L732.3031625234709,125.65208617063716L733.688985862899,116.64894305065543L734.0354416977561,101.5090648789166L734.381897532613,112.64134532902507L736.8070883766125,100.29809960282135L737.5000000463265,123.88062482278774L738.1929117160406,106.60448328331053L739.2322792206118,120.35475533876554L739.5787350554689,107.5029066142671L741.6574700646112,122.49028308050457L742.0039258994683,119.72591792090452L743.3897492388965,117.20986033203677L744.7755725783246,121.7664569631648L745.8149400828958,133.2821197312952L746.1613959177528,122.50290230603412L746.5078517526099,119.44086421140112L746.854307587467,113.63126522672248L747.547219257181,123.52842775948432L748.5865867617523,127.58490355677493L751.0117776057515,137.42331241195495L751.3582334406086,125.70536944621023L753.0905126148939,133.8378614285536L753.7834242846079,155.44481238418297L754.1298801194649,172.27654819124865L754.476335954322,159.68869279168493L757.5944384680355,133.745507212912L758.9802618074636,121.66357307914907L759.3267176423208,132.905847102537L759.6731734771779,139.95441467802817L760.0196293120349,127.16723768520981L760.7125409817489,143.57651785179152L762.4448201560342,165.16983978423815L762.7912759908913,161.0091500376605L763.4841876606054,140.3670113864605L763.8306434954624,128.38253197317215L764.1770993303195,142.57251161370658L765.2164668348905,146.21883081627382L765.9093785046048,141.1490144698596L766.2558343394618,143.34148217433258L766.6022901743188,149.717792540438L769.7203926880323,168.02270047648878L770.7597601926035,160.00688483970205L773.8778627063169,169.66255943945643L775.9565977154592,168.3572443123465L776.3030535503161,163.6552507447149L778.3817885594585,167.86988551866716L778.7282443943157,168.7889534972313L779.0747002291727,147.64195712364037L779.7676118988867,157.39543973583173L781.8463469080291,148.8010243521646L783.9250819171714,145.11266546426697L784.2715377520285,160.58625559619958L787.0431844308848,151.56971869785775L787.389640265742,158.13223825102145L788.429007770313,152.18484826408093L789.4683752748841,151.34051706971078L790.8541986143125,170.1938442679174L791.5471102840265,182.57615280129195L792.9329336234547,168.52350045414258L795.011668632597,157.73674839057605L796.3974919720251,179.10003109615135L796.7439478068823,174.55115647922952L797.7833153114534,184.1768383414122L798.4762269811675,181.37548143069264L799.5155944857386,178.6856607041151L800.9014178251668,191.8341674446689L801.594329494881,187.4537468462091L802.287241164595,185.9933525096989L802.6336969994521,189.78842011305284L802.9801528343091,188.39994765560175L805.4053436783086,168.94317222582836L806.0982553480226,182.89073933847936L806.4447111828797,159.88460642228551L808.523446192022,166.38575224270738L808.869902026879,180.68736961850425L809.216357861736,177.93644997040408L809.9092695314503,183.2208339188465L810.6021812011642,188.5553637872724L814.759651219449,187.43169297634103L817.8777537331624,201.06977099597316L819.2635770725906,188.8097495120335L820.9958562468759,196.02664067324085L821.3423120817329,196.8900078239469L823.0745912560182,191.41754747974966L823.421047090875,183.25383951242054L823.7675029257322,179.6959287253722L825.1533262651603,182.46712498922324L825.4997821000175,187.9477094333366L827.5785171091597,211.75187460993897L828.964340448588,206.2394469649891L829.310796283445,191.43807000624403L829.6572521183022,205.49009402346238L830.3501637880162,204.6191604021667L830.6966196228732,201.64702390367813L832.4288987971585,206.85470355251675L833.4682663017296,208.33332174363025L834.1611779714437,209.86989270111107L835.2005454760149,212.47989294985726L836.2399129805862,192.87034726488272L837.2792804851572,212.72914379404054L837.9721921548714,225.7511933312291L840.0509271640136,235.9480746604526L840.3973829988706,219.35808070864573L841.0902946685849,192.51007357995692L841.7832063382988,197.76473910329267L844.9013088520123,208.7961254086911L845.2477646868693,220.0513183426913L845.5942205217265,200.29953046895898L845.9406763565835,191.28141503870913L850.7910580445822,182.16685604296154L852.1768813840105,197.509376915405L853.5627047234386,185.09157558248097L853.9091605582956,172.39999686599026L854.9485280628668,183.57677639495202L855.2949838977239,164.15403200133122L856.3343514022949,188.49262060433344L857.0272630720092,195.1168579453774L857.7201747417231,213.44398899103754L859.4524539160084,198.0499306772759L860.4918214205796,198.12009533668584L861.1847330902937,184.90453861361527L861.5311889251508,196.11087500803416L862.2241005948649,183.65618929962707L863.2634680994361,182.5303653576661L864.3028356040071,171.69524183942093L864.9957472737212,171.48772972931252L866.0351147782924,174.81495438682634L867.0744822828636,174.7026664518744L867.4209381177205,176.51727374708227L868.4603056222918,181.63944584711953L869.499673126863,171.1519513245872L872.2713198057193,172.61178256640224L872.6177756405764,174.3139219537454L873.3106873102905,173.571001527534L875.0429664845758,179.95664687516214L876.7752456588611,166.29716575007262L877.121701493718,179.53786568605432L877.4681573285751,205.65403200402918L878.1610689982892,210.98950307472916L878.5075248331464,206.10752182409482L879.2004365028604,200.10523210403431L879.8933481725745,208.11255847841872L880.9327156771456,207.773565655856L881.2791715120027,182.51061653694077L882.6649948514308,203.54634284992773L884.3972740257161,209.60786871519758L885.0901856954301,221.3358491125677L887.1689207045725,193.7172205817619L887.5153765394296,194.8116818772978L887.8618323742867,209.8129148995423L888.2082882091437,222.68866163577152L888.5547440440007,196.16440503390493L889.594111548572,179.97220664254516L890.287023218286,185.11910407358L891.3263907228572,195.0600639183595L891.6728465577141,192.79631171097748L892.7122140622854,219.79027201677093L893.4051257319994,206.7236334922923L894.0980374017136,197.5291411489758L894.4444932365707,192.3386925639466L894.7909490714277,186.72273090380878L896.1767724108558,198.87919097286442L897.5625957502841,193.29000493725778L897.9090515851411,206.47669498961307L898.2555074199981,222.43259651282736L899.6413307594264,214.86056468966422L899.9877865942833,214.08199994099533L900.6806982639976,208.75618708855137L901.0271540988546,200.33938613502082L901.7200657685686,197.41607578319702L902.0665216034257,204.58483933981535L902.4129774382828,192.89874875573676L903.1058891079967,216.86796703797108L903.4523449428539,204.81005322518502L904.145256612568,200.01654437901232L905.1846241171392,205.33797734876055L905.8775357868533,222.3517408287722L906.2239916217103,218.41908431396928L908.3027266308526,231.76577224663933L908.6491824657097,225.80354816370368L908.9956383005667,214.5089810571574L910.381461639995,195.02928342807635L911.0743733097089,204.1773542079105L911.7672849794232,202.1050567992487L913.1531083188513,200.6303100254391L915.5782991628507,187.6932748352683L916.6176666674219,176.74691203072368L917.310578337136,178.00224623568107L918.00349000685,178.8689721023239L918.349945841707,198.02829545815817L919.7357691811353,198.1095318407391L920.4286808508494,184.07728232580288L920.7751366857066,195.32373509865712L921.1215925205635,205.1110435275759L922.1609600251347,201.9388531279062L922.5074158599916,212.28407821095863L923.5467833645629,196.37319758630616L923.89323919942,207.58147947719777L924.932606703991,192.01404042214148L925.9719742085622,214.24283024911213L927.3577975479903,217.3740101079758L929.4365325571328,229.09501881188748L929.7829883919898,231.31938239520116L930.8223558965609,236.43679020172863L931.1688117314179,225.3245688743924L931.8617234011322,250.33968887939525L932.5546350708462,251.86315339156388L932.9010909057032,230.58208045369267L933.5940025754174,231.5246150569678L933.9404584102743,241.18938211453252L934.6333700799885,229.6468076408532L934.9798259148456,225.4985963642996L935.3262817497026,231.86953039364877L935.6727375845596,233.672439504982L936.3656492542738,222.08224276462147L937.0585609239878,209.72952023650973L937.4050167588448,195.74851330693363L938.7908400982731,185.9879527523574L939.1372959331301,197.28146416964492L939.8302076028443,190.68394207329854L940.8695751074154,193.59035055879278L941.5624867771296,174.06649344714407L942.6018542817006,182.03080061103324L946.7593242999853,219.62959403964783L948.1451476394135,217.60422371807087L949.1845151439846,238.8753869044955L950.9167943182699,238.50733993823297L951.6097059879841,228.96961432322445L952.6490734925552,233.4034109822248L954.7278085016975,246.5769232075513L955.0742643365544,251.48037338211554L955.7671760062686,240.83654675011385L956.8065435108397,251.28478282282015L957.8459110154109,211.80307186568797L958.1923668502678,219.19831599351105L958.538822685125,214.6937126449746L961.6569251988384,236.42183965811248L962.0033810336955,227.16995544385682L962.3498368685525,218.2171021174731L962.6962927034097,214.88561264403936L963.3892043731237,202.32908123024825L964.0821160428378,204.26538784548785L965.121483547409,205.874842400607L966.8537627216942,203.0708001962068L967.5466743914084,205.70002991315948L967.8931302262653,202.25140701511722L968.2395860611224,206.53407429970903L968.5860418959794,215.48675617306904L971.3576885748358,206.15130378810505L974.4757910885493,240.06475950972873L976.2080702628346,238.46549807337237L978.9797169416911,244.2409317922971L979.326172776548,253.8491298505664L980.3655402811193,233.05250417480184L981.7513636205474,237.86400867284564L982.7907311251186,224.28678909492987L984.1765544645467,216.35815416104697L985.215921969118,198.17323062864494L986.255289473689,207.67981748466104L986.6017453085461,222.87149703784456L986.9482011434033,221.7028393437627L987.6411128131172,208.03611509293208L990.4127594919737,233.88504836041062L991.1056711616877,205.25186699853646L991.7985828314019,193.55008277782875L992.4914945011159,215.63687199648814L994.2237736754012,224.5774701360707L995.9560528496864,222.86761433524595L998.727699528543,228.412761131541L999.0741553633999,231.09371936871273L999.420611198257,242.96785182962677L1000.8064345376852,256.44499749234666L1001.8458020422564,260.1673553331639L1002.8851695468275,262.2967234085777L1005.6568162256839,261.0869931342743L1006.349727895398,248.22841551662273L1007.7355512348262,262.92518567048097L1008.0820070696833,254.26144403990358L1008.4284629045404,249.75409474280758L1008.7749187393973,264.31736372000336L1009.4678304091115,260.2632745227431L1010.1607420788255,238.22545332090618L1011.2001095833967,237.38648046008726L1012.2394770879679,247.04887960119075L1012.5859329228249,235.3768836696331L1013.2788445925391,235.62678755475466L1013.9717562622532,211.5641405628749L1016.3969471062526,202.79700382843458L1017.7827704456807,215.75325225408756L1018.4756821153948,225.90563190760014L1019.1685937851089,219.7093997456054L1019.8615054548229,237.48779875955137L1020.20796128968,243.31210107189554L1020.9008729593942,248.59192360083435L1021.9402404639652,222.4747848756418L1022.6331521336795,218.09872653598046L1023.6725196382505,233.30660641594386L1024.3654313079646,226.68191262818564L1025.4047988125358,242.66457103441093L1025.751254647393,252.7767133330988L1026.09771048225,221.33132040885272L1029.5622688308206,228.66617487174875L1029.9087246656775,188.4056497845063L1030.6016363353915,221.81368719838218L1030.9480921702486,246.11483615342317L1031.2945480051055,227.40923036982787L1031.6410038399627,216.5400352795156L1032.680371344534,234.66049057889555L1033.026827179391,234.2404754073932L1033.719738849105,243.8045719817351L1034.759106353676,249.12639276764375L1035.4520180233903,251.0688034082035L1036.1449296931044,254.41178731395456L1036.8378413628184,253.47904215918973L1039.9559438765318,253.1517925647256L1040.302399711389,244.05668670271268L1041.34176721596,228.90400953968657L1042.0346788856743,222.96507913193037L1042.7275905553884,241.5625049604615L1043.4205022251024,225.66738753428913L1044.1134138948166,237.27200688083045L1044.4598697296735,228.64558754653757L1045.499237234245,247.6023849628135L1047.577972243387,238.71508220472654L1047.924428078244,214.28427510615754L1049.3102514176724,203.61585773359732L1050.3496189222435,214.6631691047937L1051.3889864268147,225.81488500532828L1052.0818980965287,230.39865592288234L1052.4283539313858,218.26462053046174L1053.814177270814,216.15477263988197L1055.2000006102421,219.7828767978073L1056.2393681148133,236.59998393260508L1056.5858239496704,241.05199332462198L1056.9322797845275,244.94953087736096L1057.2787356193844,227.52144709638995L1058.3181031239558,213.7366271378608L1059.7039264633838,233.3761863210358L1060.396838133098,230.48974601054567L1061.7826614725261,229.42589826957447L1062.129117307383,232.6706776620813L1062.8220289770973,229.19260868269424L1063.1684848119544,217.92775906231307L1064.9007639862396,225.94611966544957L1065.9401314908107,220.4624785808845L1066.2865873256678,228.05991150495828L1066.9794989953818,247.3180519768083L1067.672410665096,238.19943649679192L1068.3653223348101,234.48531579702004L1068.711778169667,226.70400958021855L1069.7511456742384,210.42382178937783L1070.0976015090955,214.00583158017622L1070.7905131788095,231.44586050646234L1071.8298806833805,233.55134759101065L1072.1763365182376,232.74335953301613L1072.8692481879518,250.29925528606708L1074.9479831970941,249.51213218549333L1075.9873507016653,234.7525032149261L1077.0267182062364,237.8906034870822L1077.3731740410935,236.96024936487115L1078.7589973805216,203.29932674580863L1080.8377323896639,220.88415918229825L1085.3416582428056,224.27107173272748L1086.7274815822338,215.90420156471706L1087.4203932519479,235.43096018345906L1089.1526724262333,227.43539350341283L1090.1920399308042,235.21247120859755L1090.8849516005184,230.05918666332605L1092.2707749399467,229.21861922605956L1094.0030541142319,243.32163868880775L1095.3888774536601,231.87491606008967L1096.7747007930882,228.7609041035924L1097.8140682976593,232.37925071890015L1100.932170811373,235.80370831591057L1103.010905820515,212.67819126302572L1106.4754641690856,220.6247272194591L1106.8219200039428,218.94483312038932L1107.1683758387999,215.27963509113874L1108.207743343371,226.334536204376L1108.554199178228,233.86303727570208L1110.2864783525133,208.63152863155742L1110.9793900222273,205.12487885100364L1112.3652133616556,221.78804355175708L1112.7116691965125,241.08093188857552L1113.0581250313696,221.28901015761585L1113.4045808662268,231.42110611205274L1113.7510367010839,227.4031363231156L1114.0974925359408,236.27574870344617L1114.443948370798,244.27596141397856L1117.2155950496544,226.0491794284769L1118.2549625542254,199.5484884398477L1120.3336975633679,214.57525304757792L1121.719520902796,213.45115771810316L1125.1840792513665,228.73673056602408L1125.5305350862234,234.4825100586188L1125.8769909210805,240.66231695510854L1128.30218176508,234.80749954825876L1130.0344609393653,233.94696232576558L1131.0738284439362,227.63875258704323L1131.7667401136505,239.51509306447343L1132.1131959485074,232.38153687673716L1132.4596517833645,242.81159785563716L1132.8061076182216,215.9761594213521L1134.1919309576497,215.64618641194875L1136.9635776365062,218.9688949950558L1137.310033471363,225.6375147459672L1138.3494009759345,239.44526179618833L1139.0423126456485,216.56168586494314L1139.3887684805056,236.3734684482166L1140.0816801502197,223.1153198903987L1141.8139593245048,231.2566278801908L1144.2391501685042,199.45456699880572L1144.9320618382183,206.0290837771153L1145.9714293427896,234.56142725112L1146.6643410125034,215.92749946058544L1148.3966201867888,226.9662667796482L1149.43598769136,230.13138272809474L1150.4753551959311,250.16456392423456L1153.5934577096446,243.36828330900818L1153.9399135445017,224.3564636411758L1154.9792810490728,237.77978883502354L1156.018648553644,232.7340633658508L1156.711560223358,229.73640093088693L1157.0580160582151,232.55493924195716L1159.1367510673574,263.76318291412707L1160.1761185719286,241.69776885638487L1160.5225744067857,228.31793826539442L1161.2154860764997,202.4818279882535L1162.2548535810708,212.78671590613249L1162.9477652507849,209.8763246548295L1163.6406769204991,217.6379866354481L1164.6800444250703,211.57394559943592L1165.0265002599274,223.46846383310324L1165.3729560947843,230.26688240305768L1167.7981469387837,245.23906844423774L1169.5304261130689,250.40291786549247L1170.2233377827831,211.88200953971685L1170.5697936176402,224.6892559743779L1170.9162494524971,238.91455328363222L1172.3020727919254,232.61138402559075L1172.6485286267823,226.31383831684653L1174.3808078010677,222.44671703366149L1174.7272636359246,214.37556531599986L1176.1130869753529,227.48902479682081L1177.1524544799242,226.85040325914278L1177.4989103147811,228.85565327199296L1178.1918219844952,237.56798226178773L1180.6170128284946,234.17811366528875L1180.9634686633515,237.58101633775317L1182.6957478376369,222.31382733782172L1186.8532178559215,204.76493982568954L1188.5854970302069,197.1157663578548L1189.2784086999209,202.89655456795043L1189.624864534778,222.7922244987118L1190.664232039349,211.7184527904199L1191.010687874206,208.1242775244325L1194.1287903879195,219.3094178814042L1196.207525397062,218.53218359331882L1197.59334873649,216.63468804699278L1197.9398045713472,217.5028891016465" fill="none"></path></g></g></g></g><g opacity="0.2"><g><g><g><path style="fill: none;" stroke="rgb(255, 112, 67)" stroke-width="2px" d="M160.65103500933697,333.65626412657423L160.997490844194,337.02356378333843L162.7297700184793,331.4345362470252L163.76913752305043,321.71024438939105L164.11559335790747,318.13422955752674L165.15496086247865,315.8923217290677L165.84787253219272,313.6857497447582L167.2336958716209,310.58391803906494L171.39116588990555,319.8725749641457L172.77698922933374,321.7273756511874L173.46990089904784,326.0355321224969L174.16281256876195,324.5073938826741L174.50926840361902,328.89846627005403L175.2021800733331,324.4188601611356L177.28091508247542,328.80641571094617L177.62737091733246,334.4114897701951L177.97382675218952,331.92717135213184L178.32028258704656,332.6370967784899L178.6667384219036,333.0110386156297L181.43838510076,335.9143897525259L182.47775260533115,331.62691944159474L183.51712010990235,333.2854090375608L183.8635759447594,334.1954174013486L184.21003177961643,332.64150804985667L184.55648761447347,333.5242380858741L186.28876678875875,336.54004048466163L189.06041346761515,335.23779054884915L189.4068693024722,337.3358011067608L191.48560431161448,328.82004916567945L194.25725099047088,334.1462806340101L195.29661849504205,334.18231680079253L195.64307432989912,330.95366580093054L198.06826517389845,332.53786410629385L199.1076326784696,336.1894795275963L199.80054434818373,334.0848806083939L202.57219102704013,336.86189582598206L203.61155853161125,331.06655095836607L203.95801436646832,331.8068072057094L207.0761168801818,335.9843382815845L207.7690285498959,335.7633560421055L208.11548438475293,333.8876522469133L208.46194021960997,332.5337839657372L210.88713106360933,330.91391868541416L212.61941023789458,329.8768626613816L213.3123219076087,332.1879387681399L213.65877774246573,330.7022880367446L215.04460108189394,326.9964699273193L216.77688025617923,328.4182352489719L217.12333609103626,329.9387574801623L218.16270359560738,328.46196354641205L220.2414386047497,327.00369771362256L220.58789443960674,328.27211902138663L221.28080610932088,328.7724424510497L222.32017361389202,326.7800359788526L223.0130852836061,329.1452234273035L223.35954111846314,328.296272540018L224.05245278817728,327.1105311700459L224.74536445789136,329.7736259706542L225.09182029274842,331.25754873207495L227.51701113674778,322.64716950132896L230.28865781560418,321.35389054619947L230.63511365046125,324.6141283804644L230.9815694853183,323.5499919459274L232.36739282474647,323.9866316892149L235.831951173317,327.34462162228357L236.17840700817405,321.32132554377125L236.87131867788815,323.7514603042178L238.25714201731637,318.9148228660826L239.2965095218875,320.7272235850258L239.64296535674455,319.4538543456165L239.9894211916016,323.00651874621656L241.02878869617277,327.87772700214697L245.18625871445738,319.1294451103468L247.2649937235997,320.488257517067L248.30436122817082,320.69789376867334L248.99727289788493,311.41494218938965L249.34372873274197,315.44786044767943L250.0366404024561,317.3620439266665L251.4224637418843,315.729789786724L252.8082870813125,323.24033896526436L253.50119875102658,319.28262165577974L255.23347792531186,323.1325692079297L260.08385961331055,315.671617334981L261.81613878759583,313.24799481379983L262.16259462245284,311.0928660941958L263.54841796188106,307.96752790708643L263.8948737967381,304.86056938298844L265.28069713616634,311.10197409452434L265.62715297102335,314.1736462537892L266.3200646407375,309.9235746938935L267.35943214530863,305.8990108278817L269.0917113195939,317.567196590982L269.4381671544509,317.00845711909494L269.784622989308,311.09708325439806L271.5169021635932,306.13495865753697L271.8633579984503,313.40914894748533L272.20981383330735,309.6494136075319L273.2491813378785,305.40746046163576L276.36728385159194,308.22274983355055L277.060195521306,302.27456716351423L279.13893053044836,305.3064160852374L281.21766553959066,305.4575335298856L281.5641213744477,304.0834244021792L283.64285638359,294.97891807463054L284.68222388816116,305.2533742580004L286.0680472275894,305.0496717182671L287.4538705670176,307.39904100985825L288.14678223673167,307.6322332221972L289.5326055761599,299.33567084689884L289.87906141101695,299.11853276969805L290.225517245874,302.70390299847315L290.9184289155881,296.7522567762852L292.6507080898733,302.70344626632124L294.38298726415854,302.03668583441606L294.72944309901567,308.35961723506045L295.0758989338727,306.07445687181945L300.27273645672847,296.2792497354052L302.6979273007278,301.12496472505876L304.7766623098701,296.2933170856827L305.1231181447272,295.1654398732511L305.81602981444126,294.36700356196224L306.5089414841554,305.74757367072715L307.89476482358356,299.07367406018204L311.01286733729705,293.6201094740117L311.70577900701113,303.830881971006L312.0522348418682,293.15570422199187L313.09160234643934,285.1552260763447L315.17033735558164,284.3915927550282L317.941984034438,287.8586084588492L318.28843986929513,289.7731991906717L319.3278073738662,282.83268979867586L319.6742632087233,273.4455652277535L322.7923657224368,275.033204248661L323.1388215572938,281.9814400262259L326.94983574072137,282.81280672566453L327.9892032452925,288.24460802479825L328.3356590801496,288.842325779746L329.02857074986366,289.0638408734022L329.72148241957774,283.00059976210775L334.57186410757646,266.13388484033925L336.30414328186174,261.1696250206681L336.9970549515759,252.36114963735304L338.036422456147,262.44221020321675L338.7293341258611,257.2723143443694L340.4616133001463,264.88037583733364L340.8080691350034,265.5959761606787L342.8868041441457,269.7827560626291L343.5797158138598,261.509974208038L343.92617164871683,264.9874414659342L344.61908331843097,260.92238068245666L344.96553915328803,264.2589917447166L346.0049066578591,262.1215385593899L346.69781832757326,252.01018142745224L348.4300975018585,258.11302882851624L348.77655333671555,260.2464932197166L351.89465585042905,260.2563966952097L352.5875675201431,273.5970632825283L353.97339085957134,261.6124801273223L354.3198466944284,260.5656880962524L354.6663025292854,253.05608283082597L356.05212586871363,258.21633402906633L357.43794920814184,257.9540403664508L357.78440504299886,258.16211231043707L358.82377254757006,256.60365086183145L359.51668421728414,247.96972328255538L359.8631400521412,263.3848216304454L360.2095958869982,253.5414825374267L360.5560517218553,253.2869076481778L360.90250755671235,248.87893997727997L361.2489633915694,249.99580233264896L361.9418750612835,248.81715934153723L362.28833089614056,248.83478159039683L364.0206100704258,249.7810620992455L364.36706590528286,248.06838503956152L365.752889244711,256.4248630609825L366.7922567492822,253.54937639145152L367.4851684189963,226.25910507533564L369.56390342813864,244.52123567969525L370.2568150978527,250.05105931082252L371.989094272138,243.90933639143202L373.37491761156616,242.50331691071503L373.7213734464233,241.5071536386798L374.41428511613736,249.48283884068297L378.571755134422,250.99639590655735L380.9969459784213,258.2748566421257L381.3434018132783,255.45984892170466L382.03631348299245,255.96019138187407L382.3827693178495,249.1482520906292L382.72922515270653,258.513240376591L383.0756809875636,240.0626316375603L383.7685926572777,257.8031056146633L384.8079601618489,247.84520287355102L386.19378350127704,232.68508286164408L386.5402393361341,214.5011143528742L387.9260626755623,226.10877929975067L388.96543018013347,219.70642979009895L390.3512535195617,236.21139001098007L391.3906210241328,225.15401118507978L391.73707685898984,228.45463175377247L392.08353269384696,234.26010846295745L392.4299885287039,229.64362734032665L392.77644436356104,220.3953493435723L393.4693560332751,230.03912693503457L393.8158118681322,227.8045648820181L394.1622677029892,228.08373479764518L395.2016352075604,229.78253481211485L395.54809104241747,239.95467538126368L395.8945468772745,217.89673520915557L396.58745854698856,233.97294573467263L397.28037021670275,218.11893540103958L397.62682605155976,223.84428606638176L400.05201689555906,238.09408561419707L401.09138440013027,217.7585128355951L402.4772077395584,228.70116054494605L403.5165752441296,238.49564452211982L404.2094869138437,242.89982131615716L404.9023985835578,233.48788096498328L406.288221922986,240.7982748901698L407.6740452624142,238.07883076032468L408.71341276698536,233.1993480402429L409.0598686018424,230.7468181799497L409.4063244366995,237.44850994193607L409.7527802715565,228.57470663649872L411.83151528069885,233.2153336655583L413.91025028984114,214.017069618324L414.6031619595552,195.29071645480528L414.9496177944123,206.61091418529574L416.3354411338405,209.68140264706696L417.37480863841165,219.16369497403363L417.72126447326866,214.0943334740151L418.76063197783986,210.56676269905896L419.10708781269693,200.31557701882676L419.45354364755394,194.92118969513356L420.146455317268,223.15428558014898L420.8393669869821,227.67929847716564L422.91810199612445,232.1187958909474L423.95746950069565,215.7840292942576L424.30392533555266,202.28506695530388L425.3432928401238,201.61123478724727L425.6897486749809,209.5928422828197L426.0362045098379,202.74160118990656L426.72911617955197,213.42389634828734L427.0755720144091,205.55921228359327L429.1543070235513,214.5688781798064L430.5401303629796,220.89769381300735L430.8865861978366,217.20579080980895L431.5794978675507,210.4283728570428L432.27240953726476,210.062987135548L432.96532120697896,221.17579802028007L433.31177704183597,218.03785021967786L433.65823287669303,200.8694865482078L434.00468871155005,201.17118858332705L434.35114454640717,219.02160560158737L435.3905120509783,213.85567570025873L436.0834237206924,211.20407151937115L436.7763353904065,193.83270563080063L437.8157028949777,193.4670610944198L438.50861456469175,193.3203891760498L438.85507039954877,187.85415788486762L439.20152623440583,204.50143584427093L441.2802612435481,197.44187921689058L441.6267170784052,193.3554814297183L442.31962874811927,209.43945640181718L443.3589962526905,191.68382652947463L444.74481959211863,208.61919590587152L445.78418709668983,185.0208352051566L446.8235546012609,188.2318905988679L447.170010436118,171.28166220313022L447.86292210583207,170.55118002383685L448.5558337755462,188.52489949869658L449.2487454452603,179.33814332279894L450.98102461954556,208.41856869596077L452.0203921241167,188.23912219127251L452.7133037938308,190.4682339072767L457.9101413166866,207.29106448145322L459.2959646561148,208.16461039511685L459.98887632582887,195.38644751383688L460.33533216068594,198.05289548966022L461.72115550011415,207.28614699861808L462.41406716982823,212.91059030720743L462.7605230046853,213.6909476374849L463.7998905092565,192.75751247208706L464.4928021789706,191.20614559624045L465.18571384868466,191.2520167286931L466.22508135325586,199.7807284445837L466.91799302296994,194.8611903147831L467.26444885782695,191.13411893589083L467.957360527541,181.04598663387566L469.3431838669693,196.77398456680822L470.72900720639745,182.91804037795416L473.15419805039676,209.8915907833569L473.5006538852538,204.50094866330892L473.8471097201109,185.86682494565753L474.1935655549679,186.76955604382556L474.886477224682,205.86426368782622L475.9258447292532,191.8581764162479L476.27230056411025,195.75382763239486L476.61875639896726,186.35650271008078L477.65812390353847,188.36102400260617L478.0045797383954,192.78831144352802L478.35103557325255,191.75748220116597L478.6974914081096,204.84252341528634L481.469138086966,178.15362371133313L481.81559392182305,180.08552459171148L482.85496142639414,202.24948752067328L485.2801522703935,186.31841124861495L486.3195197749647,183.0325888016428L489.09116645382113,178.98944354925243L489.43762228867814,161.6245023596182L490.1305339583922,144.61996851102333L490.4769897932493,148.90647587833428L490.8234456281064,154.40929141488104L491.8628131326775,163.3604499224399L492.20926896753457,146.91535206226365L492.90218063724865,145.02207549752836L493.5950923069627,139.2857328117312L495.327371481248,163.25946644366175L495.6738273161051,145.5193350156726L497.0596506555333,154.18491413307314L497.40610649039036,141.168611107809L497.75256232524737,169.984603789444L498.09901816010444,151.29556564273292L499.1383856646755,152.3798477712687L499.48484149953265,160.79634039744522L499.8312973343897,164.8249463430011L500.8706648389608,145.22909695756525L501.2171206738179,136.39312629870767L503.98876735267424,148.45414357952882L505.3745906921025,139.86879707680652L506.0675023618166,117.46345120558216L506.76041403153073,137.88931993060854L507.1068698663878,149.074340168551L508.1462373709589,152.34962732722005L509.18560487553003,105.09410927343968L509.53206071038716,123.94402370844391L509.87851654524417,143.11357452773075L510.22497238010124,121.09788207967048L511.2643398846723,133.22177615339882L514.0359865635288,115.90769970107765L514.7288982332428,127.79852335770751L515.421809902957,110.58905379256932L516.114721572671,113.48787186285824L516.4611774075281,115.82411771728573L517.5005449120993,112.98126456000573L518.1934565818134,139.71021967367778L518.8863682515275,137.1339610734434L520.6186474258127,143.30675700356608L523.0438382698121,138.4117453903208L523.3902941046692,132.60715169662942L524.4296616092403,126.06956379680942L525.1225732789544,143.2842248840739L527.2013082880967,114.0054711861657L527.5477641229537,111.79881546762839L528.2406757926678,132.7997860938825L528.933587462382,137.17636104154187L530.3194108018101,101.79845186079733L531.7052341412383,117.8536831561386L532.3981458109524,132.03591679428752L534.1304249852377,140.68089729163876L534.4768808200948,132.29202173624523L534.8233366549517,143.0663331988225L537.2485274989511,121.00271432362612L537.5949833338083,143.23858211769715L539.6737183429505,140.3187391440172L541.0595416823787,118.25862188198519L541.4059975172357,134.9425906575886L541.7524533520929,143.99496101000148L544.8705558658063,140.38868006087333L545.5634675355204,159.7036848461252L546.6028350400916,141.9135412475065L548.6815700492339,160.27260563889766L549.0280258840909,156.95733919253504L550.413849223519,151.9875757504339L551.4532167280903,136.06494902318514L551.7996725629473,124.61258823234898L552.1461283978043,133.3340865895433L553.1854959023756,147.4066588380286L556.996510085803,131.63181541071935L558.0358775903742,173.34192004258867L559.0752450949454,150.65769351943345L559.4217009298025,143.5798828303834L559.7681567646595,123.50310971343517L560.8075242692306,123.312408815625L561.1539801040877,109.15427541068966L561.5004359389447,137.1895758251359L566.6972734618005,114.80386943644194L567.7366409663716,116.9037411778724L568.4295526360858,143.5503018113474L568.7760084709429,125.95862355712057L569.4689201406569,106.79102146168168L569.8153759755139,101.77884282707707L570.8547434800851,107.34719942741701L571.8941109846563,130.05057825214058L572.2405668195133,114.61228552313818L572.9334784892274,104.15552470135002L573.6263901589415,79.02322906858484L574.3193018286556,64.10224639919372L575.0122134983698,97.23539317553002L576.0515810029409,98.70028543062286L576.744492672655,93.34701922500287L577.4374043423691,100.3789283327901L578.1303160120832,124.0923246381556L578.8232276817972,70.74958703510768L579.5161393515114,97.28313690980532L582.9806977000819,115.14510925150795L584.3665210395101,108.0575701676231L585.7523443789383,99.49810515350667L586.0988002137954,110.02648157670782L586.4452560486524,131.48929975493132L587.1381677183665,110.48732431794312L588.1775352229376,91.90816070256653L589.2169027275088,101.92816379192796L589.9098143972229,62.10739260388284L590.9491819017941,68.13820573239465L593.0279169109364,80.50544669663851L593.7208285806505,82.68153180981078L594.4137402503645,59.802021842921654L594.7601960852217,96.56019081101779L595.7995635897928,117.29506928559331L596.1460194246498,107.82768165118263L596.4924752595068,119.43461582661611L597.531842764078,131.33401082329607L600.3034894429344,86.00913002427383L602.0357686172197,62.38688223201621L602.7286802869338,87.41178491147205L604.8074152960761,64.21003518703466L606.1932386355044,100.47481163587237L606.5396944703614,107.30825539926771L606.8861503052184,124.33092151429172L607.2326061400754,102.77217435977076L609.3113411492178,68.85749797396723L610.3507086537888,107.10226919877499L612.7758994977883,65.2359164977515L613.4688111675024,18.15724513317461L614.5081786720735,65.37098741946409L614.8546345069306,57.00514638892976L615.8940020115017,67.51781122610664L616.2404578463587,87.67008216775872L617.972737020644,110.8145272315417L618.3191928555011,93.10954895484136L618.6656486903581,86.21039665919723L619.7050161949293,45.52810683748767L620.7443836995004,90.29830166247068L621.0908395343574,103.52167182098691L621.4372953692146,77.43602394322161L621.7837512040716,90.92183239620151L622.1302070389287,85.31943402614233L624.2089420480709,79.04302079516579L626.2876770572133,87.85493689402496L628.3664120663556,56.082242954054216L629.7522354057838,72.00773186945473L630.4451470754979,76.03209020599822L632.1774262497831,44.16671008800823L633.5632495892113,77.64490278067613L635.9884404332107,85.2949531828022L636.6813521029247,62.54043558147439L637.720719607496,66.65808907223953L638.41363127721,64.01278779504773L638.760087112067,28.347457071132354L639.7994546166382,55.27200011663952L640.1459104514953,53.25123438391268L640.8388221212094,77.01074541221185L641.1852779560664,53.69816201892103L642.2246454606376,37.42832750982179L648.1143946532075,80.86224585367817L648.4608504880645,83.92847148203195L648.8073063229216,7.887196415070262L649.1537621577786,16.056064092908755L650.5395854972068,23.784550629915675L651.578953001778,27.66780918034194L652.9647763412062,48.29014885269707L653.3112321760632,72.97469473258052L653.6576880109202,91.59901393337182L655.0435113503485,86.51613316165798L655.3899671852055,72.01205560049242L655.7364230200625,48.72754601013644L656.4293346897767,74.87634472010008L657.1222463594908,63.522074771080234L657.8151580292049,76.12030040892905L658.5080696989189,58.38880121861023L661.2797163777755,55.89851483376259L663.0119955520606,52.7164314828848L663.3584513869176,40.766948193549965L666.4765539006311,63.33189150304222L666.8230097354882,71.77184493741971L670.6340239189158,74.02530047711848L672.366303093201,47.61235833932425L673.4056705977722,52.07764589528155L673.7521264326292,82.518052148252L674.7914939372004,94.75488085873234L675.4844056069145,54.8344202663394L675.8308614417715,79.14596822219694L678.6025081206279,109.63774161784752L678.9489639554849,100.79805620415475L679.295419790342,71.51187299657616L679.6418756251991,120.33035892286058L680.6812431297702,78.28128291227955L681.3741547994844,83.85706902228986L681.7206106343414,87.36909567967743L682.0670664691984,102.53028901214121L684.8387131480548,77.988304461261L686.5709923223401,66.22754289707821L686.9174481571971,97.46086661450241L687.9568156617684,118.33766699306854L690.3820065057677,117.27305479587328L691.0749181754818,74.13844825554139L694.5394765240522,73.56622376687044L696.2717556983375,86.4220767871832L696.6182115331945,42.37400594311436L697.3111232029087,112.06901820867378L697.6575790377657,78.38690983460168L699.736314046908,90.32978573213947L700.0827698817651,43.9153856092401L702.1615048909074,85.18844324498646L702.5079607257644,116.83498776461114L705.6260632394778,107.26197320787833L707.0118865789061,114.54188787413017L707.7047982486201,111.63883741923391L709.0906215880484,109.88894430137519L712.2087241017618,98.4421708671969L712.901635771476,54.44348799315011L713.9410032760471,92.13393862964018L714.6339149457613,132.96143882683378L714.9803707806183,121.07658313698832L716.7126499549034,82.98513689556283L717.7520174594747,92.00684529618026L719.4842966337599,102.59118663239033L720.177208303474,48.469705486001615L721.5630316429022,63.86434984569049L722.2559433126164,84.14094327908118L722.6023991474733,150.3675772565666L722.9488549823304,129.4019120256519L723.6417666520446,83.11719338507305L724.3346783217586,34.59701445157902L726.0669574960439,116.44917089152278L727.106325000615,137.97651009840024L727.7992366703292,98.56095167549284L728.8386041749003,182.6066099480001L729.8779716794714,88.28813211566717L731.2637950188996,83.90012363980598L732.3031625234709,158.347966799734L733.688985862899,103.14422837068284L734.0354416977561,78.79924762130851L734.381897532613,129.3397660041877L736.8070883766125,81.78323101351586L737.5000000463265,159.25441265273727L738.1929117160406,80.69027097409462L739.2322792206118,140.98016342194805L739.5787350554689,88.22513352751945L741.6574700646112,144.97134777986082L742.0039258994683,115.57937018150446L743.3897492388965,113.43577394873512L744.7755725783246,128.60135190985685L745.8149400828958,150.55561388349082L746.1613959177528,106.33407616814237L746.5078517526099,114.84780706945166L746.854307587467,104.91686674970462L747.547219257181,138.37417155862707L748.5865867617523,133.6696172527109L751.0117776057515,152.18092569472492L751.3582334406086,108.1284549975931L753.0905126148939,146.0365994020687L753.7834242846079,187.85523881762703L754.1298801194649,197.5241519018472L754.476335954322,140.80690969233927L757.5944384680355,94.83072884475264L758.9802618074636,103.54067187850465L759.3267176423208,149.76925813761886L759.6731734771779,150.52726604126485L760.0196293120349,107.98647219598223L760.7125409817489,168.19043810166417L762.4448201560342,197.55982268290808L762.7912759908913,154.76811541779398L763.4841876606054,109.40380340966047L763.8306434954624,110.40581285323967L764.1770993303195,163.85748107450823L765.2164668348905,151.6883096201246L765.9093785046048,133.54428995023824L766.2558343394618,146.63018373104205L766.6022901743188,159.28225808959616L769.7203926880323,195.48006238056487L770.7597601926035,147.98316138452205L773.8778627063169,184.146071339088L775.9565977154592,166.39927162168155L776.3030535503161,156.60226039326744L778.3817885594585,174.19183767959566L778.7282443943157,170.16755546507744L779.0747002291727,115.92146256325397L779.7676118988867,172.02566365411894L781.8463469080291,135.9094012766638L783.9250819171714,139.58012713242059L784.2715377520285,183.7966407940985L787.0431844308848,138.04491335034507L787.389640265742,167.97601758076695L788.429007770313,143.26376328367016L789.4683752748841,150.07402027815567L790.8541986143125,198.4738350652273L791.5471102840265,201.1496156013538L792.9329336234547,147.44452193341849L795.011668632597,141.55662029522634L796.3974919720251,211.1449551545143L796.7439478068823,167.7278445538467L797.7833153114534,198.61536113468625L798.4762269811675,177.17344606461324L799.5155944857386,174.65092961424875L800.9014178251668,211.55692755549964L801.594329494881,180.8831159485194L802.287241164595,183.80276100493353L802.6336969994521,195.4810215180838L802.9801528343091,186.31723896942518L805.4053436783086,139.75800908116827L806.0982553480226,203.81209000745585L806.4447111828797,125.37540704799467L808.523446192022,176.13747097334013L808.869902026879,202.13979568219955L809.216357861736,173.81007049825385L809.9092695314503,191.1474098415102L810.6021812011642,196.55715858991124L814.759651219449,185.74618675994398L817.8777537331624,221.52688802542136L819.2635770725906,170.41971728612404L820.9958562468759,206.85197741505192L821.3423120817329,198.18505855000595L823.0745912560182,183.20885696345388L823.421047090875,171.00827756142684L823.7675029257322,174.35906254479977L825.1533262651603,186.62391938499977L825.4997821000175,196.16858609950657L827.5785171091597,247.4581223748425L828.964340448588,197.9708054975644L829.310796283445,169.23600456812653L829.6572521183022,226.56813004928986L830.3501637880162,203.31275997022314L830.6966196228732,197.18881915594534L832.4288987971585,214.66622302577468L833.4682663017296,210.55124903030048L834.1611779714437,212.17474913733213L835.2005454760149,216.39489332297657L836.2399129805862,163.4560287374209L837.2792804851572,242.51733858777743L837.9721921548714,245.28426763701182L840.0509271640136,251.24339665428784L840.3973829988706,194.4730897809354L841.0902946685849,152.23806288692364L841.7832063382988,205.64673738829634L844.9013088520123,225.34320486678877L845.2477646868693,236.93410774369167L845.5942205217265,170.67184865836052L845.9406763565835,177.7542418933343L850.7910580445822,168.49501754934016L852.1768813840105,220.52315822407016L853.5627047234386,166.46487358309497L853.9091605582956,153.36262879125422L854.9485280628668,200.34194568839465L855.2949838977239,135.01991541089993L856.3343514022949,225.0005035088368L857.0272630720092,205.05321395694324L857.7201747417231,240.93468555952788L859.4524539160084,174.95884320663345L860.4918214205796,198.22534232580068L861.1847330902937,165.08120352900943L861.5311889251508,212.9203795996625L862.2241005948649,164.97416073701652L863.2634680994361,180.84162944472465L864.3028356040071,155.4425565620531L864.9957472737212,171.17646156414986L866.0351147782924,179.8057913730971L867.0744822828636,174.53423454944635L867.4209381177205,179.2391846898941L868.4603056222918,189.32270399717538L869.499673126863,155.42070954078875L872.2713198057193,174.80152942912488L872.6177756405764,176.86713103476015L873.3106873102905,172.45662088821695L875.0429664845758,189.53511489660434L876.7752456588611,145.8079440624383L877.121701493718,199.39891559002675L877.4681573285751,244.8282814809914L878.1610689982892,218.99270968077914L878.5075248331464,198.78454994814336L879.2004365028604,191.1017975239436L879.8933481725745,220.12354803999534L880.9327156771456,207.26507642201187L881.2791715120027,144.61619285856793L882.6649948514308,235.09993231940808L884.3972740257161,218.7001575131023L885.0901856954301,238.92781970862282L887.1689207045725,152.28927778555317L887.5153765394296,196.45337382060168L887.8618323742867,232.3147644329091L888.2082882091437,242.00228174011534L888.5547440440007,156.37802013110507L889.594111548572,155.6839090555055L890.287023218286,192.83945022013222L891.3263907228572,209.97150368552877L891.6728465577141,189.40068339990438L892.7122140622854,260.2812124754612L893.4051257319994,187.12367570557424L894.0980374017136,183.73740263400117L894.4444932365707,184.5530196864028L894.7909490714277,178.298788413602L896.1767724108558,217.11388107644794L897.5625957502841,184.90622588384778L897.9090515851411,226.25673006814597L898.2555074199981,246.36644879764899L899.6413307594264,203.5025169549194L899.9877865942833,212.91415281799203L900.6806982639976,200.76746780988543L901.0271540988546,187.71418470472503L901.7200657685686,193.03111025546136L902.0665216034257,215.33798467474278L902.4129774382828,175.36961287961887L903.1058891079967,252.82179446132253L903.4523449428539,186.72318250600583L904.145256612568,192.82628110975338L905.1846241171392,213.32012680338283L905.8775357868533,247.87238604878974L906.2239916217103,212.52009954176495L908.3027266308526,251.78580414564428L908.6491824657097,216.86021203930017L908.9956383005667,197.567130397338L910.381461639995,165.80973698445482L911.0743733097089,217.8994603776617L911.7672849794232,198.9966106862559L913.1531083188513,198.41818986472464L915.5782991628507,168.28772205001215L916.6176666674219,160.32736782390668L917.310578337136,179.88524754311712L918.00349000685,180.16906090228824L918.349945841707,226.7672804919096L919.7357691811353,198.23138641461043L920.4286808508494,163.02890805339854L920.7751366857066,212.1934142579385L921.1215925205635,219.79200617095404L922.1609600251347,197.18056752840158L922.5074158599916,227.80191583553724L923.5467833645629,172.50687664932755L923.89323919942,224.3939023135352L924.932606703991,168.66288183955692L925.9719742085622,247.58601498956813L927.3577975479903,222.0707798962714L929.4365325571328,246.676531867755L929.7829883919898,234.65592777017173L930.8223558965609,244.11290191151983L931.1688117314179,208.6562368833881L931.8617234011322,287.86236888689956L932.5546350708462,254.14835015981689L932.9010909057032,198.6604710468858L933.5940025754174,232.93841696188042L933.9404584102743,255.68653270087955L934.6333700799885,212.33294593033435L934.9798259148456,219.27627944946923L935.3262817497026,241.42593143767252L935.6727375845596,236.37680317198175L936.3656492542738,204.69694765408082L937.0585609239878,191.20043644434213L937.4050167588448,174.77700291256954L938.7908400982731,171.347111920493L939.1372959331301,214.22173129557626L939.8302076028443,180.78765892877885L940.8695751074154,197.94996328703414L941.5624867771296,144.78070777967093L942.6018542817006,193.977261356867L946.7593242999853,276.02778418256975L948.1451476394135,214.56616823570533L949.1845151439846,270.78213168413254L950.9167943182699,237.95526948883918L951.6097059879841,214.66302590071157L952.6490734925552,240.05410597072543L954.7278085016975,266.337191545541L955.0742643365544,258.83554864396206L955.7671760062686,224.87080680211116L956.8065435108397,266.9571369318796L957.8459110154109,152.58050542998959L958.1923668502678,230.29118218524576L958.538822685125,207.93680762216994L961.6569251988384,269.0140301778193L962.0033810336955,213.29212912247328L962.3498368685525,204.78782212789756L962.6962927034097,209.88837843388873L963.3892043731237,183.4942841095616L964.0821160428378,207.16984776834732L965.121483547409,208.2890242332858L966.8537627216942,198.86473688960643L967.5466743914084,209.64387448858847L967.8931302262653,197.07847266805388L968.2395860611224,212.9580752265967L968.5860418959794,228.91577898310902L971.3576885748358,192.14812521065906L974.4757910885493,290.93494309216436L976.2080702628346,236.06660591883775L978.9797169416911,252.90408237068414L979.326172776548,268.2614269379704L980.3655402811193,201.85756566115498L981.7513636205474,245.08126541991132L982.7907311251186,203.92095972805623L984.1765544645467,204.46520176022273L985.215921969118,170.89584533004188L986.255289473689,221.93969776868516L986.6017453085461,245.6590163676199L986.9482011434033,219.94985280263978L987.6411128131172,187.5360287166862L990.4127594919737,272.65844826162845L991.1056711616877,162.3020949557252L991.7985828314019,175.99740644676714L992.4914945011159,248.76705582447727L994.2237736754012,237.98836734544457L995.9560528496864,220.30283063400879L998.727699528543,236.7304813259836L999.0741553633999,235.11515672447044L999.420611198257,260.7790505209978L1000.8064345376852,276.66071598642657L1001.8458020422564,265.7508920943899L1002.8851695468275,265.4907755216983L1005.6568162256839,259.27239772281916L1006.349727895398,228.9405490901453L1007.7355512348262,284.97034090126834L1008.0820070696833,241.26583159403756L1008.4284629045404,242.99307079716365L1008.7749187393973,286.16226718579696L1009.4678304091115,254.18214072685262L1010.1607420788255,205.1687215181508L1011.2001095833967,236.128021168859L1012.2394770879679,261.54247831284596L1012.5859329228249,217.86888977229663L1013.2788445925391,236.00164338243698L1013.9717562622532,175.47017007505522L1016.3969471062526,189.6462987267742L1017.7827704456807,235.18762489256687L1018.4756821153948,241.13420138786907L1019.1685937851089,210.4150515026133L1019.8615054548229,264.1553972804703L1020.20796128968,252.0485545404117L1020.9008729593942,256.5116573942426L1021.9402404639652,183.29907678785298L1022.6331521336795,211.5346390264885L1023.6725196382505,256.11842623588893L1024.3654313079646,216.74487194654833L1025.4047988125358,266.6385586437488L1025.751254647393,267.9449267811306L1026.09771048225,174.1632310224836L1029.5622688308206,239.66845656609274L1029.9087246656775,128.01486215364255L1030.6016363353915,271.92574331919593L1030.9480921702486,282.56655958598463L1031.2945480051055,199.350821694435L1031.6410038399627,200.2362426440472L1032.680371344534,261.8411735279654L1033.026827179391,233.6104526501397L1033.719738849105,258.1507168432479L1034.759106353676,257.10912394650677L1035.4520180233903,253.98241936904307L1036.1449296931044,259.4262631725811L1036.8378413628184,252.07992442704256L1039.9559438765318,252.66091817302936L1040.302399711389,230.41402790969326L1041.34176721596,206.1749937951474L1042.0346788856743,214.05668352029608L1042.7275905553884,269.45864370325813L1043.4205022251024,201.82471139503056L1044.1134138948166,254.6789359006425L1044.4598697296735,215.70595854509818L1045.499237234245,276.0375810872273L1047.577972243387,225.38412806759618L1047.924428078244,177.638064458304L1049.3102514176724,187.613231674757L1050.3496189222435,231.2341361615883L1051.3889864268147,242.5424588561302L1052.0818980965287,237.27431229921342L1052.4283539313858,200.06356744183083L1053.814177270814,212.9900008040123L1055.2000006102421,225.22503303469531L1056.2393681148133,261.8256446348019L1056.5858239496704,247.7300074126472L1056.9322797845275,250.7958372064694L1057.2787356193844,201.37932142493352L1058.3181031239558,193.05939720006702L1059.7039264633838,262.8355250957983L1060.396838133098,226.16008554481058L1061.7826614725261,227.83012665811765L1062.129117307383,237.53784675084157L1062.8220289770973,223.97550521361356L1063.1684848119544,201.03048463174144L1064.9007639862396,237.97366057015444L1065.9401314908107,212.23701695403687L1066.2865873256678,239.45606089106886L1066.9794989953818,276.2052626845833L1067.672410665096,224.52151327676722L1068.3653223348101,228.91413474736225L1068.711778169667,215.03205025501623L1069.7511456742384,186.00354010311685L1070.0976015090955,219.37884626637384L1070.7905131788095,257.6059038958916L1071.8298806833805,236.7095782178331L1072.1763365182376,231.53137744602432L1072.8692481879518,276.6330989156436L1074.9479831970941,248.3314475346327L1075.9873507016653,212.61305975907524L1077.0267182062364,242.5977538953164L1077.3731740410935,235.56471818155453L1078.7589973805216,152.80794281721504L1080.8377323896639,247.26140783703272L1085.3416582428056,229.35144055837128L1086.7274815822338,203.3538963127014L1087.4203932519479,264.721098111572L1089.1526724262333,215.4420434833435L1090.1920399308042,246.87808776637456L1090.8849516005184,222.32925984541885L1092.2707749399467,227.95776807015986L1094.0030541142319,264.47616788293004L1095.3888774536601,214.70483211701264L1096.7747007930882,224.0898861688465L1097.8140682976593,237.80677064186168L1100.932170811373,240.94039471142622L1103.010905820515,177.98991568369843L1106.4754641690856,232.5445311541091L1106.8219200039428,216.42499197178475L1107.1683758387999,209.78183804726285L1108.207743343371,242.91688787423197L1108.554199178228,245.1557888826912L1110.2864783525133,170.7842656653404L1110.9793900222273,199.86490418017308L1112.3652133616556,246.78279060288722L1112.7116691965125,270.02026439380325L1113.0581250313696,191.60112756117636L1113.4045808662268,246.61925004370815L1113.7510367010839,221.3761816397098L1114.0974925359408,249.58466727394205L1114.443948370798,256.27628047977714L1117.2155950496544,198.70900645022436L1118.2549625542254,159.7974519569038L1120.3336975633679,237.1153999591733L1121.719520902796,211.76501472389094L1125.1840792513665,251.6650898379055L1125.5305350862234,243.1011792975109L1125.8769909210805,249.9320272998431L1128.30218176508,226.02527343798408L1130.0344609393653,232.65615649202573L1131.0738284439362,218.17643797895983L1131.7667401136505,257.32960378061875L1132.1131959485074,221.68120259513265L1132.4596517833645,258.4566893239871L1132.8061076182216,175.72300176992456L1134.1919309576497,215.15122689784383L1136.9635776365062,223.9529578697163L1137.310033471363,235.64044437233431L1138.3494009759345,260.15688237152006L1139.0423126456485,182.2363219680753L1139.3887684805056,266.09114232312686L1140.0816801502197,203.22809705367177L1141.8139593245048,243.46858986487894L1144.2391501685042,151.75147567672806L1144.9320618382183,215.89085894457958L1145.9714293427896,277.35994246212704L1146.6643410125034,187.97660777478356L1148.3966201867888,243.52441775824232L1149.43598769136,234.87905665076454L1150.4753551959311,280.21433571844426L1153.5934577096446,233.17386238616865L1153.9399135445017,195.8387341394272L1154.9792810490728,257.9147766257952L1156.018648553644,225.16547516209167L1156.711560223358,225.23990727844117L1157.0580160582151,236.78274670856246L1159.1367510673574,310.575548422382L1160.1761185719286,208.59964776977156L1160.5225744067857,208.24819237890878L1161.2154860764997,163.72766257254213L1162.2548535810708,228.24404778295096L1162.9477652507849,205.51073777787497L1163.6406769204991,229.28047960637602L1164.6800444250703,202.47788404541765L1165.0265002599274,241.31024118360423L1165.3729560947843,240.4645102579894L1167.7981469387837,267.69734750600776L1169.5304261130689,258.1486919973746L1170.2233377827831,154.10064705105344L1170.5697936176402,243.90012562636932L1170.9162494524971,260.2524992475137L1172.3020727919254,223.15663013852858L1172.6485286267823,216.86751975373008L1174.3808078010677,216.646035108884L1174.7272636359246,202.26883773950746L1176.1130869753529,247.15921401805213L1177.1524544799242,225.89247095262579L1177.4989103147811,231.86352829126812L1178.1918219844952,250.63647574648L1180.6170128284946,229.0933107705403L1180.9634686633515,242.68537034644984L1182.6957478376369,199.41304383792453L1186.8532178559215,178.44160855749126L1188.5854970302069,185.6420061561028L1189.2784086999209,211.5677368830939L1189.624864534778,252.63572939485383L1190.664232039349,195.10779522798197L1191.010687874206,202.73301462545143L1194.1287903879195,236.0871284168617L1196.207525397062,217.3663321611907L1197.59334873649,213.78844472750373L1197.9398045713472,218.80519068362702" fill="none"></path></g></g></g></g></g></g><g transform="translate(51, 376)" clip-path="url(#clip_1)"><clipPath id="clip_1"><rect width="1461" height="23"></rect></clipPath><g><g><line x1="17.599059905366033" y1="0" x2="17.599059905366033" y2="5" style="visibility: inherit;" fill="rgb(0, 0, 0)" stroke="rgb(200, 195, 188)" stroke-width="1px"></line><line x1="158.57230000019464" y1="0" x2="158.57230000019464" y2="5" style="visibility: inherit;" fill="rgb(0, 0, 0)" stroke="rgb(200, 195, 188)" stroke-width="1px"></line><line x1="299.5455400950233" y1="0" x2="299.5455400950233" y2="5" style="visibility: inherit;" fill="rgb(0, 0, 0)" stroke="rgb(200, 195, 188)" stroke-width="1px"></line><line x1="440.5187801898519" y1="0" x2="440.5187801898519" y2="5" style="visibility: inherit;" fill="rgb(0, 0, 0)" stroke="rgb(200, 195, 188)" stroke-width="1px"></line><line x1="581.4920202846805" y1="0" x2="581.4920202846805" y2="5" style="visibility: inherit;" fill="rgb(0, 0, 0)" stroke="rgb(200, 195, 188)" stroke-width="1px"></line><line x1="722.4652603795091" y1="0" x2="722.4652603795091" y2="5" style="visibility: inherit;" fill="rgb(0, 0, 0)" stroke="rgb(200, 195, 188)" stroke-width="1px"></line><line x1="863.4385004743377" y1="0" x2="863.4385004743377" y2="5" style="visibility: inherit;" fill="rgb(0, 0, 0)" stroke="rgb(200, 195, 188)" stroke-width="1px"></line><line x1="1004.4117405691665" y1="0" x2="1004.4117405691665" y2="5" style="visibility: inherit;" fill="rgb(0, 0, 0)" stroke="rgb(200, 195, 188)" stroke-width="1px"></line><line x1="1145.384980663995" y1="0" x2="1145.384980663995" y2="5" style="visibility: inherit;" fill="rgb(0, 0, 0)" stroke="rgb(200, 195, 188)" stroke-width="1px"></line><line x1="1286.3582207588236" y1="0" x2="1286.3582207588236" y2="5" style="visibility: inherit;" fill="rgb(0, 0, 0)" stroke="rgb(200, 195, 188)" stroke-width="1px"></line><line x1="1427.3314608536523" y1="0" x2="1427.3314608536523" y2="5" style="visibility: inherit;" fill="rgb(0, 0, 0)" stroke="rgb(200, 195, 188)" stroke-width="1px"></line></g><g transform="translate(0, 8)"><text style="text-anchor: middle; visibility: inherit; font-family: Roboto, sans-serif; font-size: 12px; font-weight: 200;" x="17.599059905366033" y="0" dx="0em" dy="0.95em" fill="rgb(232, 230, 227)" stroke="none" stroke-width="1px">-20M</text><text style="text-anchor: middle; visibility: inherit; font-family: Roboto, sans-serif; font-size: 12px; font-weight: 200;" x="158.57230000019464" y="0" dx="0em" dy="0.95em" fill="rgb(232, 230, 227)" stroke="none" stroke-width="1px">0</text><text style="text-anchor: middle; visibility: inherit; font-family: Roboto, sans-serif; font-size: 12px; font-weight: 200;" x="299.5455400950233" y="0" dx="0em" dy="0.95em" fill="rgb(232, 230, 227)" stroke="none" stroke-width="1px">20M</text><text style="text-anchor: middle; visibility: inherit; font-family: Roboto, sans-serif; font-size: 12px; font-weight: 200;" x="440.5187801898519" y="0" dx="0em" dy="0.95em" fill="rgb(232, 230, 227)" stroke="none" stroke-width="1px">40M</text><text style="text-anchor: middle; visibility: inherit; font-family: Roboto, sans-serif; font-size: 12px; font-weight: 200;" x="581.4920202846805" y="0" dx="0em" dy="0.95em" fill="rgb(232, 230, 227)" stroke="none" stroke-width="1px">60M</text><text style="text-anchor: middle; visibility: inherit; font-family: Roboto, sans-serif; font-size: 12px; font-weight: 200;" x="722.4652603795091" y="0" dx="0em" dy="0.95em" fill="rgb(232, 230, 227)" stroke="none" stroke-width="1px">80M</text><text style="text-anchor: middle; visibility: inherit; font-family: Roboto, sans-serif; font-size: 12px; font-weight: 200;" x="863.4385004743377" y="0" dx="0em" dy="0.95em" fill="rgb(232, 230, 227)" stroke="none" stroke-width="1px">100M</text><text style="text-anchor: middle; visibility: inherit; font-family: Roboto, sans-serif; font-size: 12px; font-weight: 200;" x="1004.4117405691665" y="0" dx="0em" dy="0.95em" fill="rgb(232, 230, 227)" stroke="none" stroke-width="1px">120M</text><text style="text-anchor: middle; visibility: inherit; font-family: Roboto, sans-serif; font-size: 12px; font-weight: 200;" x="1145.384980663995" y="0" dx="0em" dy="0.95em" fill="rgb(232, 230, 227)" stroke="none" stroke-width="1px">140M</text><text style="text-anchor: middle; visibility: inherit; font-family: Roboto, sans-serif; font-size: 12px; font-weight: 200;" x="1286.3582207588236" y="0" dx="0em" dy="0.95em" fill="rgb(232, 230, 227)" stroke="none" stroke-width="1px">160M</text><text style="text-anchor: middle; visibility: inherit; font-family: Roboto, sans-serif; font-size: 12px; font-weight: 200;" x="1427.3314608536523" y="0" dx="0em" dy="0.95em" fill="rgb(232, 230, 227)" stroke="none" stroke-width="1px">180M</text></g><line x1="0" y1="0" x2="1461.4679985046387" y2="0" fill="rgb(0, 0, 0)" stroke="rgb(200, 195, 188)" stroke-width="1px"></line></g></g></g></g></svg>