<svg viewBox="0 0 1513 400" xmlns="http://www.w3.org/2000/svg"><g><g><g><g><g><line x1="72.29800224304199" y1="344.1767797231977" x2="67.29800224304199" y2="344.1767797231977" style="visibility: inherit;" fill="rgb(0, 0, 0)" stroke="rgb(200, 195, 188)" stroke-width="1px"></line><line x1="72.29800224304199" y1="293.3405188541626" x2="67.29800224304199" y2="293.3405188541626" style="visibility: inherit;" fill="rgb(0, 0, 0)" stroke="rgb(200, 195, 188)" stroke-width="1px"></line><line x1="72.29800224304199" y1="242.5042579851275" x2="67.29800224304199" y2="242.5042579851275" style="visibility: inherit;" fill="rgb(0, 0, 0)" stroke="rgb(200, 195, 188)" stroke-width="1px"></line><line x1="72.29800224304199" y1="191.6679971160924" x2="67.29800224304199" y2="191.6679971160924" style="visibility: inherit;" fill="rgb(0, 0, 0)" stroke="rgb(200, 195, 188)" stroke-width="1px"></line><line x1="72.29800224304199" y1="140.83173624705734" x2="67.29800224304199" y2="140.83173624705734" style="visibility: inherit;" fill="rgb(0, 0, 0)" stroke="rgb(200, 195, 188)" stroke-width="1px"></line><line x1="72.29800224304199" y1="89.99547537802225" x2="67.29800224304199" y2="89.99547537802225" style="visibility: inherit;" fill="rgb(0, 0, 0)" stroke="rgb(200, 195, 188)" stroke-width="1px"></line><line x1="72.29800224304199" y1="39.15921450898718" x2="67.29800224304199" y2="39.15921450898718" style="visibility: inherit;" fill="rgb(0, 0, 0)" stroke="rgb(200, 195, 188)" stroke-width="1px"></line></g><g transform="translate(62.29800224304199, 0)"><text style="text-anchor: end; visibility: inherit; font-family: Roboto, sans-serif; font-size: 12px; font-weight: 200;" x="0" y="344.1767797231977" dx="0em" dy="0.3em" fill="rgb(232, 230, 227)" stroke="none" stroke-width="1px">-0.025</text><text style="text-anchor: end; visibility: inherit; font-family: Roboto, sans-serif; font-size: 12px; font-weight: 200;" x="0" y="293.3405188541626" dx="0em" dy="0.3em" fill="rgb(232, 230, 227)" stroke="none" stroke-width="1px">-0.02</text><text style="text-anchor: end; visibility: inherit; font-family: Roboto, sans-serif; font-size: 12px; font-weight: 200;" x="0" y="242.5042579851275" dx="0em" dy="0.3em" fill="rgb(232, 230, 227)" stroke="none" stroke-width="1px">-0.015</text><text style="text-anchor: end; visibility: inherit; font-family: Roboto, sans-serif; font-size: 12px; font-weight: 200;" x="0" y="191.6679971160924" dx="0em" dy="0.3em" fill="rgb(232, 230, 227)" stroke="none" stroke-width="1px">-0.01</text><text style="text-anchor: end; visibility: inherit; font-family: Roboto, sans-serif; font-size: 12px; font-weight: 200;" x="0" y="140.83173624705734" dx="0em" dy="0.3em" fill="rgb(232, 230, 227)" stroke="none" stroke-width="1px">-5e-3</text><text style="text-anchor: end; visibility: inherit; font-family: Roboto, sans-serif; font-size: 12px; font-weight: 200;" x="0" y="89.99547537802225" dx="0em" dy="0.3em" fill="rgb(232, 230, 227)" stroke="none" stroke-width="1px">0</text><text style="text-anchor: end; visibility: inherit; font-family: Roboto, sans-serif; font-size: 12px; font-weight: 200;" x="0" y="39.15921450898718" dx="0em" dy="0.3em" fill="rgb(232, 230, 227)" stroke="none" stroke-width="1px">5e-3</text></g><line x1="72.29800224304199" y1="0" x2="72.29800224304199" y2="376.5999994277954" fill="rgb(0, 0, 0)" stroke="rgb(200, 195, 188)" stroke-width="1px"></line></g></g><g transform="translate(72, 0)" clip-path="url(#clip_0)"><clipPath id="clip_0"><rect width="1440" height="376"></rect></clipPath><g><g><g><line x1="37.32949050697697" y1="0" x2="37.32949050697697" y2="376.5999994277954" fill="rgb(0, 0, 0)" stroke="rgb(194, 189, 181)" stroke-width="1px" opacity="0.25"></line><line x1="177.87977224343408" y1="0" x2="177.87977224343408" y2="376.5999994277954" fill="rgb(0, 0, 0)" stroke="rgb(194, 189, 181)" stroke-width="1px" opacity="0.25"></line><line x1="318.43005397989117" y1="0" x2="318.43005397989117" y2="376.5999994277954" fill="rgb(0, 0, 0)" stroke="rgb(194, 189, 181)" stroke-width="1px" opacity="0.25"></line><line x1="458.98033571634824" y1="0" x2="458.98033571634824" y2="376.5999994277954" fill="rgb(0, 0, 0)" stroke="rgb(194, 189, 181)" stroke-width="1px" opacity="0.25"></line><line x1="599.5306174528054" y1="0" x2="599.5306174528054" y2="376.5999994277954" fill="rgb(0, 0, 0)" stroke="rgb(194, 189, 181)" stroke-width="1px" opacity="0.25"></line><line x1="740.0808991892625" y1="0" x2="740.0808991892625" y2="376.5999994277954" fill="rgb(0, 0, 0)" stroke="rgb(194, 189, 181)" stroke-width="1px" opacity="0.25"></line><line x1="880.6311809257195" y1="0" x2="880.6311809257195" y2="376.5999994277954" fill="rgb(0, 0, 0)" stroke="rgb(194, 189, 181)" stroke-width="1px" opacity="0.25"></line><line x1="1021.1814626621766" y1="0" x2="1021.1814626621766" y2="376.5999994277954" fill="rgb(0, 0, 0)" stroke="rgb(194, 189, 181)" stroke-width="1px" opacity="0.25"></line><line x1="1161.7317443986337" y1="0" x2="1161.7317443986337" y2="376.5999994277954" fill="rgb(0, 0, 0)" stroke="rgb(194, 189, 181)" stroke-width="1px" opacity="0.25"></line><line x1="1302.2820261350907" y1="0" x2="1302.2820261350907" y2="376.5999994277954" fill="rgb(0, 0, 0)" stroke="rgb(194, 189, 181)" stroke-width="1px" opacity="0.25"></line></g><g><line x1="0" y1="344.1767797231977" x2="1440.701997756958" y2="344.1767797231977" fill="rgb(0, 0, 0)" stroke="rgb(194, 189, 181)" stroke-width="1px" opacity="0.25"></line><line x1="0" y1="293.3405188541626" x2="1440.701997756958" y2="293.3405188541626" fill="rgb(0, 0, 0)" stroke="rgb(194, 189, 181)" stroke-width="1px" opacity="0.25"></line><line x1="0" y1="242.5042579851275" x2="1440.701997756958" y2="242.5042579851275" fill="rgb(0, 0, 0)" stroke="rgb(194, 189, 181)" stroke-width="1px" opacity="0.25"></line><line x1="0" y1="191.6679971160924" x2="1440.701997756958" y2="191.6679971160924" fill="rgb(0, 0, 0)" stroke="rgb(194, 189, 181)" stroke-width="1px" opacity="0.25"></line><line x1="0" y1="140.83173624705734" x2="1440.701997756958" y2="140.83173624705734" fill="rgb(0, 0, 0)" stroke="rgb(194, 189, 181)" stroke-width="1px" opacity="0.25"></line><line x1="0" y1="89.99547537802225" x2="1440.701997756958" y2="89.99547537802225" fill="rgb(0, 0, 0)" stroke="rgb(194, 189, 181)" stroke-width="1px" opacity="0.25"></line><line x1="0" y1="39.15921450898718" x2="1440.701997756958" y2="39.15921450898718" fill="rgb(0, 0, 0)" stroke="rgb(194, 189, 181)" stroke-width="1px" opacity="0.25"></line></g></g></g><g><g><line x1="0" y1="89.99547537802225" x2="1440.701997756958" y2="89.99547537802225" fill="rgb(0, 0, 0)" stroke="rgb(168, 160, 149)" stroke-width="1.5px"></line></g></g><g><g><line x1="177.87977224343408" y1="0" x2="177.87977224343408" y2="376.5999994277954" fill="rgb(0, 0, 0)" stroke="rgb(168, 160, 149)" stroke-width="1.5px"></line></g></g><g><g><g><g><g><path style="fill: none;" stroke="rgb(255, 112, 67)" stroke-width="2px" d="M179.95227047780716,235.80566275371547L180.2976868502027,239.2773264417863L182.02476871218025,256.12500053034336L183.06101782936682,267.61823723386414L183.40643420176232,274.2692625857745L184.44268331894887,283.4052892332423L185.13351606373993,287.24056377717017L186.51518155332198,289.2754674052804L190.66017802206818,298.60341598360054L192.04184351165026,302.6072007124625L192.7326762564413,305.1966643689349L193.4235090012323,311.5189310570206L193.76892537362787,314.57769905075514L194.45975811841888,315.8780538309761L196.53225635279196,314.4629730474035L196.87767272518747,314.68295117822714L197.22308909758303,314.5899906539017L197.56850546997853,313.70712627084134L197.91392184237404,311.45941257820687L200.6772528215382,314.9546352127063L201.71350193872473,315.49226898031185L202.7497510559113,317.2772141074394L203.0951674283068,318.45590139577735L203.4405838007023,319.0113153712125L203.78600017309785,316.3954325063549L205.5130820350754,317.4240593101675L208.27641301423958,313.0482072307805L208.62182938663508,320.1795688035065L210.69432762100817,317.44260004807694L213.4576586001723,318.71609678825877L214.49390771735887,319.8913837675679L214.83932408975437,319.5563605462992L217.25723869652302,321.28130171186206L218.29348781370956,321.3844418190803L218.98432055850057,322.05415939249315L221.74765153766472,324.8763247757402L222.7839006548513,309.0988119261067L223.1293170272468,318.60076229395145L226.23806437880646,317.2237098476663L226.92889712359747,315.705484484213L227.274313495993,315.22244920477334L227.6197298683885,319.88538024119464L230.03764447515712,319.60008826402617L231.76472633713473,317.4875425700349L232.45555908192574,318.32994128488224L232.80097545432125,316.549300840665L234.18264094390335,319.4921328654514L235.9097228058809,317.82186080855666L236.25513917827644,318.01223751073854L237.29138829546295,317.1715195297569L239.36388652983607,317.33047113326654L239.7093029022316,320.8100596472153L240.4001356470226,311.9859363638915L241.43638476420918,314.28683588555833L242.12721750900022,325.5056198612517L242.47263388139572,320.61239270724946L243.1634666261868,321.6835290752779L243.8542993709778,321.9434439600531L244.19971574337333,312.99864671036397L246.61763035014195,314.8704714566479L249.38096132930607,316.9174595898671L249.7263777017016,317.6037686010736L250.0717940740971,320.44772128114334L251.45345956367916,324.44275570298544L254.90762328763432,322.8166745869004L255.25303966002983,312.84318116081255L255.9438724048209,319.747503626155L257.32553789440294,321.25352081932596L258.3617870115895,321.67097796270696L258.707203383985,323.0732073449492L259.0526197563805,322.0731821672109L260.0888688735671,322.26544893975927L264.23386534231327,324.89007659278974L266.3063635766864,327.29935161537486L267.3426126938729,326.86499608857133L268.033445438664,323.50359864856694L268.3788618110595,318.8791893132047L269.06969455585056,323.0509049529964L270.4513600454326,324.43360871714924L271.83302553501466,321.6268806941034L272.5238582798057,318.50905676688865L274.25094014178325,319.0362367843932L279.08676935532054,320.99721013594507L280.8138512172981,319.7029555123617L281.1592675896936,318.48026173605115L282.5409330792757,322.4399851813714L282.8863494516712,320.1353725162442L284.2680149412533,323.6118186332718L284.6134313136488,330.4149636250343L285.3042640584398,326.73576977770114L286.34051317562637,326.50058379122237L288.067595037604,330.377081953472L288.4130114099995,323.8567838865957L288.758427782395,318.5452017349132L290.4855096443726,316.4393234125825L290.8309260167681,313.1344788129998L291.1763423891636,313.81896422512887L292.2125915063502,310.43752134318333L295.32133885790984,312.05374009328665L296.01217160270085,319.5236158302653L298.084669837074,315.38102476135873L300.1571680714471,315.5271073800978L300.5025844438426,322.44858112251256L302.5750826782157,319.0455586327702L303.61133179540224,315.508697438315L304.9929972849843,308.17705977225995L306.3746627745664,316.9126591711025L307.0654955193574,318.86115051309616L308.4471610089395,317.68055674825797L308.792577381335,315.6156954967597L309.13799375373054,325.9918451697648L309.82882649852155,324.1742781853332L311.55590836049913,324.83045633820416L313.2829902224767,312.5875517053289L313.6284065948722,313.54819004884223L313.9738229672677,321.0900768091176L319.15506855320046,316.74395316202714L321.5729831599691,312.7612450586666L323.6454813943422,319.0798577427364L323.99089776673776,315.3004227432238L324.68173051152877,318.40802791961136L325.3725632563198,318.1015785368759L326.75422874590186,306.9540409198157L329.8629760974615,305.74351172034835L330.5538088422526,307.34150587355924L330.8992252146481,299.64217472226557L331.93547433183466,304.7540706719274L334.00797256620774,299.6014797532379L336.77130354537184,306.0206862884771L337.11671991776734,298.0917697434691L338.1529690349539,305.01902651373337L338.4983854073495,310.4758064133977L341.6071327589091,300.2108300654201L341.95254913130464,299.14133627012563L345.7521292276553,305.4469784338778L346.7883783448419,313.8008641106772L347.1337947172374,311.2928694639182L347.8246274620284,305.3081564573255L348.51546020681945,305.172177306386L353.3512894203567,310.264666436329L355.0783712823342,304.89383318229136L355.7692040271253,313.9552664857241L356.80545314431185,303.9665257704299L357.49628588910286,305.1622381437563L359.22336775108045,309.54359712764733L359.56878412347595,314.7682494151104L361.6412823578491,301.65286516252934L362.3321151026401,305.87660482203654L362.6775314750356,304.39411001081925L363.3683642198266,307.45964420739045L363.71378059222224,308.6404001561026L364.75002970940875,306.3887409387049L365.44086245419976,287.99434858006214L367.16794431617734,297.8597088672388L367.51336068857285,298.95289066955627L370.62210804013256,294.8650850052129L371.31294078492357,294.198367025987L372.69460627450565,300.30222287079755L373.04002264690115,306.1065510267703L373.38543901929665,312.19417352680614L374.7671045088788,309.1595407195976L376.1487699984608,313.90527936480623L376.4941863708563,309.69437723018643L377.5304354880429,303.49667008003547L378.2212682328339,295.2847139042911L378.5666846052294,299.07995850655806L378.9121009776249,299.44223278624474L379.25751735002046,277.7483018507714L379.60293372241597,285.39387733247327L379.9483500948115,287.92020193785675L380.6391828396025,273.6739059228097L380.984599211998,287.45012412894755L382.7116810739756,291.7032070500242L383.05709744637113,297.94737261139966L384.4387629359532,304.7987845524286L385.4750120531397,307.5475438070792L386.1658447979308,292.2357600318859L388.23834303230393,295.10973811377784L388.92917577709494,303.6822056476434L390.6562576390725,310.6702532817602L392.03792312865454,317.1276555617277L392.38333950105005,308.974159752077L393.07417224584117,299.7727166725163L397.21916871458734,305.56185664425215L399.637083321356,299.9959913874399L399.9824996937515,299.5699975819389L400.6733324385425,304.3808495744858L401.018748810938,298.537821780714L401.3641651833335,288.5844400333759L401.7095815557291,291.928125997504L402.4004143005201,299.4127172816016L403.4366634177066,303.9034720520602L404.81832890728873,298.0538266540088L405.16374527968424,300.7305633293728L406.5454107692663,305.8896739423406L407.5816598864528,303.15958192600453L408.9633253760349,303.83864953076926L409.9995744932214,303.37682152617873L410.3449908656169,300.3381274491964L410.69040723801254,306.75677420595684L411.03582361040804,302.6724701699147L411.38123998280355,294.5115707779746L412.07207272759456,296.88384563178585L412.41748909999006,292.79534848460946L412.76290547238557,279.28729355590843L413.79915458957214,271.76443238970563L414.14457096196764,286.2801312141801L414.48998733436315,285.3524200498328L415.1808200791542,279.94843481244266L415.8716528239452,275.49564900341164L416.21706919634073,283.57210095875297L418.6349838031094,285.5398986874399L419.67123292029595,294.65858437888534L421.05289840987797,297.8896369418647L422.0891475270646,297.2121679407753L422.7799802718556,294.76784594760574L423.4708130166466,299.24432510757583L424.8524785062287,302.95342424675067L426.2341439958107,304.08344262011985L427.2703931129973,305.9011187320445L427.6158094853928,301.0894368833926L427.9612258577883,286.5036706160776L428.3066422301838,288.86258003417373L430.37914046455694,266.4359444843155L432.45163869893,279.6567785969799L433.14247144372115,291.7229256278011L433.48788781611665,291.6250999303961L434.8695533056987,288.5543031745543L435.90580242288524,293.743589089936L436.25121879528075,301.1257819944157L437.28746791246726,301.2953166322904L437.6328842848628,299.04599288540214L437.97830065725833,284.7918146540343L438.66913340204934,292.6602584952552L439.35996614684035,306.94917254222264L441.4324643812135,309.5176047374341L442.46871349840006,301.2946794105867L442.81412987079557,290.95604660825416L443.8503789879821,284.71718776699083L444.1957953603776,286.52686024545403L444.5412117327732,290.8887908529227L445.23204447756416,286.69070699509587L445.57746084995966,291.4640406403261L447.6499590843328,302.25021572795754L449.0316245739149,302.9560473434613L449.3770409463104,296.0591144574802L450.0678736911014,300.9879761464208L450.7587064358924,301.77596236410255L451.44953918068353,294.49733919881476L451.79495555307903,296.0307786977567L452.14037192547454,289.3678240455502L452.48578829787004,280.2230938252934L452.83120467026555,287.8688075398435L453.8674537874521,291.7255780858772L454.55828653224313,292.68284756356144L455.24911927703414,291.0124446808325L456.2853683942207,258.5252002937524L456.9762011390117,279.76497795726016L457.3216175114072,282.4111272007837L457.66703388380273,290.48650761623156L459.7395321181759,283.7309259551554L460.08494849057143,283.44897020881393L460.77578123536244,291.41924335220557L461.81203035254896,290.1536457126623L463.1936958421311,293.3327209639871L464.2299449593176,286.345321259973L465.2661940765042,291.77736889918407L465.6116104488997,293.63442165045115L466.3024431936907,289.574932714784L466.99327593848176,288.53794574716824L467.68410868327277,296.6659652580788L469.4111905452504,299.6418504135906L470.4474396624369,289.18393765857354L471.13827240722793,291.470968766765L476.31951799316073,296.55652440147543L477.70118348274275,293.4135844454867L478.3920162275338,297.1150935794339L478.7374325999293,282.766316936923L480.11909808951134,283.315444352047L480.80993083430246,284.71712121859L481.15534720669797,286.29176964732386L482.1915963238845,290.88332487672005L482.88242906867555,289.2537134779192L483.57326181346656,287.68797529462466L484.6095109306531,290.4016389934931L485.30034367544414,303.70633845338386L485.64576004783964,295.95859530504384L486.33659279263065,298.8597278199508L487.7182582822128,297.64683193398173L489.0999237717948,290.1698472630505L491.5178383785635,295.08025938576696L491.863254750959,290.2170733589572L492.2086711233545,289.4639852986137L492.55408749575,277.16856791151196L493.24492024054103,292.2732409217715L494.2811693577276,292.1442295749996L494.6265857301231,297.46767794558355L494.9720021025186,288.4180834390077L496.0082512197052,283.4454820681021L496.3536675921007,285.24276201305315L496.6990839644962,292.95584019853703L497.0445003368917,292.9917868105542L499.80783131605585,298.35461591168803L500.15324768845136,293.9971353457348L501.18949680563793,294.1753404483826L503.6074114124066,290.0198386627394L504.6436605295931,283.51290481363446L507.40699150875724,282.8126648831988L507.75240788115275,290.7872894021654L508.44324062594376,299.0740153177362L508.78865699833926,304.8477259858096L509.13407337073477,294.43377427553526L510.1703224879214,292.8606912751366L510.5157388603169,284.5744794353664L511.2065716051079,288.6107932979574L511.897404349899,293.1667862404329L513.6244862118765,294.02721096268425L513.9699025842721,294.3055289783448L515.3515680738541,295.1140401723235L515.6969844462496,294.6496039991644L516.0424008186452,297.6034514533464L516.3878171910407,293.39728111707433L517.4240663082272,293.02622913561805L517.7694826806227,290.6502205078923L518.1148990530182,275.71956093526603L519.1511481702048,290.404539977691L519.4965645426004,288.45273081320215L522.2598955217644,278.09637512848616L523.6415610113465,284.46813916582084L524.3323937561375,279.44389464579166L525.0232265009287,281.7578903183535L525.3686428733241,287.6258100303826L526.4048919905107,282.61439452652746L527.4411411076973,278.9199070635703L527.7865574800927,280.705204291602L528.1319738524883,277.6024663382694L528.4773902248837,270.3826697515616L529.5136393420704,266.0204531508629L532.2769703212344,269.2880786642615L532.9678030660255,277.73656452223645L533.6586358108165,266.0005066094277L534.3494685556076,276.07160443309584L534.694884928003,273.8962845084341L535.7311340451896,273.06506481553L536.4219667899807,284.13844807837785L537.1127995347717,284.41805071012936L538.8398813967493,290.981244880811L541.2577960035179,293.3448317108195L541.6032123759135,294.9339104676709L542.6394614930999,290.7399988076104L543.330294237891,293.2466033281992L545.4027924722641,296.68954278691524L545.7482088446596,290.6216473185356L546.4390415894507,287.1684339446049L547.1298743342417,290.74296401207897L548.5115398238238,290.4059199894877L549.8932053134058,293.5657006613715L550.5840380581968,294.4745895702747L552.3111199201745,290.75493765309096L552.65653629257,289.33047271562157L553.0019526649655,280.89964610177987L555.4198672717341,269.9824351288222L555.7652836441296,282.93925362695256L557.8377818785027,289.450234289915L559.2194473680848,285.69459811626183L559.5648637404803,278.7091371630561L559.9102801128759,284.82934232197596L563.0190274644355,293.70128254425003L563.7098602092265,287.71216072499595L564.746109326413,290.14494318559224L566.8186075607862,285.3090211163924L567.1640239331816,286.9897931299698L568.5456894227638,286.1268427396995L569.5819385399502,289.5539452547884L569.9273549123459,280.98555897186725L570.2727712847413,287.2791676749283L571.3090204019279,282.6931604757777L575.1086004982785,275.8252946614061L576.1448496154651,283.48197041127753L577.1810987326517,286.9913672773078L577.5265151050472,288.7778776587645L577.8719314774427,282.9307993947712L578.9081805946292,283.12911718347056L579.2535969670248,282.7977777727028L579.5990133394203,290.5479727857751L584.780258925353,291.3426573502083L585.8165080425396,286.22163516203915L586.5073407873306,288.884829344493L586.8527571597261,291.3003591791406L587.5435899045171,283.0532934598666L587.8890062769127,274.9410549173178L588.9252553940993,278.65848883947564L589.9615045112857,282.96896088570276L590.3069208836813,287.60544742121994L590.9977536284723,287.2439371817941L591.6885863732633,286.6229929596559L592.3794191180544,281.1244825833131L593.0702518628455,280.6352654882389L594.1065009800319,271.1967499224871L594.797333724823,273.10830349653344L595.488166469614,282.486357219986L596.178999214405,290.18530022050635L596.8698319591962,292.41163977061854L597.5606647039872,291.0846797718384L601.0148284279423,292.3671898066968L602.3964939175244,292.78314641165395L603.7781594071065,287.548795627602L604.123575779502,282.65790647284757L604.4689921518975,288.85851811276535L605.1598248966885,292.3774455597527L606.1960740138751,293.363514656692L607.2323231310617,288.3755566780035L607.9231558758527,285.56806354070704L608.9594049930392,291.6628516899243L611.0319032274124,282.91950453313893L611.7227359722034,279.71154136179945L612.4135687169944,283.26384023139L612.75898508939,283.96401558063053L613.7952342065764,285.1311711909061L614.140650578972,282.0490721262742L614.4860669513674,291.6492399373904L615.522316068554,288.2251839914344L618.2856470477182,282.7661783279606L620.0127289096957,277.57925825878027L620.7035616544867,277.1326576172087L622.7760598888599,267.84167253370845L624.157725378442,277.37919796171764L624.5031417508375,283.2255979277401L624.848558123233,283.8770446657084L625.1939744956285,287.01829112162216L627.2664727300016,278.49022390519804L628.3027218471882,276.8465641958481L630.7206364539568,265.50359455938934L631.4114691987478,262.7001888181721L632.4477183159344,268.5863920983182L632.7931346883299,267.85109865210876L633.8293838055164,271.4990042861452L634.174800177912,277.29072922215977L635.9018820398895,273.27785995772757L636.2472984122851,273.19108668618895L636.5927147846805,275.5044449695288L637.6289639018671,277.0163446487497L638.6652130190537,276.6125215250672L639.0106293914491,277.895977609414L639.3560457638447,274.1731208596066L639.7014621362403,274.5263049789018L640.0468785086358,277.4853668313183L642.1193767430088,274.6396027962863L644.191874977382,275.72011847213753L646.2643732117551,262.51160423609605L647.6460387013371,249.98742926245254L648.3368714461282,260.6487367345033L650.0639533081057,254.32596890304075L651.4456187976878,259.2736796452056L653.8635334044565,267.87117458378L654.5543661492475,268.1288548698926L655.590615266434,266.75956143013906L656.281448011225,269.2211725667186L656.6268643836205,264.26032345121024L657.6631135008072,268.59170131728746L658.0085298732026,270.2666650522577L658.6993626179936,270.44262172713985L659.0447789903892,270.8282354734373L660.0810281075758,270.7065845687803L665.9531064382995,271.02474670087463L666.298522810695,274.2908845526606L666.6439391830905,267.6766833438336L666.9893555554861,270.6869684119236L668.3710210450681,248.94818157653262L669.4072701622547,258.88044008042647L670.7889356518368,265.7154269124808L671.1343520242323,272.30809700265786L671.4797683966278,274.08270246358876L672.8614338862099,271.99593539713226L673.2068502586054,275.75994839847874L673.5522666310009,274.0333879525495L674.2430993757919,271.7550745528016L674.9339321205829,274.53616381917755L675.624764865374,275.6849773224234L676.315597610165,274.2305084808538L679.0789285893292,274.6652903678793L680.8060104513067,275.1085398510246L681.1514268237022,279.26296497696L684.2601741752619,280.3293702563451L684.6055905476575,277.06230754292824L688.4051706440081,275.4359011029962L690.1322525059857,274.2161738947028L691.1685016231722,265.8001828140487L691.5139179955678,258.95182066980703L692.5501671127543,259.0826162788604L693.2409998575454,264.5467908613924L693.5864162299409,257.54889459967103L696.349747209105,259.72428799105506L696.6951635815005,260.1425598071747L697.040579953896,263.80859421049L697.3859963262915,264.0677382178675L698.4222454434781,262.4384939594017L699.1130781882691,260.5723242183056L699.4584945606647,256.3355515843951L699.8039109330601,256.0002629796055L702.5672419122243,256.6610483227653L704.2943237742019,254.5028992576089L704.6397401465974,254.96771204315044L705.675989263784,259.55299098290664L708.0939038705526,257.4841311049612L708.7847366153436,248.63107926928825L712.2389003392988,245.54170000572097L713.9659822012763,246.70128355077992L714.3113985736719,249.53534405743807L715.0022313184629,254.36148687090764L715.3476476908584,255.55313285381874L717.4201459252315,252.36949424865992L717.7655622976271,252.21922541560892L719.8380605320001,250.65063638899886L720.1834769043957,248.36335220749353L723.2922242559554,253.0821452934763L724.6738897455374,254.5631884124212L725.3647224903284,256.87741261335105L726.7463879799105,252.56152745148256L729.8551353314701,249.68218840139164L730.5459680762613,250.8231969995768L731.5822171934477,255.63169187289841L732.2730499382387,252.39405558444022L732.6184663106343,254.1791884978108L734.3455481726118,256.4711166790144L735.3817972897984,255.0916076152656L737.108879151776,258.3831028468502L737.799711896567,258.18798742273236L739.181377386149,261.2366368480973L739.8722101309402,256.7856732014534L740.2176265033357,251.8391812497837L740.5630428757312,245.329212863929L741.2538756205222,244.96753594165966L741.9447083653132,246.70078978489798L743.6717902272908,246.6807528847737L744.7080393444775,251.9295509022759L745.3988720892685,257.80872480355936L746.4351212064549,254.27017227593032L747.4713703236415,253.15173105522783L748.8530358132236,253.37155449158297L749.8892849304101,243.07836543807346L751.2709504199921,241.7988523453776L751.6163667923877,240.64792682972444L751.9617831647831,244.2318181991363L754.3796977715518,240.51619613145368L755.0705305163428,238.7088331151393L755.7613632611339,246.83716450462293L756.7976123783204,247.76607870715486L757.1430287507161,248.12913867406985L759.2155269850891,240.95126052914216L759.5609433574846,238.93524933333674L760.9426088470666,240.0319897181256L762.3242743366488,242.09158104022475L763.3605234538353,238.6786215853834L763.7059398262309,234.53289994969958L764.0513561986263,239.52617097321556L764.3967725710219,242.6855039909773L765.0876053158129,244.05230607912276L766.1238544329996,236.92618770635582L768.541769039768,237.91001875665967L768.8871854121636,236.84881543395053L770.6142672741412,238.81452075551755L771.3051000189322,233.92405149601282L771.6505163913278,230.56292674276784L771.9959327637232,224.2033747044525L775.1046801152829,234.01177612660035L776.4863456048649,237.46335813610662L776.8317619772605,234.62521476623243L777.177178349656,237.94040941172025L777.5225947220515,238.29182624809008L778.2134274668425,237.36832526002257L779.9405093288202,235.9313662031731L780.2859257012157,232.00906649451886L780.9767584460067,226.9840751148481L781.3221748184022,227.97883835345462L781.6675911907977,230.85182216571087L782.7038403079843,233.79483979490598L783.3946730527753,235.4798912379628L783.7400894251707,235.8284032837279L784.0855057975664,238.07578667731067L787.194253149126,230.32172066328295L788.2305022663124,231.2986911744539L791.3392496178722,223.77333390162406L793.4117478522453,227.5084480192513L793.7571642246409,223.7059023825138L795.8296624590139,224.46454621618764L796.1750788314093,223.36162890777658L796.5204952038049,226.57299146701527L797.2113279485959,228.77703834725784L799.283826182969,228.79260172369715L801.3563244173421,228.0605101421667L801.7017407897376,232.71473933354483L804.4650717689018,230.4759812564621L804.8104881412974,230.42367568105377L805.8467372584838,230.78485778422493L806.8829863756705,226.3325853686817L808.2646518652525,224.84324748750475L808.9554846100435,223.0675779024766L810.3371500996255,221.84213125761224L812.4096483339987,226.58429607716724L813.7913138235807,219.35294422654445L814.1367301959763,216.84172422205856L815.1729793131627,219.89790982954491L815.863812057954,216.202036970136L816.9000611751404,218.51091464595868L818.2817266647224,219.2359192374046L818.9725594095135,219.35786955903868L819.6633921543045,224.26780059554625L820.0088085267001,221.78975424845476L820.3542248990957,217.48528031165506L822.7721395058642,221.8412039803676L823.4629722506552,219.2407905938183L823.8083886230507,221.82924482155053L825.8808868574239,226.18522973600534L826.2263032298195,222.62218239757934L826.5717196022149,223.46734765213992L827.2625523470059,220.87784418758773L827.9533850917969,219.9131133783697L832.0983815605431,223.26116034589126L835.2071289121028,224.0026852210649L836.5887944016848,223.43528541836145L838.3158762636625,223.7143334719663L838.6612926360581,221.49051243672915L840.3883744980355,221.42941283362129L840.7337908704311,222.7175217925367L841.0792072428266,223.0364778051224L842.4608727324088,223.349929438318L842.8062891048043,226.1809853176976L844.8787873391773,221.91210134107135L846.2604528287593,216.76737631276032L846.6058692011549,216.6942826624954L846.9512855735504,222.15124011255097L847.6421183183414,220.11014772404775L847.987534690737,217.48692982583168L849.7146165527145,217.07607909691535L850.750865669901,216.59257495342587L851.4416984146922,218.79190062590305L852.4779475318787,216.30888919559916L853.5141966490652,217.35490476660033L854.5504457662518,215.9285421428146L855.2412785110428,215.35941911711717L857.3137767454159,212.01507433718615L857.6591931178115,208.32757755440582L858.3500258626025,215.87089807046712L859.0408586073935,216.93298937124118L862.1496059589532,215.16696866513706L862.4950223313487,213.32116103000098L862.8404387037442,213.70125879665318L863.1858550761397,219.62238949969176L868.0216842896768,220.15692536755742L869.4033497792591,217.65922430243137L870.7850152688411,222.84319289034437L871.1304316412366,225.27672674512883L872.1666807584231,222.7263958614149L872.5120971308186,225.46015236744014L873.5483462480051,219.5069455156891L874.2391789927963,219.3958393098781L874.9300117375873,219.27202075387086L876.6570935995649,220.08252354613225L877.6933427167513,216.52364933938088L878.3841754615426,215.59596211161062L878.729591833938,216.11463708363664L879.420424578729,217.515594206912L880.4566736959156,221.47284536008476L881.492922813102,217.07302652708628L882.183755557893,217.05651173921066L883.2200046750797,215.08030239833315L884.2562537922663,214.4419867659541L884.6016701646618,220.92095961275405L885.6379192818483,220.95257378132743L886.6741683990348,219.77337776525889L889.4374993781989,218.03146752729566L889.7829157505945,220.28380297447447L890.4737484953855,220.10455692183658L892.2008303573632,218.84324676784826L893.9279122193407,218.90730860811718L894.2733285917362,219.59713657357042L894.6187449641317,217.1247938500797L895.3095777089227,212.78796445006546L895.6549940813183,213.29061276001073L896.3458268261094,215.40987313640036L897.0366595709004,218.46341401759972L898.072908688087,213.74296235982789L898.4183250604824,214.06842200379526L899.7999905500644,217.14581638785003L901.5270724120421,213.5969580314278L902.2179051568331,211.7348390189108L904.2904033912062,215.98760690420366L904.6358197636017,217.68169137859874L904.9812361359972,216.0065963879122L905.3266525083928,215.02741246579646L905.6720688807883,217.0279592862626L906.7083179979749,219.69181848793914L907.3991507427659,214.99248201084328L908.4353998599523,217.56389133969932L908.7808162323479,211.35007621984107L909.8170653495346,207.06290075811535L910.5078980943256,212.09729767411955L911.1987308391166,211.9065008530631L911.544147211512,211.9892580651793L911.8895635839076,210.6275970896214L913.2712290734896,209.40468377789603L914.6528945630718,209.64706003326526L914.9983109354673,209.4806453841616L915.3437273078628,205.79923389781467L916.7253927974448,209.21306277885972L917.0708091698403,208.2908579434194L917.7616419146314,205.4191433827318L918.1070582870268,206.9983383072048L918.797891031818,206.0178663332291L919.1433074042135,207.31949536899882L919.488723776609,210.40007039561198L920.1795565214001,207.21351024012145L920.5249728937955,204.69529356090433L921.2158056385865,208.26558724351338L922.2520547557731,209.5001871337333L922.9428875005641,206.59752534349693L923.2883038729598,207.85593959844346L925.3608021073328,207.43101167301674L925.7062184797282,204.5206845774541L926.0516348521237,200.40693365697413L927.4333003417057,202.25996341530688L928.124133086497,204.35250744256595L928.814965831288,209.2408541004385L930.19663132087,207.9108350200726L932.6145459276387,212.53246901717574L933.6507950448251,213.78367643329926L934.3416277896162,216.76340526290807L935.0324605344072,219.48423744072443L935.3778769068027,220.3334087465581L936.7595423963849,214.25282677455087L937.4503751411759,214.77116335961068L937.7957915135714,213.8127295884279L938.1412078859669,209.51235976310636L939.1774570031534,204.1491330977672L939.5228733755489,206.78567757023032L940.5591224927355,209.9418543865803L940.9045388651309,207.30951133140493L941.9407879823176,207.31816899593017L942.9770370995042,206.44493661864496L944.3587025890862,206.66593790170532L946.4312008234593,202.24663917983966L946.7766171958548,198.9457219627793L947.8128663130414,202.1871158987353L948.1582826854368,199.8128498177266L948.8491154302278,199.33387502023265L949.5399481750188,201.22614971331583L949.8853645474144,202.01127926022278L950.5761972922055,201.717198088346L950.9216136646011,205.6033519992318L951.6124464093921,205.90928618636462L951.9578627817875,208.38297909992093L952.3032791541831,203.74175350404272L952.6486955265785,205.29927037944708L953.3395282713695,203.29028011670195L954.0303610161606,204.14958061138339L954.3757773885561,202.60929514351153L955.7574428781382,201.64194904927598L956.1028592505338,201.98444990307053L956.7936919953248,206.64419051661102L957.8299411125113,209.65656420650726L958.5207738573023,214.98318076430675L959.557022974489,212.90358542789065L963.7020194432351,208.37186078071207L965.0836849328172,209.614598997634L966.1199340500037,201.6104203587558L967.8470159119812,202.0315959484552L968.5378486567724,204.3082830788735L969.5740977739589,203.91532035103407L971.6465960083319,204.59869392885048L971.9920123807275,200.33140747319635L972.6828451255186,195.29044011647733L973.7190942427052,198.59585777541358L974.7553433598916,202.05644905733385L975.1007597322872,205.88979413196407L975.4461761046826,208.2217533415628L978.5549234562424,206.3405634263488L978.9003398286379,203.72552839915053L979.2457562010334,204.5146119924856L979.5911725734289,209.00900498762144L980.28200531822,207.9922394257654L980.972838063011,212.54723844168115L982.0090871801976,208.14973123928144L983.7361690421751,209.91685700448838L984.4270017869661,211.33121971828604L984.7724181593617,209.80330607950745L985.1178345317571,211.84688657587083L985.4632509041527,207.57913738484498L988.2265818833168,205.33233569874665L991.3353292348766,202.33947193054425L993.062411096854,202.0790710971617L995.8257420760183,203.0414290728099L996.1711584484137,196.66393022409295L997.2074075656003,199.83923878233102L998.5890730551823,201.07608356124834L999.625322172369,201.3791890460075L1001.006987661951,202.33929738309732L1002.0432367791375,206.0287705687029L1003.0794858963241,202.9273277626035L1003.4249022687195,199.24449176639342L1003.7703186411151,199.5111889949737L1004.4611513859062,199.9398047441961L1007.2244823650702,200.45015230009184L1007.9153151098612,201.68532192331367L1008.6061478546524,200.80228712970728L1009.2969805994434,200.33238981917032L1011.024062461421,201.62310319995987L1012.7511443233984,202.44739493752132L1015.5144753025627,198.7603383556559L1015.8598916749581,198.0250360326636L1016.2053080473537,198.89134055641497L1017.5869735369358,193.72567187195466L1018.6232226541224,194.5605570780648L1019.6594717713089,189.09465246486272L1022.422802750473,193.61854723198152L1023.113635495264,193.06586235406078L1024.4953009848462,192.62089244901094L1024.8407173572416,193.91174898283512L1025.186133729637,193.92264555492014L1025.5315501020325,192.8205161007484L1026.2223828468236,185.75030684237316L1026.9132155916147,193.07609970891826L1027.9494647088013,193.77903236432067L1028.985713825988,191.89483119014207L1029.3311301983833,191.12224593844232L1030.0219629431742,194.6866787686153L1030.7127956879654,195.7602435804506L1033.130710294734,197.43960457952667L1034.512375784316,199.7272621716388L1035.203208529107,198.7862488019739L1035.8940412738982,201.1336207893531L1036.5848740186893,201.74651991990953L1036.9302903910848,198.64629429824123L1037.6211231358757,197.8427052060086L1038.6573722530622,196.09340752438638L1039.3482049978534,198.26624034098543L1040.38445411504,199.32070481263125L1041.075286859831,198.36205508972893L1042.1115359770174,195.03550964293495L1042.456952349413,193.5146227389895L1042.8023687218085,194.39941123057454L1046.2565324457637,198.6015638228024L1046.6019488181591,198.23517658867283L1047.2927815629503,194.15341607663566L1047.6381979353457,191.40577216755133L1047.9836143077412,193.70559239896906L1048.3290306801366,197.30190652188722L1049.3652797973234,191.41830928011825L1049.7106961697189,196.51573161179073L1050.40152891451,196.9060428947911L1051.4377780316963,195.49403413452046L1052.1286107764874,195.44225067512127L1052.8194435212783,195.76829035623282L1053.5102762660697,195.5445249574438L1056.6190236176292,194.34867435874625L1056.9644399900246,193.9431256049438L1058.0006891072114,196.5811725814053L1058.6915218520023,198.54391185549613L1059.3823545967934,195.00417583329667L1060.0731873415843,197.31290926875454L1060.7640200863755,198.59984983576763L1061.109436458771,193.48795636254923L1062.1456855759575,193.5462995322975L1064.2181838103306,194.5426807754353L1064.563600182726,195.0147537393862L1065.945265672308,201.9402980798334L1066.9815147894947,198.61340564054007L1068.0177639066812,197.3287020193771L1068.7085966514724,200.31971320319408L1069.0540130238678,200.25416305212858L1070.4356785134498,200.37284770356524L1071.817344003032,201.57295165763264L1072.8535931202184,197.58828880362137L1073.199009492614,197.42077620030068L1073.5444258650095,197.02644962055112L1073.889842237405,198.9622865099901L1074.9260913545916,199.3450133338968L1076.3077568441738,198.1035999396158L1076.9985895889647,195.87936970192746L1078.3802550785467,195.39067005426736L1078.7256714509422,193.0656016509583L1079.4165041957333,193.61241971633936L1079.7619205681287,194.19987380715943L1081.4890024301064,192.12179629204903L1082.525251547293,191.54727469061942L1082.8706679196885,192.66475202996614L1083.5615006644794,194.03500447849456L1084.2523334092705,196.6240886941344L1084.9431661540616,195.6791533990157L1085.288582526457,195.02983850932043L1086.3248316436436,196.0486294909748L1086.670248016039,193.9402695883436L1087.3610807608302,194.83432384328924L1088.3973298780168,194.39541997394264L1088.7427462504122,194.37740028337245L1089.4335789952033,192.4486366713305L1091.5060772295765,195.9755901074336L1092.5423263467628,193.90104788807383L1093.5785754639496,195.0303123462043L1093.923991836345,195.4543899069931L1095.305657325927,197.5132020070734L1097.3781555603002,196.56351948512497L1101.868568401442,194.65048808059652L1103.250233891024,195.932003388977L1103.941066635815,192.89134413768542L1105.6681484977926,195.44800853448766L1106.7043976149791,192.66848385976155L1107.3952303597703,192.39002160762544L1108.7768958493523,191.31267116822715L1110.5039777113298,187.6950807607316L1111.885643200912,189.8253803184532L1113.267308690494,190.61498660634444L1114.3035578076806,191.1455491775205L1117.4123051592403,193.16042319655492L1119.4848033936132,191.51085603782025L1122.9389671175684,187.8501821678907L1123.2843834899638,187.81446534620062L1123.6297998623595,192.15488829846348L1124.6660489795458,192.46735070123876L1125.0114653519415,192.53785579746096L1126.7385472139192,197.35381076436374L1127.4293799587101,198.22380315514258L1128.8110454482921,193.74358037671027L1129.1564618206876,190.798545395842L1129.5018781930833,189.92071952042258L1129.847294565479,192.43361570860924L1130.1927109378744,191.75305434212325L1130.5381273102698,189.90523007597866L1130.8835436826653,190.99211056873642L1133.6468746618293,192.4828468374565L1134.6831237790161,185.52903243321668L1136.755622013389,188.4329703559121L1138.137287502971,188.19271567527377L1141.5914512269264,184.3680681471142L1141.9368675993219,188.6069367717503L1142.2822839717173,190.59771578100694L1144.700198578486,189.0455961576132L1146.4272804404636,187.83371271512402L1147.4635295576502,188.2042925301227L1148.1543623024413,190.1060380208877L1148.4997786748368,187.8481529507667L1148.8451950472322,185.6114232291107L1149.1906114196277,186.04202605069887L1150.5722769092097,187.60880162236268L1153.335607888374,188.33234900637885L1153.6810242607694,187.78480436538194L1154.717273377956,189.9713704938384L1155.408106122747,185.39306721225697L1155.7535224951425,185.67703366133136L1156.4443552399337,186.73191581170445L1158.1714371019111,189.73160058219042L1160.5893517086797,191.03419470232535L1161.2801844534708,189.486174742257L1162.3164335706574,188.36823670576186L1163.0072663154483,185.8882867098006L1164.734348177426,187.1520245717592L1165.7705972946126,187.39757442711706L1166.8068464117991,187.4555473616157L1169.9155937633589,188.2219508545446L1170.2610101357543,185.50075344226582L1171.2972592529409,186.72184130807378L1172.3335083701274,186.45868943328023L1173.0243411149183,190.4505800330937L1173.3697574873138,187.2349354610131L1175.4422557216872,183.40839461293234L1176.4785048388735,182.9499468370677L1176.8239212112692,185.00529166254435L1177.51475395606,185.68263467009723L1178.5510030732466,184.4226949307072L1179.2418358180378,182.66878650072238L1179.9326685628287,185.0318990912271L1180.9689176800152,185.14496234636775L1181.3143340524107,183.79219780978949L1181.6597504248064,184.18114660485483L1184.077665031575,187.0926837660669L1185.8047468935524,186.8661129487203L1186.4955796383435,184.76354804445018L1186.840996010739,185.31443467103546L1187.1864123831344,188.21169586433237L1188.5680778727167,186.4284513250185L1188.9134942451121,184.1153282863597L1190.6405761070898,185.38977125561436L1190.9859924794853,187.61705533578618L1192.3676579690675,184.68489911855332L1193.4039070862539,185.4141055856202L1193.7493234586495,186.60372115765108L1194.4401562034404,188.17967247510177L1196.8580708102093,186.28928410752206L1197.2034871826047,183.127834702889L1198.9305690445822,186.96449242231827L1203.0755655133285,185.96010082443954L1204.802647375306,186.26847374756701L1205.4934801200968,183.58303333847198L1205.8388964924925,183.6604235808431L1206.875145609679,185.69461114149524L1207.2205619820745,182.0634397038007L1210.3293093336342,185.38730413861887L1212.4018075680074,187.33560350095937L1213.7834730575894,186.48831667601587L1214.1288894299848,185.8417503319214" fill="none"></path></g></g></g></g><g opacity="0.2"><g><g><g><path style="fill: none;" stroke="rgb(255, 112, 67)" stroke-width="2px" d="M179.95227047780716,235.80566275371547L180.2976868502027,241.3603246546288L182.02476871218025,272.2987676553581L183.06101782936682,281.1342835972046L183.40643420176232,282.9528412852288L184.44268331894887,296.0437030562833L185.13351606373993,292.72506773937965L186.51518155332198,292.24237643014L190.66017802206818,312.360328275891L192.04184351165026,308.5523544177349L192.7326762564413,309.0573736088638L193.4235090012323,320.96792559302384L193.76892537362787,319.15586363314895L194.45975811841888,317.8260384709231L196.53225635279196,312.34201524638553L196.87767272518747,315.01276322884155L197.22308909758303,314.45058920519193L197.56850546997853,312.3830538554221L197.91392184237404,308.08818445581295L200.6772528215382,320.1971496872621L201.71350193872473,316.2986901466065L202.7497510559113,319.95457306375096L203.0951674283068,320.2239090571599L203.4405838007023,319.8444297549571L203.78600017309785,312.47162680164433L205.5130820350754,318.9669951292629L208.27641301423958,306.48444030830615L208.62182938663508,330.8766002142758L210.69432762100817,313.33714943606765L213.4576586001723,320.62634119468913L214.49390771735887,321.6543138467936L214.83932408975437,319.0538257810545L217.25723869652302,323.868713254283L218.29348781370956,321.53915197252L218.98432055850057,323.0587357238302L221.74765153766472,329.1095727778383L222.7839006548513,285.4325428957604L223.1293170272468,332.8536877575121L226.23806437880646,315.15813118590853L226.92889712359747,313.42814644410663L227.274313495993,314.4978962865824L227.6197298683885,326.8797767902166L230.03764447515712,319.17215029847955L231.76472633713473,314.31872402996294L232.45555908192574,319.59353935693423L232.80097545432125,313.87834017461694L234.18264094390335,323.90638090235575L235.9097228058809,315.3164527233082L236.25513917827644,318.297802564005L237.29138829546295,315.91044255830127L239.36388652983607,317.5688985385292L239.7093029022316,326.0294424181132L240.4001356470226,298.74975143894414L241.43638476420918,317.73818516805267L242.12721750900022,342.3337958247742L242.47263388139572,313.2725519762506L243.1634666261868,323.2902336273199L243.8542993709778,322.3333162872158L244.19971574337333,299.5814508358321L246.61763035014195,317.6782085760736L249.38096132930607,319.98794178969575L249.7263777017016,318.63323211788344L250.0717940740971,324.7136503012478L251.45345956367916,330.4353073357485L254.90762328763432,320.37755291277284L255.25303966002983,297.8829410216807L255.9438724048209,330.1039873241686L257.32553789440294,323.51254660908245L258.3617870115895,322.2971636777785L258.707203383985,325.17655141831256L259.0526197563805,320.5731444006035L260.0888688735671,322.5538490985818L264.23386534231327,328.8270180723354L266.3063635766864,330.9132641492526L267.3426126938729,326.213462798366L268.033445438664,318.4615024885604L268.3788618110595,311.94257531016126L269.06969455585056,329.3084784126839L270.4513600454326,326.50766436337847L271.83302553501466,317.41678865953463L272.5238582798057,313.8323208760665L274.25094014178325,319.82700681064995L279.08676935532054,323.9386701632728L280.8138512172981,317.7615735769867L281.1592675896936,316.6462210715852L282.5409330792757,328.37957034935187L282.8863494516712,316.67845351855345L284.2680149412533,328.82648780881306L284.6134313136488,340.6196811126781L285.3042640584398,321.21697900670137L286.34051317562637,326.1478048115041L288.067595037604,336.19182919684647L288.4130114099995,314.0763367862813L288.758427782395,310.57782850738937L290.4855096443726,313.28050592908653L290.8309260167681,308.1772119136259L291.1763423891636,314.84569234332236L292.2125915063502,305.365357020265L295.32133885790984,314.47806821844154L296.01217160270085,330.7284294357333L298.084669837074,309.16713815799886L300.1571680714471,315.74623130820646L300.5025844438426,332.8307917361346L302.5750826782157,313.94102489815674L303.61133179540224,310.20340564663223L304.9929972849843,297.17960327317735L306.3746627745664,330.0160582693664L307.0654955193574,321.7838875260866L308.4471610089395,315.9096661010007L308.792577381335,312.5184036195124L309.13799375373054,341.55606967927247L309.82882649852155,321.4479277086857L311.55590836049913,325.8147235675106L313.2829902224767,294.22319475601597L313.6284065948722,314.98914756411216L313.9738229672677,332.4029069495306L319.15506855320046,310.22476769139143L321.5729831599691,306.7871829036257L323.6454813943422,328.5577767688412L323.99089776673776,309.6312702439549L324.68173051152877,323.0694356841927L325.3725632563198,317.6419044627727L326.75422874590186,290.2327344942255L329.8629760974615,303.92771792114723L330.5538088422526,309.7384971033756L330.8992252146481,288.09317799532505L331.93547433183466,312.42191459642015L334.00797256620774,291.8725933752038L336.77130354537184,315.64949609133595L337.11671991776734,286.1983949259571L338.1529690349539,315.4099116691297L338.4983854073495,318.6609762628943L341.6071327589091,284.8133655434537L341.95254913130464,297.5370955771839L345.7521292276553,314.9054416795061L346.7883783448419,326.3316926258763L347.1337947172374,307.53087749377966L347.8246274620284,296.3310869474364L348.51546020681945,304.96820857997676L353.3512894203567,317.9034001312435L355.0783712823342,296.83758330123493L355.7692040271253,327.5474164408733L356.80545314431185,288.9834146974884L357.49628588910286,306.9558067037462L359.22336775108045,316.11563560348384L359.56878412347595,322.60522784630496L361.6412823578491,281.9797887836577L362.3321151026401,312.2122143112973L362.6775314750356,302.17036779399336L363.3683642198266,312.05794550224726L363.71378059222224,310.41153407917085L364.75002970940875,303.0112521126084L365.44086245419976,260.402760042098L367.16794431617734,312.6577492980037L367.51336068857285,300.59266337303245L370.62210804013256,288.7333765086979L371.31294078492357,293.19829005714814L372.69460627450565,309.4580066380135L373.04002264690115,314.8130432607294L373.38543901929665,321.32560727685984L374.7671045088788,304.60759150878476L376.1487699984608,321.0238873326191L376.4941863708563,303.3780240282568L377.5304354880429,294.200109354809L378.2212682328339,282.96677964067453L378.5666846052294,304.7728254099585L378.9121009776249,299.9856442057749L379.25751735002046,245.20740544756126L379.60293372241597,296.8622405550261L379.9483500948115,291.70968884593196L380.6391828396025,252.30446190023906L380.984599211998,308.11445143815433L382.7116810739756,298.0828314316393L383.05709744637113,307.3136209534627L384.4387629359532,315.075902463972L385.4750120531397,311.67068268905507L386.1658447979308,269.2680843690961L388.23834303230393,299.42070523661573L388.92917577709494,316.5409069484417L390.6562576390725,321.1523247329355L392.03792312865454,326.8137589816789L392.38333950105005,296.7439160376011L393.07417224584117,285.97055205317525L397.21916871458734,314.2455666018559L399.637083321356,291.64719350222157L399.9824996937515,298.9310068736873L400.6733324385425,311.59712756330623L401.018748810938,289.77328009005623L401.3641651833335,273.65436741236874L401.7095815557291,296.9436549436961L402.4004143005201,310.639604207748L403.4366634177066,310.639604207748L404.81832890728873,289.27935855693164L405.16374527968424,304.74566834241887L406.5454107692663,313.6283398617923L407.5816598864528,299.0644439015005L408.9633253760349,304.8572509379164L409.9995744932214,302.68407951929294L410.3449908656169,295.780086333723L410.69040723801254,316.3847443410975L411.03582361040804,296.54601411585145L411.38123998280355,282.2702216900646L412.07207272759456,300.4422579125027L412.41748909999006,286.66260276384486L412.76290547238557,259.0252111628569L413.79915458957214,260.48014064040126L414.14457096196764,308.05367945089165L414.48998733436315,283.9608533033119L415.1808200791542,271.8424569563574L415.8716528239452,268.81647028986504L416.21706919634073,295.686778891765L418.6349838031094,288.4915952804704L419.67123292029595,308.33661291605335L421.05289840987797,302.7362157863338L422.0891475270646,296.1959644391414L422.7799802718556,291.1013629578514L423.4708130166466,305.95904384753095L424.8524785062287,308.5170729555129L426.2341439958107,305.77847018017377L427.2703931129973,308.62763289993154L427.6158094853928,293.87191411041465L427.9612258577883,264.6250212151053L428.3066422301838,292.40094416131797L430.37914046455694,232.79599115952814L432.45163869893,299.48802976597653L433.14247144372115,309.8221461740328L433.48788781611665,291.4783613842887L434.8695533056987,283.94810804079157L435.90580242288524,301.52751796300845L436.25121879528075,312.19907135113516L437.28746791246726,301.54961858910247L437.6328842848628,295.67200726506985L437.97830065725833,263.4105473069825L438.66913340204934,304.4629242570866L439.35996614684035,328.3825436126738L441.4324643812135,313.3702530302512L442.46871349840006,288.96029142031557L442.81412987079557,275.4480974047553L443.8503789879821,275.35889950509585L444.1957953603776,289.2413689631489L444.5412117327732,297.43168676412563L445.23204447756416,280.3935812083556L445.57746084995966,298.6240411081715L447.6499590843328,318.4294783594045L449.0316245739149,304.0147947667171L449.3770409463104,285.7137151285084L450.0678736911014,308.38126867983186L450.7587064358924,302.95794169062515L451.44953918068353,283.5794044508831L451.79495555307903,298.3309379461697L452.14037192547454,279.3733920672405L452.48578829787004,266.5059984949081L452.83120467026555,299.33737811166856L453.8674537874521,297.5107339049278L454.55828653224313,294.1187517800878L455.24911927703414,288.50684035673913L456.2853683942207,209.79433371313223L456.9762011390117,311.62464445252175L457.3216175114072,286.38035106606907L457.66703388380273,302.5995782394033L459.7395321181759,273.59755346354115L460.08494849057143,283.0260365893018L460.77578123536244,303.374653067293L461.81203035254896,288.2552492533474L463.1936958421311,298.1013338409742L464.2299449593176,275.8642217039519L465.2661940765042,299.92544035800057L465.6116104488997,296.42000077735173L466.3024431936907,283.4856993112833L466.99327593848176,286.98246529574453L467.68410868327277,308.8579945244447L469.4111905452504,304.10567814685834L470.4474396624369,273.49706852604794L471.13827240722793,294.9015154290522L476.31951799316073,304.18485785354113L477.70118348274275,288.69917451150366L478.3920162275338,302.6673572803547L478.7374325999293,261.24315197315656L480.11909808951134,284.13913547473305L480.80993083430246,286.8196365184045L481.15534720669797,288.6537422904245L482.1915963238845,297.77065772081437L482.88242906867555,286.80929637971786L483.57326181346656,285.33936801968304L484.6095109306531,294.47213454179575L485.30034367544414,323.6633876432199L485.64576004783964,284.33698058253384L486.33659279263065,303.21142659231117L487.7182582822128,295.8274881050282L489.0999237717948,278.9543702566536L491.5178383785635,302.4458775698415L491.863254750959,282.9222943187425L492.2086711233545,288.33435320809843L492.55408749575,258.7254418308593L493.24492024054103,314.93025043716085L494.2811693577276,291.9507125548418L494.6265857301231,305.4528505014596L494.9720021025186,274.84369167914383L496.0082512197052,275.98658001174374L496.3536675921007,287.93868193047973L496.6990839644962,304.52545747676294L497.0445003368917,293.04570672858L499.80783131605585,306.3988595633887L500.15324768845136,287.46091449680506L501.18949680563793,294.4426481023542L503.6074114124066,283.78658598427455L504.6436605295931,273.75250403997705L507.40699150875724,281.76230498754546L507.75240788115275,302.7492261806153L508.44324062594376,311.5041041910924L508.78865699833926,313.5082919879195L509.13407337073477,278.81284671012395L510.1703224879214,290.50106677453846L510.5157388603169,272.14516167571117L511.2065716051079,294.6652640918439L511.897404349899,300.000775654146L513.6244862118765,295.3178480460612L513.9699025842721,294.72300600183576L515.3515680738541,296.32680696329146L515.6969844462496,293.9529497394258L516.0424008186452,302.0342226346193L516.3878171910407,287.0880256126663L517.4240663082272,292.4696511634335L517.7694826806227,287.0862075663038L518.1148990530182,253.32357157632646L519.1511481702048,312.4320085413285L519.4965645426004,285.5250170664689L522.2598955217644,262.56184160141214L523.6415610113465,294.02578522182284L524.3323937561375,271.90752786574797L525.0232265009287,285.2288838271962L525.3686428733241,296.42768959842635L526.4048919905107,275.09727127074456L527.4411411076973,273.3781758691346L527.7865574800927,283.38315013364945L528.1319738524883,272.9483594082705L528.4773902248837,259.5529748714999L529.5136393420704,259.477128249815L532.2769703212344,274.1895169343593L532.9678030660255,290.40929330919886L533.6586358108165,248.39641974021455L534.3494685556076,291.17825116859814L534.694884928003,270.6333046214415L535.7311340451896,271.8182352761739L536.4219667899807,300.74852297264965L537.1127995347717,284.8374546577566L538.8398813967493,300.8260361368335L541.2577960035179,296.8902119558323L541.6032123759135,297.31752860294796L542.6394614930999,284.4491313175197L543.330294237891,297.00651010908246L545.4027924722641,301.85395197498923L545.7482088446596,281.51980411596605L546.4390415894507,281.9886138837089L547.1298743342417,296.10475911329L548.5115398238238,289.9003539556008L549.8932053134058,298.30537166919726L550.5840380581968,295.8379229336295L552.3111199201745,285.17545977731527L552.65653629257,287.19377530941745L553.0019526649655,268.2534061810172L555.4198672717341,253.60661866938585L555.7652836441296,302.37448137414816L557.8377818785027,299.2167052843586L559.2194473680848,280.0611438557821L559.5648637404803,268.2309457332473L559.9102801128759,294.0096500603558L563.0190274644355,307.00919287766123L563.7098602092265,278.7284779961149L564.746109326413,293.7941168764866L566.8186075607862,278.0551380125925L567.1640239331816,289.51095115033604L568.5456894227638,284.8324171542939L569.5819385399502,294.6945990274219L569.9273549123459,268.1329795474855L570.2727712847413,296.71958072951986L571.3090204019279,275.81414967705183L575.1086004982785,265.52349593984866L576.1448496154651,294.96698403608457L577.1810987326517,292.2554625763533L577.5265151050472,291.4576432309496L577.8719314774427,274.16018199878135L578.9081805946292,283.4265938665197L579.2535969670248,282.30076865655093L579.5990133394203,302.17326530538355L584.780258925353,292.5346841968582L585.8165080425396,278.54010187978537L586.5073407873306,292.8796206181738L586.8527571597261,294.923653931112L587.5435899045171,270.6826948809557L587.8890062769127,262.7726971034945L588.9252553940993,284.23463972271236L589.9615045112857,289.4346689550435L590.3069208836813,294.5601772244957L590.9977536284723,286.7016718226553L591.6885863732633,285.6915766264486L592.3794191180544,272.87671701879884L593.0702518628455,279.9014398456276L594.1065009800319,257.0389765738594L594.797333724823,275.97563385760293L595.488166469614,296.55343780516495L596.178999214405,301.73371472128696L596.8698319591962,295.75114909578673L597.5606647039872,289.0942397736682L601.0148284279423,294.29095485898443L602.3964939175244,293.40708131908974L603.7781594071065,279.697269451524L604.123575779502,275.32157274071614L604.4689921518975,298.15943557264194L605.1598248966885,297.6558367302337L606.1960740138751,294.84261830210085L607.2323231310617,280.8936197099707L607.9231558758527,281.3568238347625L608.9594049930392,300.8050339137502L611.0319032274124,269.8044837979608L611.7227359722034,274.8995966047902L612.4135687169944,288.59228853577594L612.75898508939,285.01427860449127L613.7952342065764,286.8819046063196L614.140650578972,277.4259235293263L614.4860669513674,306.0494916540646L615.522316068554,283.0891000725005L618.2856470477182,274.57766983274985L620.0127289096957,269.79887815500985L620.7035616544867,276.46275665485126L622.7760598888599,253.90519490845804L624.157725378442,291.68548610373136L624.5031417508375,291.99519787677383L624.848558123233,284.85421477266084L625.1939744956285,291.73016080549286L627.2664727300016,265.6981230805619L628.3027218471882,274.38107463182325L630.7206364539568,248.48914010470128L631.4114691987478,258.49508020634613L632.4477183159344,277.41569701853734L632.7931346883299,266.7481584827945L633.8293838055164,276.9708627371998L634.174800177912,285.9783166261817L635.9018820398895,267.25855606107916L636.2472984122851,273.0609267788811L636.5927147846805,278.9744823945386L637.6289639018671,279.28419416758106L638.6652130190537,276.00678683954345L639.0106293914491,279.8211617359341L639.3560457638447,268.5888357348956L639.7014621362403,275.0560811578445L640.0468785086358,281.92395960994304L642.1193767430088,270.37095674373836L644.191874977382,277.3408919859143L646.2643732117551,242.6988328820338L647.6460387013371,231.20116680198723L648.3368714461282,276.64069794257944L650.0639533081057,244.84181715584683L651.4456187976878,266.69524575845304L653.8635334044565,280.76741699164154L654.5543661492475,268.5153752990615L655.590615266434,264.70562127050874L656.281448011225,272.913589271588L656.6268643836205,256.81904977794755L657.6631135008072,275.08876811640334L658.0085298732026,272.77911065471295L658.6993626179936,270.7065567394633L659.0447789903892,271.40665609288345L660.0810281075758,270.5241082117947L665.9531064382995,271.5019898990162L666.298522810695,279.19009133033956L666.6439391830905,257.75538153059307L666.9893555554861,275.20239601405865L668.3710210450681,216.34000132344622L669.4072701622547,273.7788278362672L670.7889356518368,275.9679071605624L671.1343520242323,282.1971021379235L671.4797683966278,276.7446106549852L672.8614338862099,268.8657847974475L673.2068502586054,281.4059679004984L673.5522666310009,271.44354728365556L674.2430993757919,268.3376044531798L674.9339321205829,278.70779771874163L675.624764865374,277.4081975772921L676.315597610165,272.0488052184994L679.0789285893292,275.3174631984176L680.8060104513067,275.77341407574244L681.1514268237022,285.4946026658631L684.2601741752619,281.92897817542286L684.6055905476575,272.16171347280294L688.4051706440081,272.9962914430981L690.1322525059857,272.38658308226275L691.1685016231722,253.17619619306757L691.5139179955678,248.67927745344443L692.5501671127543,259.2788096924406L693.2409998575454,272.7430527351903L693.5864162299409,247.05205020708883L696.349747209105,262.98737807813126L696.6951635815005,260.769967531354L697.040579953896,269.30764581546305L697.3859963262915,264.45645422893364L698.4222454434781,259.99462757170306L699.1130781882691,257.77306960666147L699.4584945606647,249.9803926335294L699.8039109330601,255.49733007242114L702.5672419122243,257.652226337505L704.2943237742019,251.2656756598743L704.6397401465974,255.66493122146272L705.675989263784,266.4309093925409L708.0939038705526,254.38084128804317L708.7847366153436,235.35150151577875L712.2389003392988,240.90763111037006L713.9659822012763,248.4406588683683L714.3113985736719,253.78643481742535L715.0022313184629,261.6007010911119L715.3476476908584,257.34060182818536L717.4201459252315,247.59403634092166L717.7655622976271,251.9938221660324L719.8380605320001,248.29775284908385L720.1834769043957,244.93242593523544L723.2922242559554,260.16033492245043L724.6738897455374,256.7847530908386L725.3647224903284,260.34874891474584L726.7463879799105,246.0876997086798L729.8551353314701,245.36317982625522L730.5459680762613,252.53470989685457L731.5822171934477,262.8444341828809L732.2730499382387,247.53760115175282L732.6184663106343,256.8568878678668L734.3455481726118,259.90900895081984L735.3817972897984,253.02234401964228L737.108879151776,263.32034569422717L737.799711896567,257.8953142865556L739.181377386149,265.8096109861447L739.8722101309402,250.10922773148755L740.2176265033357,244.41944332227914L740.5630428757312,235.56426028514682L741.2538756205222,244.42502055825574L741.9447083653132,249.3006705497554L743.6717902272908,246.65069753458735L744.7080393444775,259.8027479285292L745.3988720892685,266.6274856554846L746.4351212064549,248.96234348448678L747.4713703236415,251.47406922417417L748.8530358132236,253.70128964611564L749.8892849304101,227.6385818578092L751.2709504199921,239.8795827063338L751.6163667923877,238.9215385562446L751.9617831647831,249.60765525325414L754.3796977715518,234.94276302992967L755.0705305163428,235.99778859066762L755.7613632611339,259.0296615888484L756.7976123783204,249.15945001095278L757.1430287507161,248.67372862444228L759.2155269850891,230.18444331175058L759.5609433574846,235.9112325396287L760.9426088470666,241.67710029530883L762.3242743366488,245.18096802337348L763.3605234538353,233.55918240312144L763.7059398262309,228.3143174961738L764.0513561986263,247.01607750848945L764.3967725710219,247.42450351761994L765.0876053158129,246.1025092113409L766.1238544329996,226.23701014720558L768.541769039768,239.38576533211537L768.8871854121636,235.2570104498869L770.6142672741412,241.763078737868L771.3051000189322,226.58834760675575L771.6505163913278,225.52123961290042L771.9959327637232,214.66404664697941L775.1046801152829,248.72437825982217L776.4863456048649,242.64073115036604L776.8317619772605,230.36799971142125L777.177178349656,242.91320137995203L777.5225947220515,238.81895150264484L778.2134274668425,235.98307377792128L779.9405093288202,233.77592761789893L780.2859257012157,226.12561693153748L780.9767584460067,219.44658804534203L781.3221748184022,229.4709832113644L781.6675911907977,235.16129788409526L782.7038403079843,238.20936623869858L783.3946730527753,238.00746840254806L783.7400894251707,236.35117135237562L784.0855057975664,241.44686176768477L787.194253149126,218.69062164224138L788.2305022663124,232.76414694121024L791.3392496178722,212.48529799237934L793.4117478522453,233.11111919569217L793.7571642246409,218.0020839274076L795.8296624590139,225.6025119666984L796.1750788314093,221.70725294516006L796.5204952038049,231.39003530587325L797.2113279485959,232.08310866762173L799.283826182969,228.81594678835606L801.3563244173421,226.9623727698711L801.7017407897376,239.69608312061195L804.4650717689018,227.11784414083792L804.8104881412974,230.34521731794135L805.8467372584838,231.32663093898162L806.8829863756705,219.65417674536684L808.2646518652525,222.60924066573926L808.9554846100435,220.4040735249344L810.3371500996255,220.0039612903157L812.4096483339987,233.69754330649968L813.7913138235807,208.50591645061027L814.1367301959763,213.07489421532978L815.1729793131627,224.4821882407745L815.863812057954,210.65822768102248L816.9000611751404,221.97423115969266L818.2817266647224,220.32342612457356L818.9725594095135,219.54079504148976L819.6633921543045,231.63269715030762L820.0088085267001,218.07268472781746L820.3542248990957,211.02856940645552L822.7721395058642,228.37508948343645L823.4629722506552,215.34017051399434L823.8083886230507,225.71192616314892L825.8808868574239,232.7192071076876L826.2263032298195,217.27761138994038L826.5717196022149,224.7350955339808L827.2625523470059,216.9935889907595L827.9533850917969,218.46601716454273L832.0983815605431,228.28323079717362L835.2071289121028,225.11497253382535L836.5887944016848,222.58418571430627L838.3158762636625,224.1329055523736L838.6612926360581,218.1547808838734L840.3883744980355,221.33776342895948L840.7337908704311,224.64968523090985L841.0792072428266,223.51491182400085L842.4608727324088,223.8201068881115L842.8062891048043,230.427569136767L844.8787873391773,215.50877537613184L846.2604528287593,209.0502887702939L846.6058692011549,216.58464218709807L846.9512855735504,230.33667628763425L847.6421183183414,217.04850914129287L847.987534690737,213.5521029785076L849.7146165527145,216.45980300354077L850.750865669901,215.86731873819164L851.4416984146922,222.09088913461878L852.4779475318787,212.58437205014337L853.5141966490652,218.92392812310212L854.5504457662518,213.78899820713596L855.2412785110428,214.50573457857115L857.3137767454159,206.99855716728953L857.6591931178115,202.79633238023544L858.3500258626025,227.18587884455906L859.0408586073935,218.5261263224024L862.1496059589532,212.51793760598085L862.4950223313487,210.5524495772969L862.8404387037442,214.27140544663152L863.1858550761397,228.50408555424963L868.0216842896768,220.95872916935576L869.4033497792591,213.9126727047423L870.7850152688411,230.6191457722139L871.1304316412366,228.9270275273056L872.1666807584231,218.90089953584393L872.5120971308186,229.56078712647798L873.5483462480051,210.57713523806248L874.2391789927963,219.2291800011616L874.9300117375873,219.08629291986006L876.6570935995649,221.29827773452425L877.6933427167513,211.18533802925396L878.3841754615426,214.2044312699552L878.729591833938,216.8926495416757L879.420424578729,219.617029891825L880.4566736959156,227.40872208984402L881.492922813102,210.47329827758847L882.183755557893,217.03173955739723L883.2200046750797,212.11598838701673L884.2562537922663,213.48451331738562L884.6016701646618,230.63941888295383L885.6379192818483,220.99999503418763L886.6741683990348,218.004583741156L889.4374993781989,215.41860217035085L889.7829157505945,223.6623061452427L890.4737484953855,219.8356878428797L892.2008303573632,216.9512815368658L893.9279122193407,219.00340136852049L894.2733285917362,220.63187852175034L894.6187449641317,213.41627976484367L895.3095777089227,206.2827203500441L895.6549940813183,214.04458522492862L896.3458268261094,218.58876370098486L897.0366595709004,223.04372533939875L898.072908688087,206.66228487317014L898.4183250604824,214.55661146974634L899.7999905500644,221.7619079639323L901.5270724120421,208.2736704967943L902.2179051568331,208.9416605001354L904.2904033912062,222.3667587321429L904.6358197636017,220.22281809019125L904.9812361359972,213.49395390188252L905.3266525083928,213.55863658262277L905.6720688807883,220.0287795169619L906.7083179979749,223.6876072904539L907.3991507427659,207.94347729519953L908.4353998599523,221.42100533298347L908.7808162323479,202.02935354005365L909.8170653495346,200.63213756552676L910.5078980943256,219.6488930481258L911.1987308391166,211.62030562147842L911.544147211512,212.11339388335358L911.8895635839076,208.58510562628453L913.2712290734896,207.57031381030802L914.6528945630718,210.01062441631908L914.9983109354673,209.23102341050608L915.3437273078628,200.27711666829427L916.7253927974448,214.33380610042724L917.0708091698403,206.90755069025911L917.7616419146314,201.11157154170033L918.1070582870268,209.36713069391416L918.797891031818,204.5471583722656L919.1433074042135,209.2719389226535L919.488723776609,215.0209329355318L920.1795565214001,202.43367000688562L920.5249728937955,200.91796854207865L921.2158056385865,213.621027767427L922.2520547557731,211.3520869690631L922.9428875005641,202.2435326581424L923.2883038729598,209.74356098086324L925.3608021073328,206.79361978487668L925.7062184797282,200.1551939341101L926.0516348521237,194.23630727625422L927.4333003417057,205.039508052806L928.124133086497,207.4913234834547L928.814965831288,216.57337408724726L930.19663132087,205.91580639952366L932.6145459276387,219.46492001283042L933.6507950448251,215.6604875574846L934.3416277896162,221.23299850732124L935.0324605344072,223.56548570744891L935.3778769068027,221.60716570530872L936.7595423963849,205.13195381654006L937.4503751411759,215.54866823720033L937.7957915135714,212.37507893165375L938.1412078859669,203.0618050251241L939.1774570031534,196.10429309975848L939.5228733755489,210.74049427892496L940.5591224927355,214.6761196111053L940.9045388651309,203.36099674864195L941.9407879823176,207.33115549271804L942.9770370995042,205.13508805271704L944.3587025890862,206.9974398262959L946.4312008234593,195.6176910970411L946.7766171958548,193.9943461371887L947.8128663130414,207.04920680266935L948.1582826854368,196.25145069621357L948.8491154302278,198.61541282399173L949.5399481750188,204.0645617529406L949.8853645474144,203.1889735805833L950.5761972922055,201.2760763305308L950.9216136646011,211.43258286556042L951.6124464093921,206.36818746706382L951.9578627817875,212.0935184702554L952.3032791541831,196.77991511022537L952.6486955265785,207.63554569255362L953.3395282713695,200.27679472258419L954.0303610161606,205.43853135340555L954.3757773885561,200.29886694170378L955.7574428781382,200.1909299079227L956.1028592505338,202.49820118376235L956.7936919953248,213.63380143692177L957.8299411125113,214.1751247413516L958.5207738573023,222.97310560100595L959.557022974489,209.7841924232665L963.7020194432351,201.57427380994415L965.0836849328172,211.47870632301698L966.1199340500037,189.60415240043832L967.8470159119812,202.66335933300434L968.5378486567724,207.7233137745009L969.5740977739589,203.325876259275L971.6465960083319,205.6237542955751L971.9920123807275,193.93047778971496L972.6828451255186,187.72898908139885L973.7190942427052,203.55398426381802L974.7553433598916,207.24733598021433L975.1007597322872,211.63981174390923L975.4461761046826,211.71969215596093L978.5549234562424,203.5187785535278L978.9003398286379,199.8029758583531L979.2457562010334,205.6982373824882L979.5911725734289,215.75059448032525L980.28200531822,206.46709108298128L980.972838063011,219.37973696555486L982.0090871801976,201.55347043568176L983.7361690421751,212.5675456522989L984.4270017869661,213.45276378898248L984.7724181593617,207.51143562133964L985.1178345317571,214.91225732041593L985.4632509041527,201.17751359830626L988.2265818833168,201.96213316959904L991.3353292348766,197.85017627824064L993.062411096854,201.68846984708773L995.8257420760183,204.4849660362823L996.1711584484137,187.0976819510175L997.2074075656003,204.60220161968812L998.5890730551823,202.93135072962434L999.625322172369,201.83384727314623L1001.006987661951,203.779459888732L1002.0432367791375,211.56298034711133L1003.0794858963241,198.2751635534544L1003.4249022687195,193.72023777207826L1003.7703186411151,199.9112348378442L1004.4611513859062,200.58272836802962L1007.2244823650702,201.21567363393552L1007.9153151098612,203.53807635814624L1008.6061478546524,199.47773493929776L1009.2969805994434,199.6275438533648L1011.024062461421,203.55917327114426L1012.7511443233984,203.68383254386362L1015.5144753025627,193.2297534828577L1015.8598916749581,196.9220825481751L1016.2053080473537,200.19079734204212L1017.5869735369358,185.9771688452642L1018.6232226541224,195.81288488723L1019.6594717713089,180.89579554505963L1022.422802750473,200.40438938265962L1023.113635495264,192.23683503717984L1024.4953009848462,191.95343759143606L1024.8407173572416,195.84803378357134L1025.186133729637,193.93899041304763L1025.5315501020325,191.16732191949083L1026.2223828468236,175.1449929548103L1026.9132155916147,204.06478900873591L1027.9494647088013,194.83343134742427L1028.985713825988,189.06852942887423L1029.3311301983833,189.96336806089263L1030.0219629431742,200.03332801387478L1030.7127956879654,197.37059079820355L1033.130710294734,199.95864607814084L1034.512375784316,203.15874855980698L1035.203208529107,197.37472874747644L1035.8940412738982,204.6546787704219L1036.5848740186893,202.6658686157442L1036.9302903910848,193.99595586573886L1037.6211231358757,196.63732156765948L1038.6573722530622,193.46946100195302L1039.3482049978534,201.52548956588416L1040.38445411504,200.90240152009986L1041.075286859831,196.92408050537554L1042.1115359770174,190.04569147274387L1042.456952349413,191.2332923830712L1042.8023687218085,195.72659396795225L1046.2565324457637,204.90479271114418L1046.6019488181591,197.68559573747842L1047.2927815629503,188.03077530857988L1047.6381979353457,187.28430630392486L1047.9836143077412,197.15532274609558L1048.3290306801366,202.69637770626463L1049.3652797973234,182.59291341746473L1049.7106961697189,204.16186510929944L1050.40152891451,197.49150981929168L1051.4377780316963,193.37602099411447L1052.1286107764874,195.3645754860225L1052.8194435212783,196.25734987790017L1053.5102762660697,195.2088768592603L1056.6190236176292,192.55489846069995L1056.9644399900246,193.33480247424L1058.0006891072114,200.53824304609762L1058.6915218520023,201.48802076663233L1059.3823545967934,189.69457179999756L1060.0731873415843,200.77600942194132L1060.7640200863755,200.53026068628728L1061.109436458771,185.82011615272165L1062.1456855759575,193.63381428691997L1064.2181838103306,196.03725264014187L1064.563600182726,195.7228631853126L1065.945265672308,212.3286145905042L1066.9815147894947,193.6230669816L1068.0177639066812,195.40164658763254L1068.7085966514724,204.8062299789197L1069.0540130238678,200.15583782553014L1070.4356785134498,200.55087468072026L1071.817344003032,203.37310758873372L1072.8535931202184,191.61129452260445L1073.199009492614,197.16950729531953L1073.5444258650095,196.43495975092682L1073.889842237405,201.86604184414858L1074.9260913545916,199.9191035697568L1076.3077568441738,196.24147984819433L1076.9985895889647,192.54302434539497L1078.3802550785467,194.65762058277713L1078.7256714509422,189.5779990459947L1079.4165041957333,194.43264681441107L1079.7619205681287,195.08105494338957L1081.4890024301064,189.00468001938341L1082.525251547293,190.685492288475L1082.8706679196885,194.3409680389862L1083.5615006644794,196.09038315128717L1084.2523334092705,200.5077150175942L1084.9431661540616,194.26175045633755L1085.288582526457,194.0558661747776L1086.3248316436436,197.5768159634564L1086.670248016039,190.7777297343967L1087.3610807608302,196.17540522570775L1088.3973298780168,193.7370641699227L1088.7427462504122,194.35037074751716L1089.4335789952033,189.55549125326746L1091.5060772295765,201.2660202615883L1092.5423263467628,190.7892345590343L1093.5785754639496,196.72420903339992L1093.923991836345,196.0905062481763L1095.305657325927,200.60142015719393L1097.3781555603002,195.1389957022023L1101.868568401442,191.78094097380384L1103.250233891024,197.8542763515477L1103.941066635815,188.33035526074806L1105.6681484977926,199.28300512969102L1106.7043976149791,188.49919684767238L1107.3952303597703,191.97232822942124L1108.7768958493523,189.69664550912975L1110.5039777113298,182.26869514948825L1111.885643200912,193.02082965503547L1113.267308690494,191.79939603818133L1114.3035578076806,191.94139303428457L1117.4123051592403,196.18273422510651L1119.4848033936132,189.03650529971836L1122.9389671175684,182.3591713629963L1123.2843834899638,187.7608901136656L1123.6297998623595,198.66552272685772L1124.6660489795458,192.93604430540174L1125.0114653519415,192.6436134417943L1126.7385472139192,204.57774321471786L1127.4293799587101,199.52879174131087L1128.8110454482921,187.02324620906185L1129.1564618206876,186.3809929245397L1129.5018781930833,188.60398070729352L1129.847294565479,196.20295999088916L1130.1927109378744,190.73221229239425L1130.5381273102698,187.13349367676187L1130.8835436826653,192.6224313078731L1133.6468746618293,194.71895124053657L1134.6831237790161,175.09831082685693L1136.755622013389,192.78887723995516L1138.137287502971,187.8323336543164L1141.5914512269264,178.63109685487484L1141.9368675993219,194.96523970870444L1142.2822839717173,193.5838842948919L1144.700198578486,186.7174167225226L1146.4272804404636,186.01588755139025L1147.4635295576502,188.7601622526207L1148.1543623024413,192.9586562570351L1148.4997786748368,184.4613253455852L1148.8451950472322,182.2563286466268L1149.1906114196277,186.68793028308104L1150.5722769092097,189.9589649798585L1153.335607888374,189.4176700824031L1153.6810242607694,186.96348740388663L1154.717273377956,193.2512196865231L1155.408106122747,178.52561228988483L1155.7535224951425,186.10298333494305L1156.4443552399337,188.31423903726397L1158.1714371019111,194.23112773791942L1160.5893517086797,192.98808588252783L1161.2801844534708,187.1641448021544L1162.3164335706574,186.69132965101923L1163.0072663154483,182.16836171585865L1164.734348177426,189.04763136469714L1165.7705972946126,187.76589921015392L1166.8068464117991,187.54250676336358L1169.9155937633589,189.37155609393795L1170.2610101357543,181.41895732384754L1171.2972592529409,188.55347310678573L1172.3335083701274,186.0639616210899L1173.0243411149183,196.43841593281388L1173.3697574873138,182.41146860289214L1175.4422557216872,177.6685833408112L1176.4785048388735,182.26227517327075L1176.8239212112692,188.08830890075933L1177.51475395606,186.69864918142653L1178.5510030732466,182.53278532162213L1179.2418358180378,180.03792385574508L1179.9326685628287,188.57656797698414L1180.9689176800152,185.31455722907882L1181.3143340524107,181.7630510049222L1181.6597504248064,184.7645697974528L1184.077665031575,191.45998950788498L1185.8047468935524,186.5262567227005L1186.4955796383435,181.6097006880449L1186.840996010739,186.14076461091344L1187.1864123831344,192.5575876542778L1188.5680778727167,183.7535845160477L1188.9134942451121,180.64564372837148L1190.6405761070898,187.30143570949642L1190.9859924794853,190.95798145604388L1192.3676579690675,180.286664792704L1193.4039070862539,186.50791528622065L1193.7493234586495,188.38814451569723L1194.4401562034404,190.54359945127797L1196.8580708102093,183.45370155615242L1197.2034871826047,178.38566059593938L1198.9305690445822,192.7194790014622L1203.0755655133285,184.45351342762137L1204.802647375306,186.7310331322583L1205.4934801200968,179.55487272482947L1205.8388964924925,183.77650894439967L1206.875145609679,188.74589248247347L1207.2205619820745,176.6166825472588L1210.3293093336342,190.37310079084617L1212.4018075680074,190.2580525444702L1213.7834730575894,185.21738643860058L1214.1288894299848,184.87190081577964" fill="none"></path></g></g></g></g></g></g><g transform="translate(72, 376)" clip-path="url(#clip_1)"><clipPath id="clip_1"><rect width="1440" height="23"></rect></clipPath><g><g><line x1="37.32949050697697" y1="0" x2="37.32949050697697" y2="5" style="visibility: inherit;" fill="rgb(0, 0, 0)" stroke="rgb(200, 195, 188)" stroke-width="1px"></line><line x1="177.87977224343408" y1="0" x2="177.87977224343408" y2="5" style="visibility: inherit;" fill="rgb(0, 0, 0)" stroke="rgb(200, 195, 188)" stroke-width="1px"></line><line x1="318.43005397989117" y1="0" x2="318.43005397989117" y2="5" style="visibility: inherit;" fill="rgb(0, 0, 0)" stroke="rgb(200, 195, 188)" stroke-width="1px"></line><line x1="458.98033571634824" y1="0" x2="458.98033571634824" y2="5" style="visibility: inherit;" fill="rgb(0, 0, 0)" stroke="rgb(200, 195, 188)" stroke-width="1px"></line><line x1="599.5306174528054" y1="0" x2="599.5306174528054" y2="5" style="visibility: inherit;" fill="rgb(0, 0, 0)" stroke="rgb(200, 195, 188)" stroke-width="1px"></line><line x1="740.0808991892625" y1="0" x2="740.0808991892625" y2="5" style="visibility: inherit;" fill="rgb(0, 0, 0)" stroke="rgb(200, 195, 188)" stroke-width="1px"></line><line x1="880.6311809257195" y1="0" x2="880.6311809257195" y2="5" style="visibility: inherit;" fill="rgb(0, 0, 0)" stroke="rgb(200, 195, 188)" stroke-width="1px"></line><line x1="1021.1814626621766" y1="0" x2="1021.1814626621766" y2="5" style="visibility: inherit;" fill="rgb(0, 0, 0)" stroke="rgb(200, 195, 188)" stroke-width="1px"></line><line x1="1161.7317443986337" y1="0" x2="1161.7317443986337" y2="5" style="visibility: inherit;" fill="rgb(0, 0, 0)" stroke="rgb(200, 195, 188)" stroke-width="1px"></line><line x1="1302.2820261350907" y1="0" x2="1302.2820261350907" y2="5" style="visibility: inherit;" fill="rgb(0, 0, 0)" stroke="rgb(200, 195, 188)" stroke-width="1px"></line></g><g transform="translate(0, 8)"><text style="text-anchor: middle; visibility: inherit; font-family: Roboto, sans-serif; font-size: 12px; font-weight: 200;" x="37.32949050697697" y="0" dx="0em" dy="0.95em" fill="rgb(232, 230, 227)" stroke="none" stroke-width="1px">-20M</text><text style="text-anchor: middle; visibility: inherit; font-family: Roboto, sans-serif; font-size: 12px; font-weight: 200;" x="177.87977224343408" y="0" dx="0em" dy="0.95em" fill="rgb(232, 230, 227)" stroke="none" stroke-width="1px">0</text><text style="text-anchor: middle; visibility: inherit; font-family: Roboto, sans-serif; font-size: 12px; font-weight: 200;" x="318.43005397989117" y="0" dx="0em" dy="0.95em" fill="rgb(232, 230, 227)" stroke="none" stroke-width="1px">20M</text><text style="text-anchor: middle; visibility: inherit; font-family: Roboto, sans-serif; font-size: 12px; font-weight: 200;" x="458.98033571634824" y="0" dx="0em" dy="0.95em" fill="rgb(232, 230, 227)" stroke="none" stroke-width="1px">40M</text><text style="text-anchor: middle; visibility: inherit; font-family: Roboto, sans-serif; font-size: 12px; font-weight: 200;" x="599.5306174528054" y="0" dx="0em" dy="0.95em" fill="rgb(232, 230, 227)" stroke="none" stroke-width="1px">60M</text><text style="text-anchor: middle; visibility: inherit; font-family: Roboto, sans-serif; font-size: 12px; font-weight: 200;" x="740.0808991892625" y="0" dx="0em" dy="0.95em" fill="rgb(232, 230, 227)" stroke="none" stroke-width="1px">80M</text><text style="text-anchor: middle; visibility: inherit; font-family: Roboto, sans-serif; font-size: 12px; font-weight: 200;" x="880.6311809257195" y="0" dx="0em" dy="0.95em" fill="rgb(232, 230, 227)" stroke="none" stroke-width="1px">100M</text><text style="text-anchor: middle; visibility: inherit; font-family: Roboto, sans-serif; font-size: 12px; font-weight: 200;" x="1021.1814626621766" y="0" dx="0em" dy="0.95em" fill="rgb(232, 230, 227)" stroke="none" stroke-width="1px">120M</text><text style="text-anchor: middle; visibility: inherit; font-family: Roboto, sans-serif; font-size: 12px; font-weight: 200;" x="1161.7317443986337" y="0" dx="0em" dy="0.95em" fill="rgb(232, 230, 227)" stroke="none" stroke-width="1px">140M</text><text style="text-anchor: middle; visibility: inherit; font-family: Roboto, sans-serif; font-size: 12px; font-weight: 200;" x="1302.2820261350907" y="0" dx="0em" dy="0.95em" fill="rgb(232, 230, 227)" stroke="none" stroke-width="1px">160M</text></g><line x1="0" y1="0" x2="1440.701997756958" y2="0" fill="rgb(0, 0, 0)" stroke="rgb(200, 195, 188)" stroke-width="1px"></line></g></g></g></g></svg>